<svg xmlns="http://www.w3.org/2000/svg" xmlns:xlink="http://www.w3.org/1999/xlink" width="40" zoomAndPan="magnify" viewBox="0 0 30 30.000001" height="40" preserveAspectRatio="xMidYMid meet" version="1.2"><defs><clipPath id="969e439999"><path d="M 0.484375 3 L 29.515625 3 L 29.515625 25 L 0.484375 25 Z M 0.484375 3 "/></clipPath><clipPath id="21d134d174"><path d="M 3 10 L 16 10 L 16 22 L 3 22 Z M 3 10 "/></clipPath><clipPath id="2dade08bab"><path d="M 12.347656 12.03125 C 12.339844 12.078125 12.339844 12.046875 12.359375 12.085938 C 12.402344 12.179688 12.515625 12.246094 12.582031 12.296875 L 12.972656 12.613281 C 13.242188 12.867188 13.488281 13.167969 13.699219 13.472656 C 13.710938 13.492188 13.71875 13.503906 13.730469 13.523438 C 13.890625 13.769531 14.1875 14.292969 14.203125 14.554688 C 14.214844 14.707031 14.054688 14.824219 14.144531 14.953125 C 14.230469 15.082031 14.132812 15.058594 14.203125 15.246094 C 14.238281 15.339844 14.273438 15.410156 14.273438 15.527344 C 14.21875 15.558594 14.195312 15.546875 14.179688 15.609375 C 14.21875 15.617188 14.226562 15.625 14.261719 15.636719 C 14.410156 15.683594 14.328125 15.679688 14.421875 15.683594 C 14.503906 15.683594 14.546875 15.710938 14.605469 15.699219 C 14.636719 15.691406 14.664062 15.671875 14.6875 15.667969 C 14.777344 15.644531 14.703125 15.660156 14.761719 15.679688 C 14.808594 15.691406 14.816406 15.6875 14.867188 15.6875 C 14.917969 15.480469 14.859375 15.457031 14.691406 15.417969 C 14.691406 15.214844 14.671875 15.289062 14.65625 15.175781 C 14.65625 15.175781 14.65625 15.136719 14.65625 15.136719 C 14.65625 15.039062 14.699219 15.113281 14.753906 15.03125 C 14.839844 14.910156 14.714844 14.878906 14.722656 14.777344 C 14.726562 14.664062 14.894531 14.683594 14.671875 14.457031 C 14.542969 14.328125 14.53125 14.472656 14.503906 14.320312 C 14.449219 14.023438 14.472656 14.058594 14.300781 13.863281 C 13.84375 13.351562 14.222656 13.511719 13.757812 13.09375 C 13.726562 13.066406 13.699219 13.050781 13.667969 13.023438 C 13.636719 13 13.609375 12.976562 13.574219 12.957031 C 13.519531 12.929688 13.496094 12.941406 13.464844 12.90625 C 13.453125 12.894531 13.417969 12.820312 13.398438 12.792969 C 13.332031 12.699219 13.285156 12.710938 13.226562 12.644531 C 13.1875 12.601562 13.195312 12.578125 13.175781 12.539062 C 13.152344 12.5 13.148438 12.511719 13.109375 12.472656 L 12.917969 12.296875 C 12.816406 12.21875 12.511719 11.972656 12.402344 11.914062 C 12.335938 11.878906 12.378906 11.894531 12.332031 11.902344 C 12.308594 11.847656 12.324219 11.867188 12.210938 11.800781 L 11.933594 11.664062 C 11.492188 11.460938 11.273438 11.402344 10.800781 11.304688 L 10.023438 11.230469 C 9.789062 11.230469 9.738281 11.257812 9.621094 11.261719 C 9.621094 11.152344 9.617188 11.035156 9.632812 10.933594 C 9.648438 10.808594 9.667969 10.757812 9.636719 10.636719 C 9.574219 10.652344 9.570312 10.675781 9.554688 10.746094 L 9.460938 11.277344 C 9.28125 11.277344 9.445312 11.21875 9.285156 11.214844 C 9.277344 11.25 9.273438 11.25 9.269531 11.292969 C 9.15625 11.292969 9.089844 11.328125 8.949219 11.328125 C 8.929688 11.242188 8.898438 11.132812 8.835938 11.117188 C 8.816406 11.203125 8.851562 11.234375 8.851562 11.359375 C 8.757812 11.378906 8.667969 11.402344 8.574219 11.433594 C 7.929688 11.648438 7.875 11.746094 7.355469 12.011719 C 7.191406 12.09375 6.738281 12.394531 6.609375 12.515625 C 6.476562 12.640625 6.246094 12.824219 6.140625 12.960938 C 6.105469 13.003906 6.097656 13.011719 6.058594 13.054688 C 6.019531 13.09375 6.011719 13.109375 5.976562 13.152344 C 5.945312 13.1875 5.929688 13.210938 5.898438 13.246094 C 5.785156 13.386719 5.640625 13.453125 5.484375 13.75 C 5.449219 13.726562 5.324219 13.585938 5.214844 13.75 C 5.183594 13.796875 5.195312 13.820312 5.195312 13.894531 C 5.324219 13.980469 5.261719 13.917969 5.339844 13.957031 C 5.277344 14.070312 5.234375 14.175781 5.164062 14.179688 L 5.164062 14.132812 C 5.234375 14.09375 5.097656 13.957031 4.960938 13.996094 C 4.875 14.019531 4.609375 14.253906 4.765625 14.515625 C 4.808594 14.59375 4.90625 14.667969 5.019531 14.679688 C 5 14.761719 4.957031 14.777344 4.953125 14.886719 C 4.878906 14.886719 4.867188 14.882812 4.808594 14.902344 C 4.765625 14.917969 4.722656 14.933594 4.699219 14.96875 C 4.714844 15.027344 4.714844 15 4.746094 15.046875 C 4.808594 15.046875 4.824219 15.050781 4.878906 15.035156 C 4.949219 15.015625 4.925781 15.015625 5.019531 15.015625 C 5.003906 15.046875 4.980469 15.109375 4.972656 15.144531 C 4.765625 15.144531 4.667969 15.386719 4.84375 15.433594 C 4.832031 15.558594 4.808594 15.433594 4.808594 15.753906 C 4.8125 16.550781 4.925781 16.511719 4.9375 16.699219 C 4.953125 16.867188 5.023438 17.136719 5.007812 17.328125 C 4.984375 17.59375 5.121094 17.71875 5.183594 17.867188 C 5.277344 18.082031 5.324219 18.09375 5.386719 18.191406 C 5.527344 18.414062 5.53125 18.460938 5.726562 18.75 L 5.960938 19.046875 C 6.046875 19.140625 6.261719 19.394531 6.351562 19.472656 C 6.414062 19.523438 6.351562 19.492188 6.429688 19.507812 C 6.421875 19.539062 6.402344 19.519531 6.480469 19.582031 C 6.511719 19.609375 6.53125 19.625 6.5625 19.648438 C 6.613281 19.691406 6.660156 19.738281 6.71875 19.78125 C 6.945312 19.964844 7.378906 20.242188 7.632812 20.34375 C 7.660156 20.355469 7.707031 20.375 7.734375 20.386719 C 7.816406 20.425781 7.773438 20.394531 7.730469 20.453125 C 7.84375 20.480469 8.242188 20.675781 8.355469 20.675781 L 8.355469 20.644531 C 8.316406 20.636719 8.300781 20.628906 8.257812 20.613281 L 8.167969 20.578125 C 8.09375 20.546875 8.035156 20.53125 8.003906 20.484375 C 8.507812 20.601562 8.746094 20.90625 9.265625 20.851562 C 9.488281 20.828125 9.53125 20.785156 9.652344 20.96875 C 9.730469 21.085938 9.832031 21.144531 10.023438 21.144531 C 10.265625 21.144531 10.425781 21.074219 10.5 21.082031 C 11.070312 21.148438 10.984375 20.976562 11.039062 20.828125 C 11.078125 20.726562 11.144531 20.765625 11.144531 20.644531 C 11.492188 20.644531 11.761719 20.507812 12.03125 20.296875 C 12.066406 20.265625 12.101562 20.226562 12.136719 20.191406 C 12.175781 20.152344 12.195312 20.113281 12.238281 20.085938 C 12.25 20.140625 12.242188 20.121094 12.285156 20.148438 C 12.503906 20.035156 12.570312 19.929688 12.710938 19.820312 C 12.796875 19.753906 12.828125 19.695312 12.898438 19.621094 C 13.144531 19.375 13.511719 18.6875 13.703125 18.34375 C 13.808594 18.152344 13.699219 18.3125 13.851562 18.105469 L 14.074219 17.753906 C 14.15625 17.605469 14.074219 17.199219 14.140625 17.0625 C 14.183594 16.976562 14.21875 16.878906 14.226562 16.761719 C 14.230469 16.671875 14.183594 16.367188 14.136719 16.273438 C 14.105469 16.203125 14.066406 16.203125 14.128906 16.15625 C 14.144531 16.21875 14.164062 16.265625 14.226562 16.28125 C 14.339844 16.207031 14.257812 16.121094 14.25 16.097656 C 14.222656 16.039062 14.25 16.066406 14.210938 16.011719 L 14.152344 16.046875 C 14.148438 16.050781 14.144531 16.054688 14.144531 16.054688 L 14.128906 16.074219 C 14.128906 15.964844 14.113281 15.953125 14.101562 15.878906 C 14.082031 15.75 14.132812 15.773438 14.128906 15.675781 L 14.074219 15.261719 C 14.058594 15.121094 14.148438 15.128906 14.105469 14.992188 C 14.082031 14.921875 14.042969 14.925781 14.042969 14.925781 C 13.988281 14.894531 14.011719 14.949219 13.984375 14.871094 C 13.980469 14.863281 13.96875 14.800781 13.964844 14.78125 C 13.945312 14.714844 13.929688 14.652344 13.90625 14.597656 C 14.015625 14.523438 14.015625 14.496094 14.015625 14.421875 C 13.9375 14.378906 13.917969 14.371094 13.839844 14.421875 C 13.734375 14.199219 13.675781 14.007812 13.511719 13.757812 C 13.347656 13.507812 13.304688 13.421875 13.097656 13.175781 C 13.003906 13.0625 12.785156 12.816406 12.679688 12.726562 L 12.484375 12.554688 C 12.429688 12.511719 12.386719 12.484375 12.335938 12.445312 C 12.285156 12.410156 12.238281 12.375 12.183594 12.339844 C 12.074219 12.261719 12.089844 12.242188 12.027344 12.257812 C 12 12.191406 12.019531 12.210938 11.902344 12.140625 L 11.46875 11.902344 C 11.414062 11.878906 11.378906 11.859375 11.3125 11.832031 C 11.253906 11.808594 11.214844 11.792969 11.152344 11.769531 C 11.09375 11.742188 11.050781 11.730469 10.988281 11.710938 C 10.902344 11.679688 10.871094 11.6875 10.824219 11.648438 C 10.953125 11.648438 11.109375 11.722656 11.222656 11.691406 C 11.304688 11.671875 11.253906 11.671875 11.289062 11.597656 C 11.335938 11.621094 11.316406 11.605469 11.367188 11.621094 C 11.464844 11.648438 11.597656 11.722656 11.730469 11.730469 C 11.945312 11.746094 11.839844 11.800781 11.976562 11.84375 C 12.058594 11.867188 12.046875 11.835938 12.121094 11.859375 C 12.230469 11.890625 12.230469 11.984375 12.347656 12.03125 Z M 3.894531 12.800781 C 3.894531 12.859375 4.101562 12.988281 4.148438 13.015625 C 4.222656 13.058594 4.457031 13.207031 4.457031 13.042969 C 4.457031 13.007812 4.386719 12.957031 4.308594 12.871094 L 4.273438 12.839844 C 4.171875 12.734375 4.175781 12.640625 3.992188 12.625 C 3.976562 12.65625 3.96875 12.683594 3.953125 12.714844 L 3.925781 12.753906 C 3.910156 12.777344 3.898438 12.75 3.894531 12.800781 Z M 14.355469 12.851562 C 14.433594 12.851562 14.414062 12.726562 14.332031 12.695312 L 14.210938 12.640625 C 14.183594 12.679688 14.183594 12.664062 14.183594 12.699219 C 14.1875 12.78125 14.261719 12.851562 14.355469 12.851562 Z M 13.359375 11.984375 C 13.359375 12.042969 13.371094 12.007812 13.445312 12.058594 C 13.507812 12.097656 13.476562 12.105469 13.550781 12.113281 C 13.550781 12.082031 13.554688 12.082031 13.546875 12.054688 C 13.503906 11.941406 13.359375 11.925781 13.359375 11.984375 Z M 12.992188 12 C 12.992188 12.140625 13.105469 12.082031 13.121094 12.082031 C 13.117188 12.039062 13.117188 12.023438 13.101562 12 C 13.078125 11.960938 12.992188 11.914062 12.992188 12 Z M 13.585938 13.828125 L 13.617188 13.875 C 13.746094 13.875 13.71875 13.796875 13.710938 13.75 C 13.613281 13.75 13.625 13.75 13.585938 13.828125 Z M 13.984375 14.789062 C 14.023438 14.847656 14.011719 14.839844 14.097656 14.839844 C 14.109375 14.796875 14.097656 14.824219 14.113281 14.789062 C 14.082031 14.75 14.074219 14.746094 14 14.742188 C 13.992188 14.773438 14 14.769531 13.984375 14.789062 Z M 14.898438 14.96875 L 14.804688 14.96875 C 14.804688 15.082031 14.832031 15.050781 14.914062 15.03125 L 14.914062 14.984375 C 15.042969 14.992188 15.042969 15.046875 15.042969 14.871094 C 14.933594 14.84375 14.871094 14.847656 14.898438 14.96875 Z M 8.292969 11.148438 C 8.3125 11.058594 8.324219 11.140625 8.324219 10.972656 C 8.324219 10.867188 8.265625 10.894531 8.226562 10.828125 C 8.1875 10.765625 8.207031 10.683594 8.113281 10.683594 C 7.882812 10.683594 7.8125 10.816406 7.945312 10.933594 C 8.113281 11.082031 8.042969 11.144531 8.292969 11.148438 Z M 8.917969 10.507812 C 8.917969 10.714844 8.917969 10.648438 8.992188 10.722656 C 9.054688 10.785156 9.09375 10.910156 9.113281 10.988281 C 9.132812 11.101562 9.207031 11.019531 9.207031 11.003906 C 9.207031 10.96875 9.164062 10.695312 9.125 10.621094 C 9.097656 10.574219 9.066406 10.554688 9.039062 10.480469 C 9.015625 10.421875 9.011719 10.347656 8.996094 10.285156 C 8.925781 10.289062 8.941406 10.292969 8.929688 10.359375 C 8.921875 10.402344 8.917969 10.445312 8.917969 10.507812 Z M 5.5 13.058594 C 5.5 13.460938 5.804688 13.378906 5.804688 13.171875 C 5.804688 13.066406 5.828125 12.898438 5.640625 12.902344 C 5.582031 12.90625 5.5 12.984375 5.5 13.058594 Z M 4.539062 12.480469 C 4.539062 12.773438 4.882812 12.886719 4.710938 12.535156 C 4.628906 12.371094 4.539062 12.449219 4.539062 12.480469 Z M 3.976562 13.699219 L 4.023438 13.765625 L 4.121094 13.765625 C 4.175781 13.699219 4.167969 13.722656 4.167969 13.621094 C 4.039062 13.550781 4.003906 13.585938 3.976562 13.699219 Z M 4.585938 13.730469 C 4.585938 13.847656 4.761719 13.847656 4.761719 13.683594 C 4.703125 13.652344 4.714844 13.652344 4.632812 13.652344 C 4.625 13.664062 4.585938 13.71875 4.585938 13.730469 Z M 4.90625 13.445312 C 4.9375 13.558594 5.050781 13.625 5.050781 13.445312 C 5 13.414062 4.964844 13.386719 4.90625 13.445312 Z M 4.90625 12.640625 C 4.949219 12.636719 4.949219 12.632812 4.988281 12.625 C 4.988281 12.585938 4.996094 12.53125 4.953125 12.53125 C 4.882812 12.53125 4.898438 12.597656 4.90625 12.640625 Z M 7.472656 20.40625 L 7.535156 20.472656 C 7.621094 20.441406 7.585938 20.46875 7.632812 20.421875 C 7.597656 20.367188 7.59375 20.375 7.519531 20.355469 Z M 7.472656 20.40625 "/></clipPath><linearGradient x1="2454.360576" gradientTransform="matrix(0.00535282,0,0,0.00535282,-6.31622,-6.800089)" y1="2949.248147" x2="3548.365926" gradientUnits="userSpaceOnUse" y2="5417.071897" id="b9adf5b853"><stop style="stop-color:#fdfefe;stop-opacity:1;" offset="0"/><stop style="stop-color:#fdfefe;stop-opacity:1;" offset="0.31267"/><stop style="stop-color:#fdfefe;stop-opacity:1;" offset="0.5"/><stop style="stop-color:#fdfefe;stop-opacity:1;" offset="0.515625"/><stop style="stop-color:#fcfefe;stop-opacity:1;" offset="0.519531"/><stop style="stop-color:#fbfefe;stop-opacity:1;" offset="0.523438"/><stop style="stop-color:#fafdfe;stop-opacity:1;" offset="0.527344"/><stop style="stop-color:#fafdfe;stop-opacity:1;" offset="0.53125"/><stop style="stop-color:#f9fdfe;stop-opacity:1;" offset="0.535156"/><stop style="stop-color:#f8fdfd;stop-opacity:1;" offset="0.539063"/><stop style="stop-color:#f8fdfd;stop-opacity:1;" offset="0.542969"/><stop style="stop-color:#f7fdfd;stop-opacity:1;" offset="0.546875"/><stop style="stop-color:#f6fdfd;stop-opacity:1;" offset="0.550781"/><stop style="stop-color:#f6fcfd;stop-opacity:1;" offset="0.554688"/><stop style="stop-color:#f5fcfd;stop-opacity:1;" offset="0.558594"/><stop style="stop-color:#f4fcfd;stop-opacity:1;" offset="0.5625"/><stop style="stop-color:#f4fcfd;stop-opacity:1;" offset="0.566406"/><stop style="stop-color:#f3fcfd;stop-opacity:1;" offset="0.570312"/><stop style="stop-color:#f2fcfd;stop-opacity:1;" offset="0.574219"/><stop style="stop-color:#f2fcfd;stop-opacity:1;" offset="0.578125"/><stop style="stop-color:#f1fbfd;stop-opacity:1;" offset="0.582031"/><stop style="stop-color:#f1fbfd;stop-opacity:1;" offset="0.585938"/><stop style="stop-color:#f0fbfd;stop-opacity:1;" offset="0.589844"/><stop style="stop-color:#effbfd;stop-opacity:1;" offset="0.59375"/><stop style="stop-color:#effbfc;stop-opacity:1;" offset="0.597656"/><stop style="stop-color:#eefbfc;stop-opacity:1;" offset="0.601562"/><stop style="stop-color:#edfbfc;stop-opacity:1;" offset="0.605469"/><stop style="stop-color:#edfafc;stop-opacity:1;" offset="0.609375"/><stop style="stop-color:#ecfafc;stop-opacity:1;" offset="0.613281"/><stop style="stop-color:#ebfafc;stop-opacity:1;" offset="0.617188"/><stop style="stop-color:#ebfafc;stop-opacity:1;" offset="0.621094"/><stop style="stop-color:#eafafc;stop-opacity:1;" offset="0.625"/><stop style="stop-color:#e9fafc;stop-opacity:1;" offset="0.628906"/><stop style="stop-color:#e9fafc;stop-opacity:1;" offset="0.632812"/><stop style="stop-color:#e8f9fc;stop-opacity:1;" offset="0.636719"/><stop style="stop-color:#e7f9fc;stop-opacity:1;" offset="0.640625"/><stop style="stop-color:#e7f9fc;stop-opacity:1;" offset="0.644531"/><stop style="stop-color:#e6f9fc;stop-opacity:1;" offset="0.648438"/><stop style="stop-color:#e5f9fc;stop-opacity:1;" offset="0.652344"/><stop style="stop-color:#e5f9fb;stop-opacity:1;" offset="0.65625"/><stop style="stop-color:#e4f9fb;stop-opacity:1;" offset="0.660156"/><stop style="stop-color:#e4f9fb;stop-opacity:1;" offset="0.664063"/><stop style="stop-color:#e3f8fb;stop-opacity:1;" offset="0.667969"/><stop style="stop-color:#e2f8fb;stop-opacity:1;" offset="0.671875"/><stop style="stop-color:#e2f8fb;stop-opacity:1;" offset="0.675781"/><stop style="stop-color:#e1f8fb;stop-opacity:1;" offset="0.679688"/><stop style="stop-color:#e0f8fb;stop-opacity:1;" offset="0.683594"/><stop style="stop-color:#e0f8fb;stop-opacity:1;" offset="0.6875"/><stop style="stop-color:#dff8fb;stop-opacity:1;" offset="0.691406"/><stop style="stop-color:#def7fb;stop-opacity:1;" offset="0.695312"/><stop style="stop-color:#def7fb;stop-opacity:1;" offset="0.699219"/><stop style="stop-color:#ddf7fb;stop-opacity:1;" offset="0.703125"/><stop style="stop-color:#dcf7fb;stop-opacity:1;" offset="0.707031"/><stop style="stop-color:#dcf7fa;stop-opacity:1;" offset="0.710938"/><stop style="stop-color:#dbf7fa;stop-opacity:1;" offset="0.714844"/><stop style="stop-color:#daf7fa;stop-opacity:1;" offset="0.71875"/><stop style="stop-color:#daf6fa;stop-opacity:1;" offset="0.722656"/><stop style="stop-color:#d9f6fa;stop-opacity:1;" offset="0.726562"/><stop style="stop-color:#d8f6fa;stop-opacity:1;" offset="0.730469"/><stop style="stop-color:#d8f6fa;stop-opacity:1;" offset="0.734375"/><stop style="stop-color:#d7f6fa;stop-opacity:1;" offset="0.738281"/><stop style="stop-color:#d7f6fa;stop-opacity:1;" offset="0.742188"/><stop style="stop-color:#d6f6fa;stop-opacity:1;" offset="0.746094"/><stop style="stop-color:#d5f5fa;stop-opacity:1;" offset="0.75"/><stop style="stop-color:#d5f5fa;stop-opacity:1;" offset="0.753906"/><stop style="stop-color:#d4f5fa;stop-opacity:1;" offset="0.757813"/><stop style="stop-color:#d3f5fa;stop-opacity:1;" offset="0.761719"/><stop style="stop-color:#d3f5fa;stop-opacity:1;" offset="0.765625"/><stop style="stop-color:#d2f5f9;stop-opacity:1;" offset="0.769531"/><stop style="stop-color:#d1f5f9;stop-opacity:1;" offset="0.773438"/><stop style="stop-color:#d1f4f9;stop-opacity:1;" offset="0.777344"/><stop style="stop-color:#d0f4f9;stop-opacity:1;" offset="0.78125"/><stop style="stop-color:#cff4f9;stop-opacity:1;" offset="0.785156"/><stop style="stop-color:#cff4f9;stop-opacity:1;" offset="0.789063"/><stop style="stop-color:#cef4f9;stop-opacity:1;" offset="0.792969"/><stop style="stop-color:#cdf4f9;stop-opacity:1;" offset="0.796875"/><stop style="stop-color:#cdf4f9;stop-opacity:1;" offset="0.800781"/><stop style="stop-color:#ccf3f9;stop-opacity:1;" offset="0.804688"/><stop style="stop-color:#cbf3f9;stop-opacity:1;" offset="0.808594"/><stop style="stop-color:#cbf3f9;stop-opacity:1;" offset="0.8125"/><stop style="stop-color:#caf3f9;stop-opacity:1;" offset="0.816406"/><stop style="stop-color:#c9f3f9;stop-opacity:1;" offset="0.820313"/><stop style="stop-color:#c9f3f9;stop-opacity:1;" offset="0.824219"/><stop style="stop-color:#c8f3f8;stop-opacity:1;" offset="0.828125"/><stop style="stop-color:#c8f3f8;stop-opacity:1;" offset="0.832031"/><stop style="stop-color:#c7f2f8;stop-opacity:1;" offset="0.835938"/><stop style="stop-color:#c6f2f8;stop-opacity:1;" offset="0.839844"/><stop style="stop-color:#c6f2f8;stop-opacity:1;" offset="0.84375"/><stop style="stop-color:#c5f2f8;stop-opacity:1;" offset="0.875"/><stop style="stop-color:#c5f2f8;stop-opacity:1;" offset="1"/></linearGradient><clipPath id="d9a6b5ed97"><path d="M 10 14 L 14 14 L 14 19 L 10 19 Z M 10 14 "/></clipPath><clipPath id="f590004a3e"><path d="M 12.363281 16.726562 L 12.351562 16.875 C 12.425781 16.875 12.441406 16.902344 12.453125 16.960938 C 12.460938 17.007812 12.480469 17.097656 12.480469 17.132812 C 12.441406 17.195312 12.398438 17.195312 12.398438 17.273438 C 12.398438 17.285156 12.429688 17.628906 12.464844 17.671875 C 12.535156 17.753906 12.566406 17.6875 12.621094 17.664062 C 12.660156 17.691406 12.703125 17.746094 12.742188 17.753906 C 12.839844 17.78125 12.835938 17.714844 12.882812 17.683594 C 12.988281 17.617188 13.070312 17.785156 13.199219 17.757812 C 13.203125 17.753906 13.339844 17.644531 13.140625 17.574219 C 13.085938 17.554688 13.078125 17.554688 13.042969 17.519531 C 13.09375 17.445312 13.109375 17.523438 13.128906 17.4375 C 13.054688 17.363281 12.960938 17.4375 12.871094 17.351562 C 12.808594 17.289062 12.78125 17.179688 12.828125 17.101562 C 12.875 17.128906 12.902344 17.175781 12.941406 17.214844 C 12.984375 17.257812 13.027344 17.285156 13.078125 17.320312 C 13.226562 17.414062 13.3125 17.367188 13.433594 17.421875 C 13.425781 17.503906 13.402344 17.5 13.386719 17.570312 C 13.542969 17.613281 13.496094 17.640625 13.464844 17.753906 C 13.433594 17.859375 13.480469 17.789062 13.492188 17.886719 C 13.5 17.941406 13.480469 17.976562 13.496094 18.042969 C 13.734375 17.867188 13.925781 16.957031 13.941406 16.554688 C 13.964844 16.019531 13.972656 15.738281 13.863281 15.226562 C 13.851562 15.167969 13.835938 15.078125 13.820312 15.019531 C 13.796875 14.933594 13.816406 14.910156 13.808594 14.855469 C 13.808594 14.851562 13.808594 14.847656 13.804688 14.84375 C 13.804688 14.835938 13.804688 14.832031 13.800781 14.828125 L 13.789062 14.804688 C 13.785156 14.804688 13.792969 14.820312 13.746094 14.839844 L 13.703125 14.808594 C 13.511719 14.835938 13.421875 14.957031 13.304688 15.039062 C 13.058594 15.214844 12.964844 14.972656 12.976562 14.871094 C 13.125 14.785156 13.167969 14.984375 13.257812 14.878906 C 13.328125 14.804688 13.171875 14.6875 13.113281 14.667969 C 12.96875 14.609375 12.9375 14.660156 12.90625 14.472656 C 12.886719 14.363281 12.882812 14.238281 12.828125 14.152344 C 12.773438 14.058594 12.660156 14.03125 12.5625 14.105469 C 12.523438 14.324219 12.710938 14.441406 12.574219 14.59375 C 12.425781 14.597656 12.386719 14.453125 12.28125 14.425781 C 12.203125 14.402344 12.132812 14.433594 12.09375 14.472656 C 12.015625 14.558594 12.078125 14.554688 12.105469 14.613281 C 11.949219 14.78125 11.652344 14.785156 11.816406 14.984375 C 11.882812 15.066406 11.851562 15.0625 11.894531 15.152344 C 12.078125 15.175781 12.023438 14.992188 12.128906 14.875 C 12.203125 14.789062 12.34375 14.691406 12.472656 14.792969 C 12.480469 14.890625 12.445312 14.914062 12.4375 14.992188 L 12.574219 15.015625 C 12.582031 15.148438 12.484375 15.09375 12.3125 15.140625 C 12.1875 15.171875 12.183594 15.238281 12.121094 15.316406 C 11.988281 15.328125 11.863281 15.28125 11.820312 15.175781 C 11.785156 15.101562 11.707031 14.957031 11.597656 15 C 11.546875 15.117188 11.652344 15.273438 11.601562 15.386719 C 11.515625 15.503906 11.460938 15.359375 11.355469 15.367188 C 11.3125 15.371094 11.257812 15.410156 11.246094 15.441406 C 11.214844 15.539062 11.273438 15.484375 11.300781 15.546875 C 11.261719 15.589844 11.226562 15.601562 11.199219 15.632812 C 11.15625 15.679688 11.195312 15.640625 11.167969 15.699219 C 11.121094 15.8125 11.011719 15.757812 10.867188 15.859375 C 10.800781 15.910156 10.550781 16.175781 10.59375 16.304688 C 10.921875 16.363281 10.914062 15.878906 11.214844 15.84375 C 11.214844 15.90625 11.226562 15.921875 11.246094 15.957031 C 11.398438 15.972656 11.417969 15.847656 11.515625 15.796875 C 11.605469 15.84375 11.503906 15.832031 11.59375 15.851562 C 11.660156 15.78125 11.578125 15.777344 11.675781 15.773438 C 11.714844 15.832031 11.695312 16.054688 11.695312 16.140625 C 11.691406 16.34375 11.578125 16.28125 11.585938 16.386719 C 11.75 16.417969 11.929688 16.296875 11.910156 16.144531 C 11.894531 16.039062 11.660156 15.816406 11.902344 15.800781 C 11.90625 15.871094 11.898438 15.972656 11.917969 16.027344 C 11.9375 16.085938 11.976562 16.089844 12.027344 16.136719 C 12.046875 16.351562 11.878906 16.335938 11.960938 16.539062 C 12.269531 16.5625 11.980469 16.292969 12.1875 16.269531 C 12.191406 16.363281 12.140625 16.417969 12.1875 16.492188 C 12.277344 16.535156 12.261719 16.441406 12.300781 16.382812 L 12.375 16.386719 C 12.371094 16.414062 12.355469 16.464844 12.359375 16.476562 C 12.363281 16.542969 12.355469 16.457031 12.398438 16.539062 C 12.402344 16.621094 12.398438 16.671875 12.363281 16.726562 Z M 10.707031 14.390625 C 10.746094 14.484375 10.773438 14.558594 10.851562 14.636719 C 10.882812 14.671875 11.046875 14.742188 11.164062 14.695312 C 11.1875 14.621094 11.167969 14.601562 11.113281 14.550781 C 11.128906 14.53125 11.117188 14.546875 11.136719 14.523438 C 11.277344 14.375 11.261719 14.140625 11.0625 14.257812 C 10.964844 14.3125 10.976562 14.273438 10.921875 14.246094 C 10.832031 14.203125 10.738281 14.328125 10.707031 14.390625 Z M 10.902344 15.261719 C 10.964844 15.296875 11.054688 15.351562 11.152344 15.324219 C 11.171875 15.257812 11.1875 15.082031 11.144531 15.019531 C 11.050781 14.890625 10.949219 15.027344 10.941406 15.078125 C 10.9375 15.128906 10.960938 15.085938 10.941406 15.160156 C 10.925781 15.203125 10.914062 15.207031 10.902344 15.261719 Z M 11.246094 15.238281 C 11.316406 15.328125 11.5 15.332031 11.515625 15.207031 C 11.523438 15.136719 11.488281 15.09375 11.464844 15.035156 C 11.421875 14.941406 11.457031 14.914062 11.4375 14.839844 C 11.394531 14.699219 11.21875 14.867188 11.199219 14.941406 C 11.160156 15.070312 11.234375 15.019531 11.277344 15.082031 C 11.316406 15.140625 11.246094 15.152344 11.246094 15.238281 Z M 11.246094 15.238281 "/></clipPath><linearGradient x1="3897.697884" gradientTransform="matrix(0.00535282,0,0,0.00535282,-6.31622,-6.800089)" y1="4368.058489" x2="3088.574436" gradientUnits="userSpaceOnUse" y2="4050.660076" id="7a731891fb"><stop style="stop-color:#ff951f;stop-opacity:1;" offset="0"/><stop style="stop-color:#ff951f;stop-opacity:1;" offset="0.25"/><stop style="stop-color:#ff951f;stop-opacity:1;" offset="0.31475"/><stop style="stop-color:#ff951f;stop-opacity:1;" offset="0.375"/><stop style="stop-color:#ff951f;stop-opacity:1;" offset="0.40625"/><stop style="stop-color:#ff9520;stop-opacity:1;" offset="0.421875"/><stop style="stop-color:#ff9621;stop-opacity:1;" offset="0.425781"/><stop style="stop-color:#ff9622;stop-opacity:1;" offset="0.429688"/><stop style="stop-color:#ff9722;stop-opacity:1;" offset="0.433594"/><stop style="stop-color:#ff9723;stop-opacity:1;" offset="0.4375"/><stop style="stop-color:#ff9824;stop-opacity:1;" offset="0.441406"/><stop style="stop-color:#ff9825;stop-opacity:1;" offset="0.445312"/><stop style="stop-color:#ff9826;stop-opacity:1;" offset="0.449219"/><stop style="stop-color:#ff9926;stop-opacity:1;" offset="0.453125"/><stop style="stop-color:#ff9927;stop-opacity:1;" offset="0.457031"/><stop style="stop-color:#ff9a28;stop-opacity:1;" offset="0.460937"/><stop style="stop-color:#ff9a29;stop-opacity:1;" offset="0.464844"/><stop style="stop-color:#ff9b2a;stop-opacity:1;" offset="0.46875"/><stop style="stop-color:#ff9b2a;stop-opacity:1;" offset="0.472656"/><stop style="stop-color:#ff9b2b;stop-opacity:1;" offset="0.476562"/><stop style="stop-color:#ff9c2c;stop-opacity:1;" offset="0.480469"/><stop style="stop-color:#ff9c2d;stop-opacity:1;" offset="0.484375"/><stop style="stop-color:#ff9d2e;stop-opacity:1;" offset="0.488281"/><stop style="stop-color:#ff9d2e;stop-opacity:1;" offset="0.492188"/><stop style="stop-color:#ff9e2f;stop-opacity:1;" offset="0.496094"/><stop style="stop-color:#ff9e30;stop-opacity:1;" offset="0.5"/><stop style="stop-color:#ff9e31;stop-opacity:1;" offset="0.503906"/><stop style="stop-color:#ff9f32;stop-opacity:1;" offset="0.507812"/><stop style="stop-color:#ff9f32;stop-opacity:1;" offset="0.511719"/><stop style="stop-color:#ffa033;stop-opacity:1;" offset="0.515625"/><stop style="stop-color:#ffa034;stop-opacity:1;" offset="0.519531"/><stop style="stop-color:#ffa135;stop-opacity:1;" offset="0.523438"/><stop style="stop-color:#ffa136;stop-opacity:1;" offset="0.527344"/><stop style="stop-color:#ffa136;stop-opacity:1;" offset="0.53125"/><stop style="stop-color:#ffa237;stop-opacity:1;" offset="0.535156"/><stop style="stop-color:#ffa238;stop-opacity:1;" offset="0.539062"/><stop style="stop-color:#ffa339;stop-opacity:1;" offset="0.542969"/><stop style="stop-color:#ffa33a;stop-opacity:1;" offset="0.546875"/><stop style="stop-color:#ffa43a;stop-opacity:1;" offset="0.550781"/><stop style="stop-color:#ffa43b;stop-opacity:1;" offset="0.554688"/><stop style="stop-color:#ffa43c;stop-opacity:1;" offset="0.558594"/><stop style="stop-color:#ffa53d;stop-opacity:1;" offset="0.5625"/><stop style="stop-color:#ffa53e;stop-opacity:1;" offset="0.566406"/><stop style="stop-color:#ffa63e;stop-opacity:1;" offset="0.570312"/><stop style="stop-color:#ffa63f;stop-opacity:1;" offset="0.574219"/><stop style="stop-color:#ffa740;stop-opacity:1;" offset="0.578125"/><stop style="stop-color:#ffa741;stop-opacity:1;" offset="0.582031"/><stop style="stop-color:#ffa742;stop-opacity:1;" offset="0.585938"/><stop style="stop-color:#ffa843;stop-opacity:1;" offset="0.589844"/><stop style="stop-color:#ffa843;stop-opacity:1;" offset="0.59375"/><stop style="stop-color:#ffa944;stop-opacity:1;" offset="0.597656"/><stop style="stop-color:#ffa945;stop-opacity:1;" offset="0.601562"/><stop style="stop-color:#ffaa46;stop-opacity:1;" offset="0.605469"/><stop style="stop-color:#ffaa47;stop-opacity:1;" offset="0.609375"/><stop style="stop-color:#ffaa47;stop-opacity:1;" offset="0.613281"/><stop style="stop-color:#ffab48;stop-opacity:1;" offset="0.617188"/><stop style="stop-color:#ffab49;stop-opacity:1;" offset="0.621094"/><stop style="stop-color:#ffac4a;stop-opacity:1;" offset="0.625"/><stop style="stop-color:#ffac4b;stop-opacity:1;" offset="0.628906"/><stop style="stop-color:#ffad4b;stop-opacity:1;" offset="0.632812"/><stop style="stop-color:#ffad4c;stop-opacity:1;" offset="0.636719"/><stop style="stop-color:#ffad4d;stop-opacity:1;" offset="0.640625"/><stop style="stop-color:#ffae4e;stop-opacity:1;" offset="0.644531"/><stop style="stop-color:#ffae4f;stop-opacity:1;" offset="0.648438"/><stop style="stop-color:#ffaf4f;stop-opacity:1;" offset="0.652344"/><stop style="stop-color:#ffaf50;stop-opacity:1;" offset="0.65625"/><stop style="stop-color:#ffb051;stop-opacity:1;" offset="0.660156"/><stop style="stop-color:#ffb052;stop-opacity:1;" offset="0.664062"/><stop style="stop-color:#ffb053;stop-opacity:1;" offset="0.667969"/><stop style="stop-color:#ffb153;stop-opacity:1;" offset="0.671875"/><stop style="stop-color:#ffb154;stop-opacity:1;" offset="0.675781"/><stop style="stop-color:#ffb255;stop-opacity:1;" offset="0.679688"/><stop style="stop-color:#ffb256;stop-opacity:1;" offset="0.683594"/><stop style="stop-color:#ffb357;stop-opacity:1;" offset="0.6875"/><stop style="stop-color:#ffb357;stop-opacity:1;" offset="0.691406"/><stop style="stop-color:#ffb358;stop-opacity:1;" offset="0.695312"/><stop style="stop-color:#ffb459;stop-opacity:1;" offset="0.699219"/><stop style="stop-color:#ffb45a;stop-opacity:1;" offset="0.703125"/><stop style="stop-color:#ffb55b;stop-opacity:1;" offset="0.707031"/><stop style="stop-color:#ffb55b;stop-opacity:1;" offset="0.710937"/><stop style="stop-color:#ffb65c;stop-opacity:1;" offset="0.714844"/><stop style="stop-color:#ffb65d;stop-opacity:1;" offset="0.71875"/><stop style="stop-color:#ffb65e;stop-opacity:1;" offset="0.722656"/><stop style="stop-color:#ffb75f;stop-opacity:1;" offset="0.726562"/><stop style="stop-color:#ffb75f;stop-opacity:1;" offset="0.730469"/><stop style="stop-color:#ffb860;stop-opacity:1;" offset="0.734375"/><stop style="stop-color:#ffb861;stop-opacity:1;" offset="0.738281"/><stop style="stop-color:#ffb962;stop-opacity:1;" offset="0.742188"/><stop style="stop-color:#ffb963;stop-opacity:1;" offset="0.746094"/><stop style="stop-color:#ffb963;stop-opacity:1;" offset="0.75"/><stop style="stop-color:#ffba64;stop-opacity:1;" offset="0.753906"/><stop style="stop-color:#ffba65;stop-opacity:1;" offset="0.757812"/><stop style="stop-color:#ffbb66;stop-opacity:1;" offset="0.761719"/><stop style="stop-color:#ffbb67;stop-opacity:1;" offset="0.765625"/><stop style="stop-color:#ffbc67;stop-opacity:1;" offset="0.769531"/><stop style="stop-color:#ffbc68;stop-opacity:1;" offset="0.773437"/><stop style="stop-color:#ffbc69;stop-opacity:1;" offset="0.777344"/><stop style="stop-color:#ffbd6a;stop-opacity:1;" offset="0.78125"/><stop style="stop-color:#ffbd6b;stop-opacity:1;" offset="0.785156"/><stop style="stop-color:#ffbe6b;stop-opacity:1;" offset="0.789062"/><stop style="stop-color:#ffbe6c;stop-opacity:1;" offset="0.792969"/><stop style="stop-color:#ffbf6d;stop-opacity:1;" offset="0.796875"/><stop style="stop-color:#ffbf6e;stop-opacity:1;" offset="0.800781"/><stop style="stop-color:#ffbf6f;stop-opacity:1;" offset="0.804687"/><stop style="stop-color:#ffc06f;stop-opacity:1;" offset="0.808594"/><stop style="stop-color:#ffc070;stop-opacity:1;" offset="0.8125"/><stop style="stop-color:#ffc171;stop-opacity:1;" offset="0.816406"/><stop style="stop-color:#ffc172;stop-opacity:1;" offset="0.820312"/><stop style="stop-color:#ffc273;stop-opacity:1;" offset="0.824219"/><stop style="stop-color:#ffc273;stop-opacity:1;" offset="0.828125"/><stop style="stop-color:#ffc274;stop-opacity:1;" offset="0.832031"/><stop style="stop-color:#ffc375;stop-opacity:1;" offset="0.835938"/><stop style="stop-color:#ffc376;stop-opacity:1;" offset="0.839844"/><stop style="stop-color:#ffc477;stop-opacity:1;" offset="0.84375"/><stop style="stop-color:#ffc477;stop-opacity:1;" offset="0.847656"/><stop style="stop-color:#ffc578;stop-opacity:1;" offset="0.851562"/><stop style="stop-color:#ffc579;stop-opacity:1;" offset="0.855469"/><stop style="stop-color:#ffc57a;stop-opacity:1;" offset="0.859375"/><stop style="stop-color:#ffc67b;stop-opacity:1;" offset="0.863281"/><stop style="stop-color:#ffc67b;stop-opacity:1;" offset="0.867188"/><stop style="stop-color:#ffc77c;stop-opacity:1;" offset="0.871094"/><stop style="stop-color:#ffc77d;stop-opacity:1;" offset="0.875"/><stop style="stop-color:#ffc87e;stop-opacity:1;" offset="0.878906"/><stop style="stop-color:#ffc87f;stop-opacity:1;" offset="0.882812"/><stop style="stop-color:#ffc880;stop-opacity:1;" offset="0.886719"/><stop style="stop-color:#ffc980;stop-opacity:1;" offset="0.890625"/><stop style="stop-color:#ffc981;stop-opacity:1;" offset="0.894531"/><stop style="stop-color:#ffca82;stop-opacity:1;" offset="0.898437"/><stop style="stop-color:#ffca83;stop-opacity:1;" offset="0.902344"/><stop style="stop-color:#ffcb84;stop-opacity:1;" offset="0.90625"/><stop style="stop-color:#ffcb84;stop-opacity:1;" offset="0.910156"/><stop style="stop-color:#ffcb85;stop-opacity:1;" offset="0.914062"/><stop style="stop-color:#ffcc86;stop-opacity:1;" offset="0.917969"/><stop style="stop-color:#ffcc87;stop-opacity:1;" offset="0.921875"/><stop style="stop-color:#ffcd88;stop-opacity:1;" offset="0.925781"/><stop style="stop-color:#ffcd88;stop-opacity:1;" offset="0.929688"/><stop style="stop-color:#ffce89;stop-opacity:1;" offset="0.933594"/><stop style="stop-color:#ffce8a;stop-opacity:1;" offset="0.9375"/><stop style="stop-color:#ffce8a;stop-opacity:1;" offset="1"/></linearGradient><clipPath id="0b090102f3"><path d="M 6 15 L 10 15 L 10 20 L 6 20 Z M 6 15 "/></clipPath><clipPath id="1643912bc7"><path d="M 7.539062 16.007812 C 7.617188 16.097656 7.558594 16.113281 7.558594 16.210938 C 7.632812 16.214844 7.679688 16.199219 7.734375 16.230469 C 7.882812 16.371094 7.65625 16.511719 7.53125 16.550781 C 7.578125 16.710938 7.554688 16.757812 7.480469 16.882812 C 7.371094 17.066406 7.445312 17.070312 7.507812 17.164062 C 7.429688 17.398438 7.164062 17.121094 7.167969 17.410156 C 7.382812 17.402344 7.535156 17.136719 7.632812 17.46875 C 7.714844 17.464844 7.730469 17.464844 7.777344 17.5 C 7.769531 17.59375 7.761719 17.53125 7.730469 17.582031 C 7.679688 17.65625 7.753906 17.773438 7.609375 17.847656 C 7.492188 17.90625 7.542969 17.871094 7.484375 17.980469 C 7.441406 18.058594 7.402344 18.019531 7.300781 18.03125 C 7.285156 18.113281 7.320312 18.148438 7.328125 18.222656 C 7.328125 18.226562 7.320312 18.226562 7.320312 18.226562 C 7.320312 18.226562 7.3125 18.226562 7.3125 18.230469 C 7.308594 18.230469 7.304688 18.230469 7.304688 18.234375 C 7.277344 18.25 7.292969 18.253906 7.265625 18.289062 C 7.222656 18.351562 7.207031 18.308594 7.160156 18.421875 L 7.152344 18.441406 C 7.136719 18.503906 7.171875 18.472656 7.136719 18.558594 L 7.023438 18.882812 C 7.023438 18.886719 7.019531 18.902344 7.015625 18.90625 L 7.007812 18.941406 C 6.996094 18.976562 7.003906 18.96875 6.988281 18.992188 C 7.019531 19.03125 7.015625 19.011719 7.042969 19.058594 C 7.003906 19.128906 7.007812 19.058594 6.972656 19.136719 C 7.011719 19.207031 7.085938 19.277344 7.089844 19.378906 C 7.09375 19.511719 7.042969 19.617188 7.21875 19.601562 C 7.320312 19.457031 7.234375 19.375 7.277344 19.242188 C 7.285156 19.214844 7.40625 19.046875 7.460938 19.019531 C 7.492188 19.070312 7.507812 19.113281 7.574219 19.140625 C 7.566406 19 7.453125 19.046875 7.558594 18.871094 C 7.601562 18.796875 7.589844 18.832031 7.648438 18.785156 C 7.691406 18.753906 7.6875 18.742188 7.730469 18.710938 C 7.808594 18.71875 7.785156 18.757812 7.875 18.75 C 7.976562 18.640625 7.839844 18.585938 8.109375 18.507812 L 8.328125 18.484375 C 8.40625 18.480469 8.425781 18.511719 8.511719 18.507812 L 8.519531 18.398438 C 8.6875 18.414062 8.539062 18.300781 8.660156 18.164062 C 8.832031 18.175781 8.742188 18.3125 8.804688 18.433594 C 8.957031 18.390625 8.738281 18.171875 8.890625 18.007812 C 9.035156 17.855469 9.078125 17.945312 9.078125 17.65625 C 9.128906 17.605469 9.175781 17.59375 9.1875 17.515625 C 9.121094 17.457031 9.097656 17.492188 9.03125 17.453125 C 9.03125 17.355469 9.042969 17.402344 9.105469 17.355469 C 9.09375 17.292969 9.070312 17.289062 9.019531 17.253906 C 8.957031 17.21875 8.964844 17.207031 8.933594 17.148438 L 8.808594 17.117188 C 8.792969 16.929688 8.957031 17.050781 8.964844 16.875 C 8.851562 16.871094 8.835938 16.898438 8.761719 16.839844 C 8.742188 16.703125 8.820312 16.738281 8.871094 16.652344 C 8.828125 16.628906 8.8125 16.644531 8.765625 16.613281 C 8.742188 16.40625 9.109375 16.574219 9.035156 16.34375 C 8.792969 16.265625 8.519531 16.632812 8.5 16.285156 C 8.402344 16.28125 8.328125 16.277344 8.277344 16.21875 C 8.210938 16.242188 8.265625 16.246094 8.179688 16.257812 L 8.171875 16.230469 C 8.113281 16.03125 8.003906 16.207031 7.875 16.152344 C 7.828125 16.113281 7.859375 16.121094 7.8125 16.089844 C 7.652344 15.980469 7.753906 15.984375 7.738281 15.808594 L 7.664062 15.804688 C 7.625 15.925781 7.582031 15.933594 7.539062 16.003906 Z M 7.539062 16.007812 "/></clipPath><linearGradient x1="2522.058954" gradientTransform="matrix(0.00535282,0,0,0.00535282,-6.31622,-6.800089)" y1="4954.238231" x2="2883.467274" gradientUnits="userSpaceOnUse" y2="4216.730033" id="4b5760fde1"><stop style="stop-color:#ff951f;stop-opacity:1;" offset="0"/><stop style="stop-color:#ff951f;stop-opacity:1;" offset="0.221474"/><stop style="stop-color:#ff951f;stop-opacity:1;" offset="0.25"/><stop style="stop-color:#ff951f;stop-opacity:1;" offset="0.375"/><stop style="stop-color:#ff951f;stop-opacity:1;" offset="0.4375"/><stop style="stop-color:#ff951f;stop-opacity:1;" offset="0.46875"/><stop style="stop-color:#ff951f;stop-opacity:1;" offset="0.484375"/><stop style="stop-color:#ff9620;stop-opacity:1;" offset="0.492188"/><stop style="stop-color:#ff9621;stop-opacity:1;" offset="0.5"/><stop style="stop-color:#ff9722;stop-opacity:1;" offset="0.507812"/><stop style="stop-color:#ff9723;stop-opacity:1;" offset="0.515625"/><stop style="stop-color:#ff9824;stop-opacity:1;" offset="0.523438"/><stop style="stop-color:#ff9925;stop-opacity:1;" offset="0.53125"/><stop style="stop-color:#ff9926;stop-opacity:1;" offset="0.539062"/><stop style="stop-color:#ff9a27;stop-opacity:1;" offset="0.546875"/><stop style="stop-color:#ff9a28;stop-opacity:1;" offset="0.554688"/><stop style="stop-color:#ff9b29;stop-opacity:1;" offset="0.5625"/><stop style="stop-color:#ff9c2a;stop-opacity:1;" offset="0.570313"/><stop style="stop-color:#ff9c2b;stop-opacity:1;" offset="0.578125"/><stop style="stop-color:#ff9d2c;stop-opacity:1;" offset="0.585938"/><stop style="stop-color:#ff9e2d;stop-opacity:1;" offset="0.59375"/><stop style="stop-color:#ff9e2e;stop-opacity:1;" offset="0.601563"/><stop style="stop-color:#ff9f2f;stop-opacity:1;" offset="0.609375"/><stop style="stop-color:#ff9f30;stop-opacity:1;" offset="0.617188"/><stop style="stop-color:#ffa031;stop-opacity:1;" offset="0.625"/><stop style="stop-color:#ffa132;stop-opacity:1;" offset="0.632812"/><stop style="stop-color:#ffa133;stop-opacity:1;" offset="0.640625"/><stop style="stop-color:#ffa234;stop-opacity:1;" offset="0.648438"/><stop style="stop-color:#ffa235;stop-opacity:1;" offset="0.65625"/><stop style="stop-color:#ffa336;stop-opacity:1;" offset="0.664062"/><stop style="stop-color:#ffa437;stop-opacity:1;" offset="0.671875"/><stop style="stop-color:#ffa438;stop-opacity:1;" offset="0.679688"/><stop style="stop-color:#ffa539;stop-opacity:1;" offset="0.6875"/><stop style="stop-color:#ffa53a;stop-opacity:1;" offset="0.695312"/><stop style="stop-color:#ffa63b;stop-opacity:1;" offset="0.703125"/><stop style="stop-color:#ffa73c;stop-opacity:1;" offset="0.710938"/><stop style="stop-color:#ffa73d;stop-opacity:1;" offset="0.71875"/><stop style="stop-color:#ffa83e;stop-opacity:1;" offset="0.726563"/><stop style="stop-color:#ffa83f;stop-opacity:1;" offset="0.734375"/><stop style="stop-color:#ffa940;stop-opacity:1;" offset="0.742188"/><stop style="stop-color:#ffaa41;stop-opacity:1;" offset="0.75"/><stop style="stop-color:#ffaa42;stop-opacity:1;" offset="0.757813"/><stop style="stop-color:#ffab43;stop-opacity:1;" offset="0.765625"/><stop style="stop-color:#ffab44;stop-opacity:1;" offset="0.773438"/><stop style="stop-color:#ffac45;stop-opacity:1;" offset="0.778526"/><stop style="stop-color:#ffac45;stop-opacity:1;" offset="0.78125"/><stop style="stop-color:#ffad46;stop-opacity:1;" offset="0.789063"/><stop style="stop-color:#ffad47;stop-opacity:1;" offset="0.796875"/><stop style="stop-color:#ffae48;stop-opacity:1;" offset="0.804688"/><stop style="stop-color:#ffae49;stop-opacity:1;" offset="0.8125"/><stop style="stop-color:#ffaf4a;stop-opacity:1;" offset="0.820313"/><stop style="stop-color:#ffb04b;stop-opacity:1;" offset="0.828125"/><stop style="stop-color:#ffb04c;stop-opacity:1;" offset="0.835938"/><stop style="stop-color:#ffb14d;stop-opacity:1;" offset="0.84375"/><stop style="stop-color:#ffb14e;stop-opacity:1;" offset="0.851563"/><stop style="stop-color:#ffb24f;stop-opacity:1;" offset="0.859375"/><stop style="stop-color:#ffb350;stop-opacity:1;" offset="0.867188"/><stop style="stop-color:#ffb351;stop-opacity:1;" offset="0.875"/><stop style="stop-color:#ffb452;stop-opacity:1;" offset="0.882813"/><stop style="stop-color:#ffb453;stop-opacity:1;" offset="0.890625"/><stop style="stop-color:#ffb553;stop-opacity:1;" offset="0.898438"/><stop style="stop-color:#ffb654;stop-opacity:1;" offset="0.90625"/><stop style="stop-color:#ffb655;stop-opacity:1;" offset="0.914063"/><stop style="stop-color:#ffb756;stop-opacity:1;" offset="0.921875"/><stop style="stop-color:#ffb757;stop-opacity:1;" offset="0.929688"/><stop style="stop-color:#ffb858;stop-opacity:1;" offset="0.9375"/><stop style="stop-color:#ffb959;stop-opacity:1;" offset="0.945313"/><stop style="stop-color:#ffb95a;stop-opacity:1;" offset="0.953125"/><stop style="stop-color:#ffba5b;stop-opacity:1;" offset="0.960938"/><stop style="stop-color:#ffba5c;stop-opacity:1;" offset="0.96875"/><stop style="stop-color:#ffbb5d;stop-opacity:1;" offset="0.976562"/><stop style="stop-color:#ffbc5e;stop-opacity:1;" offset="0.984375"/><stop style="stop-color:#ffbc5f;stop-opacity:1;" offset="0.992188"/><stop style="stop-color:#ffbd60;stop-opacity:1;" offset="1"/></linearGradient><clipPath id="3173b7d8b3"><path d="M 6 11 L 10 11 L 10 17 L 6 17 Z M 6 11 "/></clipPath><clipPath id="43b4530e67"><path d="M 6.710938 13.859375 C 6.71875 14.039062 6.769531 14.066406 6.65625 14.25 C 6.589844 14.359375 6.5 14.410156 6.355469 14.457031 C 6.3125 14.628906 6.34375 14.625 6.496094 14.664062 C 6.519531 14.710938 6.507812 14.691406 6.488281 14.746094 C 6.710938 14.75 6.542969 14.769531 6.714844 14.8125 C 6.742188 14.914062 6.707031 14.878906 6.777344 14.914062 C 6.78125 14.914062 6.789062 14.917969 6.792969 14.917969 L 6.746094 15.046875 C 6.753906 15.050781 6.757812 15.050781 6.757812 15.054688 L 6.78125 15.082031 C 6.804688 15.117188 6.792969 15.054688 6.796875 15.125 C 6.800781 15.1875 6.773438 15.175781 6.78125 15.253906 C 6.953125 15.265625 6.8125 15.175781 6.984375 15.246094 C 6.957031 15.324219 6.980469 15.296875 6.980469 15.339844 C 6.984375 15.410156 6.945312 15.371094 6.96875 15.457031 C 7 15.59375 7.085938 15.53125 7.171875 15.585938 C 7.246094 15.730469 7.027344 15.777344 7.089844 15.890625 C 7.207031 15.886719 7.121094 15.777344 7.214844 15.695312 C 7.320312 15.6875 7.214844 15.691406 7.265625 15.703125 C 7.378906 15.730469 7.308594 15.675781 7.414062 15.714844 C 7.476562 15.871094 7.332031 16.003906 7.539062 16.007812 C 7.582031 15.9375 7.625 15.925781 7.664062 15.804688 C 7.59375 15.757812 7.648438 15.675781 7.601562 15.59375 C 7.578125 15.5625 7.558594 15.554688 7.507812 15.542969 C 7.445312 15.527344 7.4375 15.539062 7.390625 15.511719 C 7.378906 15.359375 7.421875 15.320312 7.457031 15.207031 C 7.589844 15.195312 7.800781 15.207031 7.882812 15.277344 C 8.042969 15.414062 7.921875 15.570312 8.09375 15.554688 L 8.035156 15.347656 C 8.089844 15.308594 8.109375 15.285156 8.148438 15.242188 C 8.207031 15.183594 8.226562 15.210938 8.324219 15.191406 C 8.464844 14.808594 8.441406 15.011719 8.730469 14.898438 C 8.730469 14.894531 8.734375 14.882812 8.734375 14.882812 C 8.734375 14.886719 8.738281 14.875 8.738281 14.871094 C 8.738281 14.867188 8.742188 14.859375 8.742188 14.855469 C 8.777344 14.734375 8.847656 14.6875 9.019531 14.621094 C 9.234375 14.535156 9.234375 14.75 9.398438 14.773438 C 9.527344 14.628906 9.40625 14.484375 9.355469 14.355469 C 9.316406 14.257812 9.339844 14.195312 9.320312 14.117188 C 9.292969 14.023438 9.242188 14.023438 9.152344 13.996094 C 9.132812 13.90625 9.152344 13.84375 9.03125 13.835938 C 8.925781 13.832031 8.875 13.875 8.765625 13.851562 L 8.742188 13.722656 C 8.742188 13.71875 8.742188 13.714844 8.742188 13.710938 C 8.460938 13.710938 8.65625 14.199219 8.4375 14.195312 C 8.351562 14.078125 8.492188 14.171875 8.386719 13.90625 C 8.238281 13.898438 8.214844 13.914062 8.199219 13.765625 C 8.136719 13.761719 8.054688 13.777344 8.035156 13.738281 C 8.03125 13.640625 8.058594 13.621094 8.132812 13.589844 C 8.230469 13.546875 8.238281 13.574219 8.277344 13.480469 C 8.277344 13.480469 8.4375 13.324219 8.519531 13.46875 C 8.53125 13.492188 8.53125 13.496094 8.539062 13.515625 C 8.550781 13.535156 8.535156 13.511719 8.550781 13.535156 C 8.628906 13.652344 8.699219 13.425781 8.722656 13.378906 C 8.78125 13.242188 8.730469 13.132812 8.800781 13.101562 C 8.855469 13.085938 8.878906 13.109375 8.910156 13.160156 C 9.085938 13.425781 8.917969 13.347656 8.796875 13.507812 C 8.832031 13.730469 8.941406 13.492188 9.109375 13.71875 C 9.136719 13.757812 9.195312 13.828125 9.242188 13.84375 C 9.378906 13.886719 9.382812 13.792969 9.324219 13.71875 C 9.457031 13.644531 9.457031 13.582031 9.371094 13.445312 C 9.410156 13.386719 9.433594 13.429688 9.433594 13.332031 C 9.429688 13.171875 9.292969 13.214844 9.269531 13.132812 C 9.246094 13.066406 9.285156 13.0625 9.292969 13.003906 C 9.25 12.96875 9.195312 12.957031 9.128906 12.941406 L 9.160156 12.808594 C 9.042969 12.800781 9.019531 12.804688 9.011719 12.695312 L 8.894531 12.683594 C 8.875 12.636719 8.871094 12.625 8.878906 12.570312 C 9.105469 12.449219 9.152344 12.773438 9.335938 12.402344 C 9.449219 12.175781 9.796875 12.453125 9.832031 12.191406 C 9.75 12.089844 9.652344 12.136719 9.558594 12.082031 C 9.492188 12.046875 9.542969 12.007812 9.402344 11.855469 C 9.292969 11.808594 9.265625 11.859375 9.160156 11.851562 C 9.058594 11.84375 9.066406 11.824219 8.949219 11.839844 C 8.664062 11.886719 8.71875 11.835938 8.59375 12.019531 C 8.492188 12.054688 8.550781 12.042969 8.433594 12.039062 C 8.371094 12.039062 8.328125 12.0625 8.242188 12.0625 C 7.988281 12.0625 8.054688 12.035156 7.894531 12.164062 C 7.78125 12.253906 7.765625 12.273438 7.613281 12.332031 C 7.457031 12.394531 7.566406 12.5 7.347656 12.453125 C 7.152344 12.710938 7.097656 12.6875 6.941406 12.863281 C 6.921875 12.882812 6.757812 12.984375 6.621094 13.105469 C 6.46875 13.25 6.710938 13.367188 6.492188 13.503906 C 6.433594 13.539062 6.351562 13.589844 6.332031 13.640625 C 6.453125 13.671875 6.488281 13.515625 6.578125 13.601562 C 6.628906 13.691406 6.527344 13.660156 6.601562 13.753906 C 6.613281 13.765625 6.695312 13.847656 6.710938 13.859375 Z M 6.710938 13.859375 "/></clipPath><radialGradient gradientTransform="matrix(0.792854,-0.70501,0.624415,0.701344,-29.643822,6.432089)" id="91e10a8e2b" gradientUnits="userSpaceOnUse" r="0.670357" cx="21.964934" fx="21.964934" cy="31.630053" fy="31.630053"><stop style="stop-color:#8748ef;stop-opacity:1;" offset="0"/><stop style="stop-color:#8647ee;stop-opacity:1;" offset="0.015625"/><stop style="stop-color:#8546ed;stop-opacity:1;" offset="0.0429688"/><stop style="stop-color:#8446ec;stop-opacity:1;" offset="0.0703125"/><stop style="stop-color:#8345eb;stop-opacity:1;" offset="0.0976562"/><stop style="stop-color:#8244ea;stop-opacity:1;" offset="0.125"/><stop style="stop-color:#8143e9;stop-opacity:1;" offset="0.152344"/><stop style="stop-color:#8143e9;stop-opacity:1;" offset="0.175781"/><stop style="stop-color:#8042e8;stop-opacity:1;" offset="0.199219"/><stop style="stop-color:#7f41e7;stop-opacity:1;" offset="0.222656"/><stop style="stop-color:#7e41e6;stop-opacity:1;" offset="0.246094"/><stop style="stop-color:#7d40e5;stop-opacity:1;" offset="0.269531"/><stop style="stop-color:#7d40e5;stop-opacity:1;" offset="0.289062"/><stop style="stop-color:#7c3fe4;stop-opacity:1;" offset="0.308594"/><stop style="stop-color:#7b3fe3;stop-opacity:1;" offset="0.328125"/><stop style="stop-color:#7b3ee3;stop-opacity:1;" offset="0.347656"/><stop style="stop-color:#7a3de2;stop-opacity:1;" offset="0.367188"/><stop style="stop-color:#7a3de2;stop-opacity:1;" offset="0.386719"/><stop style="stop-color:#793de1;stop-opacity:1;" offset="0.402344"/><stop style="stop-color:#783ce0;stop-opacity:1;" offset="0.417969"/><stop style="stop-color:#783ce0;stop-opacity:1;" offset="0.433594"/><stop style="stop-color:#773bdf;stop-opacity:1;" offset="0.449219"/><stop style="stop-color:#773bdf;stop-opacity:1;" offset="0.464844"/><stop style="stop-color:#763ade;stop-opacity:1;" offset="0.480469"/><stop style="stop-color:#763ade;stop-opacity:1;" offset="0.496094"/><stop style="stop-color:#7539dd;stop-opacity:1;" offset="0.511719"/><stop style="stop-color:#7439dc;stop-opacity:1;" offset="0.539062"/><stop style="stop-color:#7338db;stop-opacity:1;" offset="0.566406"/><stop style="stop-color:#7237db;stop-opacity:1;" offset="0.589844"/><stop style="stop-color:#7237da;stop-opacity:1;" offset="0.613281"/><stop style="stop-color:#7136d9;stop-opacity:1;" offset="0.636719"/><stop style="stop-color:#7035d8;stop-opacity:1;" offset="0.65625"/><stop style="stop-color:#7035d8;stop-opacity:1;" offset="0.675781"/><stop style="stop-color:#6f34d7;stop-opacity:1;" offset="0.695312"/><stop style="stop-color:#6f34d7;stop-opacity:1;" offset="0.710938"/><stop style="stop-color:#6e33d6;stop-opacity:1;" offset="0.726562"/><stop style="stop-color:#6d33d5;stop-opacity:1;" offset="0.742188"/><stop style="stop-color:#6d32d5;stop-opacity:1;" offset="0.757812"/><stop style="stop-color:#6c32d4;stop-opacity:1;" offset="0.785156"/><stop style="stop-color:#6b31d3;stop-opacity:1;" offset="0.808594"/><stop style="stop-color:#6a31d2;stop-opacity:1;" offset="0.832031"/><stop style="stop-color:#6a30d2;stop-opacity:1;" offset="0.851562"/><stop style="stop-color:#6930d1;stop-opacity:1;" offset="0.867188"/><stop style="stop-color:#682fd1;stop-opacity:1;" offset="0.882812"/><stop style="stop-color:#682ed0;stop-opacity:1;" offset="0.910156"/><stop style="stop-color:#672ecf;stop-opacity:1;" offset="0.929688"/><stop style="stop-color:#662dce;stop-opacity:1;" offset="0.945312"/><stop style="stop-color:#652ccd;stop-opacity:1;" offset="0.972656"/><stop style="stop-color:#652ccd;stop-opacity:1;" offset="1"/></radialGradient><clipPath id="0ee517b004"><path d="M 9 15 L 13 15 L 13 20 L 9 20 Z M 9 15 "/></clipPath><clipPath id="92cd516752"><path d="M 10.941406 18.148438 C 10.914062 18.265625 10.890625 18.230469 10.851562 18.320312 C 10.886719 18.382812 10.886719 18.328125 10.898438 18.398438 C 10.820312 18.515625 10.75 18.464844 10.796875 18.636719 C 10.835938 18.777344 10.703125 18.742188 10.636719 18.832031 C 10.65625 18.878906 10.632812 18.828125 10.683594 18.878906 C 10.859375 19.070312 10.648438 19.050781 10.722656 19.203125 C 10.75 19.257812 10.753906 19.261719 10.8125 19.277344 C 10.886719 19.300781 10.894531 19.285156 10.921875 19.332031 C 11.023438 19.480469 10.808594 19.519531 10.757812 19.828125 C 10.824219 19.859375 10.882812 19.886719 10.972656 19.875 C 11 19.757812 11.003906 19.484375 11.152344 19.421875 C 11.167969 19.488281 11.148438 19.609375 11.179688 19.667969 C 11.34375 19.695312 11.234375 19.507812 11.257812 19.410156 C 11.277344 19.335938 11.304688 19.390625 11.367188 19.375 C 11.433594 19.363281 11.421875 19.320312 11.441406 19.253906 C 11.601562 19.214844 11.5625 19.238281 11.5625 19.058594 L 11.660156 19.003906 L 11.703125 19.046875 C 11.707031 19.050781 11.710938 19.054688 11.714844 19.058594 C 11.714844 19.058594 11.71875 19.0625 11.722656 19.066406 L 11.730469 19.023438 C 11.753906 18.859375 11.78125 18.929688 11.875 18.855469 C 11.960938 18.785156 12.078125 18.796875 12.058594 18.675781 C 12.046875 18.582031 11.820312 18.523438 12.058594 18.460938 C 12.15625 18.4375 12.101562 18.445312 12.148438 18.378906 C 12.210938 18.289062 12.304688 18.367188 12.34375 18.21875 C 12.382812 18.074219 12.324219 18.050781 12.507812 18.027344 C 12.617188 18.011719 12.726562 18.003906 12.71875 17.886719 C 12.601562 17.808594 12.535156 17.933594 12.382812 17.789062 C 12.375 17.648438 12.414062 17.734375 12.363281 17.570312 C 12.332031 17.472656 12.34375 17.449219 12.292969 17.371094 C 12.246094 17.273438 12.210938 17.234375 12.21875 17.101562 C 12.222656 16.96875 12.261719 16.910156 12.351562 16.875 L 12.363281 16.726562 L 12.203125 16.707031 C 12.164062 16.664062 12.027344 16.632812 11.894531 16.558594 C 11.691406 16.445312 11.683594 16.523438 11.527344 16.476562 C 11.382812 16.433594 11.476562 16.234375 11.394531 16.164062 C 11.34375 16.121094 11.160156 16.011719 11.097656 16.058594 C 11.0625 16.105469 11.082031 16.160156 11.070312 16.222656 C 10.941406 16.300781 10.941406 16.234375 10.792969 16.363281 C 10.691406 16.453125 10.625 16.460938 10.476562 16.421875 C 10.128906 16.335938 10.230469 16.269531 10.015625 16.050781 C 9.78125 15.816406 9.542969 16.082031 9.6875 16.28125 C 9.808594 16.449219 10.171875 16.398438 10.167969 16.640625 C 10.136719 16.664062 10.113281 16.683594 10.0625 16.691406 C 9.984375 16.707031 9.972656 16.671875 9.945312 16.730469 C 9.960938 16.773438 9.925781 16.757812 10.007812 16.769531 C 10.023438 16.773438 10.074219 16.769531 10.101562 16.769531 L 10.054688 16.914062 L 10.207031 16.917969 C 10.222656 17.046875 10.09375 17.152344 10.222656 17.203125 C 10.359375 17.257812 10.308594 17.171875 10.355469 17.324219 L 10.441406 17.4375 C 10.472656 17.457031 10.78125 17.410156 10.871094 17.488281 C 10.875 17.492188 10.882812 17.503906 10.886719 17.507812 L 10.902344 17.53125 C 10.898438 17.625 10.921875 17.652344 10.890625 17.753906 C 10.828125 17.820312 10.875 17.820312 10.859375 17.890625 C 10.839844 18.011719 10.808594 17.914062 10.796875 18.035156 C 10.863281 18.097656 10.847656 18.019531 10.933594 18.136719 C 10.9375 18.140625 10.941406 18.144531 10.941406 18.148438 Z M 12.226562 19.1875 C 12.25 19.019531 12.394531 19.039062 12.453125 18.960938 C 12.414062 18.910156 12.355469 18.925781 12.273438 18.90625 C 12.246094 18.855469 12.25 18.796875 12.15625 18.804688 C 12.113281 18.808594 12.074219 18.851562 12.011719 18.878906 C 11.660156 19.035156 11.957031 19.214844 12.171875 19.296875 C 12.230469 19.320312 12.3125 19.359375 12.335938 19.296875 C 12.363281 19.214844 12.28125 19.210938 12.226562 19.1875 Z M 12.226562 19.1875 "/></clipPath><linearGradient x1="3628.026026" gradientTransform="matrix(0.00535282,0,0,0.00535282,-6.31622,-6.800089)" y1="4925.392732" x2="3000.840226" gradientUnits="userSpaceOnUse" y2="4192.547178" id="d8d67dd2b4"><stop style="stop-color:#e93628;stop-opacity:1;" offset="0"/><stop style="stop-color:#e93628;stop-opacity:1;" offset="0.25"/><stop style="stop-color:#e93628;stop-opacity:1;" offset="0.375"/><stop style="stop-color:#e93628;stop-opacity:1;" offset="0.401168"/><stop style="stop-color:#e93628;stop-opacity:1;" offset="0.40625"/><stop style="stop-color:#e93628;stop-opacity:1;" offset="0.421875"/><stop style="stop-color:#e93628;stop-opacity:1;" offset="0.429688"/><stop style="stop-color:#e93729;stop-opacity:1;" offset="0.4375"/><stop style="stop-color:#ea382a;stop-opacity:1;" offset="0.445313"/><stop style="stop-color:#ea392b;stop-opacity:1;" offset="0.453125"/><stop style="stop-color:#ea392c;stop-opacity:1;" offset="0.460938"/><stop style="stop-color:#ea3a2d;stop-opacity:1;" offset="0.46875"/><stop style="stop-color:#ea3b2d;stop-opacity:1;" offset="0.476563"/><stop style="stop-color:#eb3c2e;stop-opacity:1;" offset="0.484375"/><stop style="stop-color:#eb3d2f;stop-opacity:1;" offset="0.492188"/><stop style="stop-color:#eb3e30;stop-opacity:1;" offset="0.5"/><stop style="stop-color:#eb3e31;stop-opacity:1;" offset="0.507812"/><stop style="stop-color:#ec3f32;stop-opacity:1;" offset="0.515625"/><stop style="stop-color:#ec4033;stop-opacity:1;" offset="0.523438"/><stop style="stop-color:#ec4134;stop-opacity:1;" offset="0.53125"/><stop style="stop-color:#ec4235;stop-opacity:1;" offset="0.539062"/><stop style="stop-color:#ed4336;stop-opacity:1;" offset="0.546875"/><stop style="stop-color:#ed4436;stop-opacity:1;" offset="0.554688"/><stop style="stop-color:#ed4437;stop-opacity:1;" offset="0.5625"/><stop style="stop-color:#ed4538;stop-opacity:1;" offset="0.570313"/><stop style="stop-color:#ed4639;stop-opacity:1;" offset="0.578125"/><stop style="stop-color:#ee473a;stop-opacity:1;" offset="0.585938"/><stop style="stop-color:#ee483b;stop-opacity:1;" offset="0.59375"/><stop style="stop-color:#ee493c;stop-opacity:1;" offset="0.598832"/><stop style="stop-color:#ee493c;stop-opacity:1;" offset="0.601562"/><stop style="stop-color:#ee493d;stop-opacity:1;" offset="0.609375"/><stop style="stop-color:#ef4a3e;stop-opacity:1;" offset="0.617188"/><stop style="stop-color:#ef4b3f;stop-opacity:1;" offset="0.625"/><stop style="stop-color:#ef4c40;stop-opacity:1;" offset="0.632812"/><stop style="stop-color:#ef4d40;stop-opacity:1;" offset="0.640625"/><stop style="stop-color:#f04e41;stop-opacity:1;" offset="0.648438"/><stop style="stop-color:#f04f42;stop-opacity:1;" offset="0.65625"/><stop style="stop-color:#f04f43;stop-opacity:1;" offset="0.664062"/><stop style="stop-color:#f05044;stop-opacity:1;" offset="0.671875"/><stop style="stop-color:#f05145;stop-opacity:1;" offset="0.679688"/><stop style="stop-color:#f15246;stop-opacity:1;" offset="0.6875"/><stop style="stop-color:#f15347;stop-opacity:1;" offset="0.695313"/><stop style="stop-color:#f15448;stop-opacity:1;" offset="0.703125"/><stop style="stop-color:#f15449;stop-opacity:1;" offset="0.710938"/><stop style="stop-color:#f25549;stop-opacity:1;" offset="0.71875"/><stop style="stop-color:#f2564a;stop-opacity:1;" offset="0.726562"/><stop style="stop-color:#f2574b;stop-opacity:1;" offset="0.734375"/><stop style="stop-color:#f2584c;stop-opacity:1;" offset="0.742188"/><stop style="stop-color:#f3594d;stop-opacity:1;" offset="0.75"/><stop style="stop-color:#f3594e;stop-opacity:1;" offset="0.757812"/><stop style="stop-color:#f35a4f;stop-opacity:1;" offset="0.765625"/><stop style="stop-color:#f35b50;stop-opacity:1;" offset="0.773438"/><stop style="stop-color:#f35c51;stop-opacity:1;" offset="0.78125"/><stop style="stop-color:#f45d52;stop-opacity:1;" offset="0.789062"/><stop style="stop-color:#f45e52;stop-opacity:1;" offset="0.796875"/><stop style="stop-color:#f45f53;stop-opacity:1;" offset="0.804688"/><stop style="stop-color:#f45f54;stop-opacity:1;" offset="0.8125"/><stop style="stop-color:#f56055;stop-opacity:1;" offset="0.820312"/><stop style="stop-color:#f56156;stop-opacity:1;" offset="0.828125"/><stop style="stop-color:#f56257;stop-opacity:1;" offset="0.835938"/><stop style="stop-color:#f56358;stop-opacity:1;" offset="0.84375"/><stop style="stop-color:#f66459;stop-opacity:1;" offset="0.851563"/><stop style="stop-color:#f6645a;stop-opacity:1;" offset="0.859375"/><stop style="stop-color:#f6655b;stop-opacity:1;" offset="0.867188"/><stop style="stop-color:#f6665c;stop-opacity:1;" offset="0.875"/><stop style="stop-color:#f6675c;stop-opacity:1;" offset="0.882812"/><stop style="stop-color:#f7685d;stop-opacity:1;" offset="0.890625"/><stop style="stop-color:#f7695e;stop-opacity:1;" offset="0.898438"/><stop style="stop-color:#f76a5f;stop-opacity:1;" offset="0.90625"/><stop style="stop-color:#f76a60;stop-opacity:1;" offset="0.914062"/><stop style="stop-color:#f86b61;stop-opacity:1;" offset="0.921875"/><stop style="stop-color:#f86c62;stop-opacity:1;" offset="0.929688"/><stop style="stop-color:#f86d63;stop-opacity:1;" offset="0.9375"/><stop style="stop-color:#f86e64;stop-opacity:1;" offset="0.945312"/><stop style="stop-color:#f96f65;stop-opacity:1;" offset="0.953125"/><stop style="stop-color:#f96f65;stop-opacity:1;" offset="0.960938"/><stop style="stop-color:#f97066;stop-opacity:1;" offset="0.96875"/><stop style="stop-color:#f97066;stop-opacity:1;" offset="1"/></linearGradient><clipPath id="a04d470dc6"><path d="M 9 11 L 13 11 L 13 15 L 9 15 Z M 9 11 "/></clipPath><clipPath id="4d9492625b"><path d="M 9.824219 12.953125 C 9.878906 12.992188 9.835938 12.945312 9.847656 12.996094 C 9.863281 13.054688 9.839844 13.101562 9.835938 13.160156 C 9.832031 13.242188 9.871094 13.273438 9.894531 13.332031 C 9.820312 13.472656 9.695312 13.421875 9.601562 13.484375 C 9.566406 13.507812 9.519531 13.597656 9.59375 13.632812 C 9.644531 13.65625 9.746094 13.628906 9.800781 13.621094 C 9.808594 13.765625 9.730469 13.792969 9.738281 13.925781 L 9.8125 13.953125 C 9.828125 14.390625 9.84375 14.210938 9.96875 14.300781 C 10.023438 14.339844 9.957031 14.34375 10.074219 14.347656 C 10.109375 14.222656 10.101562 14.160156 10.179688 14.070312 C 10.359375 14.050781 10.289062 14.113281 10.410156 14.121094 C 10.460938 14.089844 10.460938 14.0625 10.5 14.015625 C 10.601562 14.003906 10.542969 14.050781 10.632812 13.988281 C 10.675781 13.957031 10.703125 13.945312 10.777344 13.9375 C 10.988281 13.914062 10.949219 13.96875 10.976562 13.753906 C 11.144531 13.707031 11.175781 13.980469 11.335938 13.859375 C 11.390625 13.816406 11.382812 13.714844 11.339844 13.667969 C 11.296875 13.617188 11.195312 13.605469 11.238281 13.519531 C 11.292969 13.460938 11.382812 13.488281 11.476562 13.5 C 11.472656 13.4375 11.480469 13.433594 11.441406 13.386719 L 11.367188 13.316406 C 11.425781 13.257812 11.460938 13.25 11.527344 13.199219 C 11.636719 13.117188 11.535156 13.101562 11.535156 13.027344 C 11.703125 12.9375 11.777344 13.132812 11.949219 13.105469 C 12.035156 13.035156 12.074219 12.914062 11.941406 12.855469 C 11.882812 12.832031 11.667969 12.785156 11.601562 12.769531 C 11.503906 12.609375 11.722656 12.585938 11.628906 12.449219 C 11.476562 12.371094 11.527344 12.605469 11.378906 12.570312 C 11.34375 12.472656 11.386719 12.445312 11.34375 12.347656 C 11.128906 12.285156 11.195312 12.5625 11.066406 12.433594 C 10.929688 12.296875 11.027344 12.445312 10.679688 12.382812 C 10.652344 12.433594 10.671875 12.417969 10.632812 12.453125 C 10.457031 12.371094 10.621094 11.964844 10.34375 11.988281 C 10.285156 12.066406 10.308594 12.199219 10.226562 12.21875 C 10.070312 12.261719 10.199219 12.0625 10.023438 12.082031 C 10.023438 12.285156 10.042969 12.160156 9.902344 12.3125 C 9.855469 12.363281 9.839844 12.375 9.78125 12.414062 C 9.554688 12.574219 9.386719 12.59375 9.347656 12.65625 C 9.3125 12.71875 9.328125 12.800781 9.363281 12.835938 C 9.46875 12.941406 9.554688 12.777344 9.707031 12.785156 C 9.699219 12.886719 9.652344 12.898438 9.660156 12.988281 C 9.726562 12.992188 9.785156 12.992188 9.824219 12.953125 Z M 9.824219 12.953125 "/></clipPath><linearGradient x1="3038.467529" gradientTransform="matrix(0.00535282,0,0,0.00535282,-6.31622,-6.800089)" y1="3997.316325" x2="3220.428449" gradientUnits="userSpaceOnUse" y2="3435.979139" id="6fd1d8c677"><stop style="stop-color:#76b101;stop-opacity:1;" offset="0"/><stop style="stop-color:#76b101;stop-opacity:1;" offset="0.25"/><stop style="stop-color:#76b101;stop-opacity:1;" offset="0.269668"/><stop style="stop-color:#76b101;stop-opacity:1;" offset="0.375"/><stop style="stop-color:#77b101;stop-opacity:1;" offset="0.378906"/><stop style="stop-color:#77b202;stop-opacity:1;" offset="0.382812"/><stop style="stop-color:#78b202;stop-opacity:1;" offset="0.386719"/><stop style="stop-color:#78b302;stop-opacity:1;" offset="0.390625"/><stop style="stop-color:#79b302;stop-opacity:1;" offset="0.394531"/><stop style="stop-color:#79b303;stop-opacity:1;" offset="0.398438"/><stop style="stop-color:#7ab403;stop-opacity:1;" offset="0.402344"/><stop style="stop-color:#7ab403;stop-opacity:1;" offset="0.40625"/><stop style="stop-color:#7bb504;stop-opacity:1;" offset="0.410156"/><stop style="stop-color:#7bb504;stop-opacity:1;" offset="0.414062"/><stop style="stop-color:#7cb504;stop-opacity:1;" offset="0.417969"/><stop style="stop-color:#7cb604;stop-opacity:1;" offset="0.421875"/><stop style="stop-color:#7db605;stop-opacity:1;" offset="0.425781"/><stop style="stop-color:#7db705;stop-opacity:1;" offset="0.429688"/><stop style="stop-color:#7eb705;stop-opacity:1;" offset="0.433594"/><stop style="stop-color:#7eb706;stop-opacity:1;" offset="0.4375"/><stop style="stop-color:#7fb806;stop-opacity:1;" offset="0.441406"/><stop style="stop-color:#7fb806;stop-opacity:1;" offset="0.445312"/><stop style="stop-color:#80b906;stop-opacity:1;" offset="0.449219"/><stop style="stop-color:#80b907;stop-opacity:1;" offset="0.453125"/><stop style="stop-color:#81b907;stop-opacity:1;" offset="0.457031"/><stop style="stop-color:#81ba07;stop-opacity:1;" offset="0.460938"/><stop style="stop-color:#82ba08;stop-opacity:1;" offset="0.464844"/><stop style="stop-color:#82bb08;stop-opacity:1;" offset="0.46875"/><stop style="stop-color:#83bb08;stop-opacity:1;" offset="0.472656"/><stop style="stop-color:#83bb08;stop-opacity:1;" offset="0.476562"/><stop style="stop-color:#84bc09;stop-opacity:1;" offset="0.480469"/><stop style="stop-color:#85bc09;stop-opacity:1;" offset="0.484375"/><stop style="stop-color:#85bd09;stop-opacity:1;" offset="0.488281"/><stop style="stop-color:#86bd09;stop-opacity:1;" offset="0.492188"/><stop style="stop-color:#86bd0a;stop-opacity:1;" offset="0.496094"/><stop style="stop-color:#87be0a;stop-opacity:1;" offset="0.5"/><stop style="stop-color:#87be0a;stop-opacity:1;" offset="0.503906"/><stop style="stop-color:#88bf0b;stop-opacity:1;" offset="0.507812"/><stop style="stop-color:#88bf0b;stop-opacity:1;" offset="0.511719"/><stop style="stop-color:#89bf0b;stop-opacity:1;" offset="0.515625"/><stop style="stop-color:#89c00b;stop-opacity:1;" offset="0.519531"/><stop style="stop-color:#8ac00c;stop-opacity:1;" offset="0.523438"/><stop style="stop-color:#8ac10c;stop-opacity:1;" offset="0.527344"/><stop style="stop-color:#8bc10c;stop-opacity:1;" offset="0.53125"/><stop style="stop-color:#8bc10d;stop-opacity:1;" offset="0.535156"/><stop style="stop-color:#8cc20d;stop-opacity:1;" offset="0.539062"/><stop style="stop-color:#8cc20d;stop-opacity:1;" offset="0.542969"/><stop style="stop-color:#8dc30d;stop-opacity:1;" offset="0.546875"/><stop style="stop-color:#8dc30e;stop-opacity:1;" offset="0.550781"/><stop style="stop-color:#8ec30e;stop-opacity:1;" offset="0.554688"/><stop style="stop-color:#8ec40e;stop-opacity:1;" offset="0.558594"/><stop style="stop-color:#8fc40f;stop-opacity:1;" offset="0.5625"/><stop style="stop-color:#8fc50f;stop-opacity:1;" offset="0.566406"/><stop style="stop-color:#90c50f;stop-opacity:1;" offset="0.570312"/><stop style="stop-color:#90c50f;stop-opacity:1;" offset="0.574219"/><stop style="stop-color:#91c610;stop-opacity:1;" offset="0.578125"/><stop style="stop-color:#91c610;stop-opacity:1;" offset="0.582031"/><stop style="stop-color:#92c710;stop-opacity:1;" offset="0.585938"/><stop style="stop-color:#92c711;stop-opacity:1;" offset="0.589844"/><stop style="stop-color:#93c711;stop-opacity:1;" offset="0.59375"/><stop style="stop-color:#93c811;stop-opacity:1;" offset="0.597656"/><stop style="stop-color:#94c811;stop-opacity:1;" offset="0.601562"/><stop style="stop-color:#94c912;stop-opacity:1;" offset="0.605469"/><stop style="stop-color:#95c912;stop-opacity:1;" offset="0.609375"/><stop style="stop-color:#95c912;stop-opacity:1;" offset="0.613281"/><stop style="stop-color:#96ca12;stop-opacity:1;" offset="0.617187"/><stop style="stop-color:#97ca13;stop-opacity:1;" offset="0.621094"/><stop style="stop-color:#97cb13;stop-opacity:1;" offset="0.625"/><stop style="stop-color:#98cb13;stop-opacity:1;" offset="0.628906"/><stop style="stop-color:#98cb14;stop-opacity:1;" offset="0.632812"/><stop style="stop-color:#99cc14;stop-opacity:1;" offset="0.636719"/><stop style="stop-color:#99cc14;stop-opacity:1;" offset="0.640625"/><stop style="stop-color:#9acd14;stop-opacity:1;" offset="0.644531"/><stop style="stop-color:#9acd15;stop-opacity:1;" offset="0.648438"/><stop style="stop-color:#9bcd15;stop-opacity:1;" offset="0.652344"/><stop style="stop-color:#9bce15;stop-opacity:1;" offset="0.65625"/><stop style="stop-color:#9cce16;stop-opacity:1;" offset="0.660156"/><stop style="stop-color:#9ccf16;stop-opacity:1;" offset="0.664063"/><stop style="stop-color:#9dcf16;stop-opacity:1;" offset="0.667969"/><stop style="stop-color:#9dcf16;stop-opacity:1;" offset="0.671875"/><stop style="stop-color:#9ed017;stop-opacity:1;" offset="0.675781"/><stop style="stop-color:#9ed017;stop-opacity:1;" offset="0.679688"/><stop style="stop-color:#9fd117;stop-opacity:1;" offset="0.683594"/><stop style="stop-color:#9fd118;stop-opacity:1;" offset="0.6875"/><stop style="stop-color:#a0d118;stop-opacity:1;" offset="0.691406"/><stop style="stop-color:#a0d218;stop-opacity:1;" offset="0.695312"/><stop style="stop-color:#a1d218;stop-opacity:1;" offset="0.699219"/><stop style="stop-color:#a1d319;stop-opacity:1;" offset="0.703125"/><stop style="stop-color:#a2d319;stop-opacity:1;" offset="0.707031"/><stop style="stop-color:#a2d319;stop-opacity:1;" offset="0.710938"/><stop style="stop-color:#a3d419;stop-opacity:1;" offset="0.714844"/><stop style="stop-color:#a3d41a;stop-opacity:1;" offset="0.71875"/><stop style="stop-color:#a4d51a;stop-opacity:1;" offset="0.722656"/><stop style="stop-color:#a4d51a;stop-opacity:1;" offset="0.726563"/><stop style="stop-color:#a5d51b;stop-opacity:1;" offset="0.730469"/><stop style="stop-color:#a5d61b;stop-opacity:1;" offset="0.734375"/><stop style="stop-color:#a6d61b;stop-opacity:1;" offset="0.738281"/><stop style="stop-color:#a6d71b;stop-opacity:1;" offset="0.742188"/><stop style="stop-color:#a7d71c;stop-opacity:1;" offset="0.746094"/><stop style="stop-color:#a7d71c;stop-opacity:1;" offset="0.75"/><stop style="stop-color:#a8d81c;stop-opacity:1;" offset="0.753906"/><stop style="stop-color:#a9d81d;stop-opacity:1;" offset="0.757812"/><stop style="stop-color:#a9d91d;stop-opacity:1;" offset="0.761719"/><stop style="stop-color:#aad91d;stop-opacity:1;" offset="0.765625"/><stop style="stop-color:#aad91d;stop-opacity:1;" offset="0.769531"/><stop style="stop-color:#abda1e;stop-opacity:1;" offset="0.773438"/><stop style="stop-color:#abda1e;stop-opacity:1;" offset="0.777344"/><stop style="stop-color:#acdb1e;stop-opacity:1;" offset="0.78125"/><stop style="stop-color:#acdb1f;stop-opacity:1;" offset="0.785156"/><stop style="stop-color:#addb1f;stop-opacity:1;" offset="0.789063"/><stop style="stop-color:#addc1f;stop-opacity:1;" offset="0.792969"/><stop style="stop-color:#aedc1f;stop-opacity:1;" offset="0.796875"/><stop style="stop-color:#aedd20;stop-opacity:1;" offset="0.800781"/><stop style="stop-color:#afdd20;stop-opacity:1;" offset="0.804688"/><stop style="stop-color:#afdd20;stop-opacity:1;" offset="0.808594"/><stop style="stop-color:#b0de21;stop-opacity:1;" offset="0.8125"/><stop style="stop-color:#b0de21;stop-opacity:1;" offset="0.816406"/><stop style="stop-color:#b1df21;stop-opacity:1;" offset="0.820312"/><stop style="stop-color:#b1df21;stop-opacity:1;" offset="0.824219"/><stop style="stop-color:#b2df22;stop-opacity:1;" offset="0.828125"/><stop style="stop-color:#b2e022;stop-opacity:1;" offset="0.832031"/><stop style="stop-color:#b3e022;stop-opacity:1;" offset="0.835938"/><stop style="stop-color:#b3e122;stop-opacity:1;" offset="0.839844"/><stop style="stop-color:#b4e123;stop-opacity:1;" offset="0.84375"/><stop style="stop-color:#b4e123;stop-opacity:1;" offset="0.847656"/><stop style="stop-color:#b5e223;stop-opacity:1;" offset="0.851563"/><stop style="stop-color:#b5e224;stop-opacity:1;" offset="0.855469"/><stop style="stop-color:#b6e324;stop-opacity:1;" offset="0.859375"/><stop style="stop-color:#b6e324;stop-opacity:1;" offset="0.863281"/><stop style="stop-color:#b7e324;stop-opacity:1;" offset="0.867188"/><stop style="stop-color:#b7e425;stop-opacity:1;" offset="0.871094"/><stop style="stop-color:#b8e425;stop-opacity:1;" offset="0.875"/><stop style="stop-color:#b8e525;stop-opacity:1;" offset="0.878906"/><stop style="stop-color:#b9e526;stop-opacity:1;" offset="0.882812"/><stop style="stop-color:#b9e526;stop-opacity:1;" offset="0.886719"/><stop style="stop-color:#bae626;stop-opacity:1;" offset="0.890625"/><stop style="stop-color:#bbe626;stop-opacity:1;" offset="0.894531"/><stop style="stop-color:#bbe727;stop-opacity:1;" offset="0.898438"/><stop style="stop-color:#bce727;stop-opacity:1;" offset="0.902344"/><stop style="stop-color:#bce727;stop-opacity:1;" offset="0.90625"/><stop style="stop-color:#bde828;stop-opacity:1;" offset="0.910156"/><stop style="stop-color:#bde828;stop-opacity:1;" offset="0.914063"/><stop style="stop-color:#bee928;stop-opacity:1;" offset="0.917969"/><stop style="stop-color:#bee928;stop-opacity:1;" offset="0.921875"/><stop style="stop-color:#bfe929;stop-opacity:1;" offset="0.925781"/><stop style="stop-color:#bfea29;stop-opacity:1;" offset="0.929688"/><stop style="stop-color:#c0ea29;stop-opacity:1;" offset="0.933594"/><stop style="stop-color:#c0eb2a;stop-opacity:1;" offset="0.9375"/><stop style="stop-color:#c1eb2a;stop-opacity:1;" offset="0.941406"/><stop style="stop-color:#c1eb2a;stop-opacity:1;" offset="0.945312"/><stop style="stop-color:#c2ec2a;stop-opacity:1;" offset="0.949219"/><stop style="stop-color:#c2ec2b;stop-opacity:1;" offset="0.953125"/><stop style="stop-color:#c3ed2b;stop-opacity:1;" offset="0.96875"/><stop style="stop-color:#c3ed2b;stop-opacity:1;" offset="1"/></linearGradient></defs><g id="38e13d933a"><g clip-rule="nonzero" clip-path="url(#969e439999)"><path style=" stroke:none;fill-rule:evenodd;fill:#ffffff;fill-opacity:1;" d="M 19.898438 12.320312 L 19.894531 8.144531 L 16.957031 8.136719 L 16.953125 11.417969 C 16.785156 11.214844 16.527344 10.695312 15.832031 9.886719 C 15.441406 9.4375 14.855469 8.949219 14.371094 8.609375 C 13.300781 7.855469 11.988281 7.292969 10.386719 7.113281 C 6.875 6.722656 4.09375 8.554688 2.710938 10.355469 C 1.03125 12.542969 0.1875 15.671875 1.429688 18.898438 C 2.375 21.347656 4.492188 23.40625 7.191406 24.128906 C 8.820312 24.5625 10.394531 24.53125 11.988281 24.054688 C 14.9375 23.175781 16.207031 21.25 17.835938 18.953125 L 29.355469 3.019531 L 26.667969 3.003906 Z M 19.914062 17.144531 L 24.632812 23.488281 L 28.160156 23.492188 L 21.582031 14.679688 Z M 8.710938 9.304688 C 7.03125 9.5 5.414062 10.292969 4.421875 11.523438 C 3.289062 12.921875 2.675781 14.433594 2.882812 16.386719 C 3.238281 19.722656 6.304688 22.523438 10.125 22.105469 C 13.429688 21.742188 16.34375 18.785156 15.902344 14.992188 C 15.667969 12.992188 14.65625 11.691406 13.625 10.785156 C 12.535156 9.828125 10.632812 9.082031 8.710938 9.304688 Z M 8.710938 9.304688 "/></g><g clip-rule="nonzero" clip-path="url(#21d134d174)"><g clip-rule="evenodd" clip-path="url(#2dade08bab)"><path style=" stroke:none;fill-rule:nonzero;fill:url(#b9adf5b853);" d="M 3.894531 10.285156 L 3.894531 21.148438 L 15.042969 21.148438 L 15.042969 10.285156 Z M 3.894531 10.285156 "/></g></g><path style=" stroke:none;fill-rule:evenodd;fill:#1c9de4;fill-opacity:1;" d="M 12.347656 12.03125 C 12.339844 12.078125 12.339844 12.046875 12.359375 12.085938 C 12.402344 12.179688 12.515625 12.246094 12.582031 12.296875 L 12.972656 12.613281 C 13.242188 12.867188 13.488281 13.167969 13.699219 13.472656 C 13.710938 13.492188 13.71875 13.503906 13.730469 13.523438 C 13.890625 13.769531 14.1875 14.292969 14.203125 14.554688 C 14.214844 14.707031 14.054688 14.824219 14.144531 14.953125 C 14.230469 15.082031 14.132812 15.058594 14.203125 15.246094 C 14.238281 15.339844 14.273438 15.410156 14.273438 15.527344 C 14.21875 15.558594 14.195312 15.546875 14.179688 15.609375 C 14.21875 15.617188 14.226562 15.625 14.261719 15.636719 C 14.410156 15.683594 14.328125 15.679688 14.421875 15.683594 C 14.503906 15.683594 14.546875 15.710938 14.605469 15.699219 C 14.636719 15.691406 14.664062 15.671875 14.6875 15.667969 C 14.777344 15.644531 14.703125 15.660156 14.761719 15.679688 C 14.808594 15.691406 14.816406 15.6875 14.867188 15.6875 C 14.917969 15.480469 14.859375 15.457031 14.691406 15.417969 C 14.691406 15.214844 14.671875 15.289062 14.65625 15.175781 C 14.65625 15.175781 14.65625 15.136719 14.65625 15.136719 C 14.65625 15.039062 14.699219 15.113281 14.753906 15.03125 C 14.839844 14.910156 14.714844 14.878906 14.722656 14.777344 C 14.726562 14.664062 14.894531 14.683594 14.671875 14.457031 C 14.542969 14.328125 14.53125 14.472656 14.503906 14.320312 C 14.449219 14.023438 14.472656 14.058594 14.300781 13.863281 C 13.84375 13.351562 14.222656 13.511719 13.757812 13.09375 C 13.726562 13.066406 13.699219 13.050781 13.667969 13.023438 C 13.636719 13 13.609375 12.976562 13.574219 12.957031 C 13.519531 12.929688 13.496094 12.941406 13.464844 12.90625 C 13.453125 12.894531 13.417969 12.820312 13.398438 12.792969 C 13.332031 12.699219 13.285156 12.710938 13.226562 12.644531 C 13.1875 12.601562 13.195312 12.578125 13.175781 12.539062 C 13.152344 12.5 13.148438 12.511719 13.109375 12.472656 L 12.917969 12.296875 C 12.816406 12.21875 12.511719 11.972656 12.402344 11.914062 C 12.335938 11.878906 12.378906 11.894531 12.332031 11.902344 C 12.308594 11.847656 12.324219 11.867188 12.210938 11.800781 L 11.933594 11.664062 C 11.492188 11.460938 11.273438 11.402344 10.800781 11.304688 L 10.023438 11.230469 C 9.789062 11.230469 9.738281 11.257812 9.621094 11.261719 C 9.621094 11.152344 9.617188 11.035156 9.632812 10.933594 C 9.648438 10.808594 9.667969 10.757812 9.636719 10.636719 C 9.574219 10.652344 9.570312 10.675781 9.554688 10.746094 L 9.460938 11.277344 C 9.28125 11.277344 9.445312 11.21875 9.285156 11.214844 C 9.277344 11.25 9.273438 11.25 9.269531 11.292969 C 9.15625 11.292969 9.089844 11.328125 8.949219 11.328125 C 8.929688 11.242188 8.898438 11.132812 8.835938 11.117188 C 8.816406 11.203125 8.851562 11.234375 8.851562 11.359375 C 8.757812 11.378906 8.667969 11.402344 8.574219 11.433594 C 7.929688 11.648438 7.875 11.746094 7.355469 12.011719 C 7.191406 12.09375 6.738281 12.394531 6.609375 12.515625 C 6.476562 12.640625 6.246094 12.824219 6.140625 12.960938 C 6.105469 13.003906 6.097656 13.011719 6.058594 13.054688 C 6.019531 13.09375 6.011719 13.109375 5.976562 13.152344 C 5.945312 13.1875 5.929688 13.210938 5.898438 13.246094 C 5.785156 13.386719 5.640625 13.453125 5.484375 13.75 C 5.449219 13.726562 5.324219 13.585938 5.214844 13.75 C 5.183594 13.796875 5.195312 13.820312 5.195312 13.894531 C 5.324219 13.980469 5.261719 13.917969 5.339844 13.957031 C 5.277344 14.070312 5.234375 14.175781 5.164062 14.179688 L 5.164062 14.132812 C 5.234375 14.09375 5.097656 13.957031 4.960938 13.996094 C 4.875 14.019531 4.609375 14.253906 4.765625 14.515625 C 4.808594 14.59375 4.90625 14.667969 5.019531 14.679688 C 5 14.761719 4.957031 14.777344 4.953125 14.886719 C 4.878906 14.886719 4.867188 14.882812 4.808594 14.902344 C 4.765625 14.917969 4.722656 14.933594 4.699219 14.96875 C 4.714844 15.027344 4.714844 15 4.746094 15.046875 C 4.808594 15.046875 4.824219 15.050781 4.878906 15.035156 C 4.949219 15.015625 4.925781 15.015625 5.019531 15.015625 C 5.003906 15.046875 4.980469 15.109375 4.972656 15.144531 C 4.765625 15.144531 4.667969 15.386719 4.84375 15.433594 C 4.832031 15.558594 4.808594 15.433594 4.808594 15.753906 C 4.8125 16.550781 4.925781 16.511719 4.9375 16.699219 C 4.953125 16.867188 5.023438 17.136719 5.007812 17.328125 C 4.984375 17.59375 5.121094 17.71875 5.183594 17.867188 C 5.277344 18.082031 5.324219 18.09375 5.386719 18.191406 C 5.527344 18.414062 5.53125 18.460938 5.726562 18.75 L 5.960938 19.046875 C 6.046875 19.140625 6.261719 19.394531 6.351562 19.472656 C 6.414062 19.523438 6.351562 19.492188 6.429688 19.507812 C 6.421875 19.539062 6.402344 19.519531 6.480469 19.582031 C 6.511719 19.609375 6.53125 19.625 6.5625 19.648438 C 6.613281 19.691406 6.660156 19.738281 6.71875 19.78125 C 6.945312 19.964844 7.378906 20.242188 7.632812 20.34375 C 7.660156 20.355469 7.707031 20.375 7.734375 20.386719 C 7.816406 20.425781 7.773438 20.394531 7.730469 20.453125 C 7.84375 20.480469 8.242188 20.675781 8.355469 20.675781 L 8.355469 20.644531 C 8.316406 20.636719 8.300781 20.628906 8.257812 20.613281 L 8.167969 20.578125 C 8.09375 20.546875 8.035156 20.53125 8.003906 20.484375 C 8.507812 20.601562 8.746094 20.90625 9.265625 20.851562 C 9.488281 20.828125 9.53125 20.785156 9.652344 20.96875 C 9.730469 21.085938 9.832031 21.144531 10.023438 21.144531 C 10.265625 21.144531 10.425781 21.074219 10.5 21.082031 C 11.070312 21.148438 10.984375 20.976562 11.039062 20.828125 C 11.078125 20.726562 11.144531 20.765625 11.144531 20.644531 C 11.492188 20.644531 11.761719 20.507812 12.03125 20.296875 C 12.066406 20.265625 12.101562 20.226562 12.136719 20.191406 C 12.175781 20.152344 12.195312 20.113281 12.238281 20.085938 C 12.25 20.140625 12.242188 20.121094 12.285156 20.148438 C 12.503906 20.035156 12.570312 19.929688 12.710938 19.820312 C 12.796875 19.753906 12.828125 19.695312 12.898438 19.621094 C 13.144531 19.375 13.511719 18.6875 13.703125 18.34375 C 13.808594 18.152344 13.699219 18.3125 13.851562 18.105469 L 14.074219 17.753906 C 14.15625 17.605469 14.074219 17.199219 14.140625 17.0625 C 14.183594 16.976562 14.21875 16.878906 14.226562 16.761719 C 14.230469 16.671875 14.183594 16.367188 14.136719 16.273438 C 14.105469 16.203125 14.066406 16.203125 14.128906 16.15625 C 14.144531 16.21875 14.164062 16.265625 14.226562 16.28125 C 14.339844 16.207031 14.257812 16.121094 14.25 16.097656 C 14.222656 16.039062 14.25 16.066406 14.210938 16.011719 L 14.152344 16.046875 C 14.148438 16.050781 14.144531 16.054688 14.144531 16.054688 L 14.128906 16.074219 C 14.128906 15.964844 14.113281 15.953125 14.101562 15.878906 C 14.082031 15.75 14.132812 15.773438 14.128906 15.675781 L 14.074219 15.261719 C 14.058594 15.121094 14.148438 15.128906 14.105469 14.992188 C 14.082031 14.921875 14.042969 14.925781 14.042969 14.925781 C 13.988281 14.894531 14.011719 14.949219 13.984375 14.871094 C 13.980469 14.863281 13.96875 14.800781 13.964844 14.78125 C 13.945312 14.714844 13.929688 14.652344 13.90625 14.597656 C 14.015625 14.523438 14.015625 14.496094 14.015625 14.421875 C 13.9375 14.378906 13.917969 14.371094 13.839844 14.421875 C 13.734375 14.199219 13.675781 14.007812 13.511719 13.757812 C 13.347656 13.507812 13.304688 13.421875 13.097656 13.175781 C 13.003906 13.0625 12.785156 12.816406 12.679688 12.726562 L 12.484375 12.554688 C 12.429688 12.511719 12.386719 12.484375 12.335938 12.445312 C 12.285156 12.410156 12.238281 12.375 12.183594 12.339844 C 12.074219 12.261719 12.089844 12.242188 12.027344 12.257812 C 12 12.191406 12.019531 12.210938 11.902344 12.140625 L 11.46875 11.902344 C 11.414062 11.878906 11.378906 11.859375 11.3125 11.832031 C 11.253906 11.808594 11.214844 11.792969 11.152344 11.769531 C 11.09375 11.742188 11.050781 11.730469 10.988281 11.710938 C 10.902344 11.679688 10.871094 11.6875 10.824219 11.648438 C 10.953125 11.648438 11.109375 11.722656 11.222656 11.691406 C 11.304688 11.671875 11.253906 11.671875 11.289062 11.597656 C 11.335938 11.621094 11.316406 11.605469 11.367188 11.621094 C 11.464844 11.648438 11.597656 11.722656 11.730469 11.730469 C 11.945312 11.746094 11.839844 11.800781 11.976562 11.84375 C 12.058594 11.867188 12.046875 11.835938 12.121094 11.859375 C 12.230469 11.890625 12.230469 11.984375 12.347656 12.03125 Z M 7.472656 20.40625 L 7.535156 20.472656 C 7.621094 20.441406 7.585938 20.46875 7.632812 20.421875 C 7.597656 20.367188 7.59375 20.375 7.519531 20.355469 Z M 4.90625 12.640625 C 4.949219 12.636719 4.949219 12.632812 4.988281 12.625 C 4.988281 12.585938 4.996094 12.527344 4.953125 12.527344 C 4.882812 12.527344 4.898438 12.597656 4.90625 12.640625 Z M 4.90625 13.445312 C 4.9375 13.558594 5.050781 13.625 5.050781 13.445312 C 5 13.414062 4.964844 13.386719 4.90625 13.445312 Z M 4.585938 13.730469 C 4.585938 13.847656 4.761719 13.847656 4.761719 13.683594 C 4.703125 13.652344 4.714844 13.652344 4.632812 13.652344 C 4.625 13.664062 4.585938 13.71875 4.585938 13.730469 Z M 3.976562 13.699219 L 4.023438 13.765625 L 4.121094 13.765625 C 4.175781 13.699219 4.167969 13.722656 4.167969 13.621094 C 4.039062 13.550781 4.003906 13.585938 3.976562 13.699219 Z M 4.539062 12.480469 C 4.539062 12.773438 4.882812 12.886719 4.710938 12.535156 C 4.628906 12.371094 4.539062 12.449219 4.539062 12.480469 Z M 5.5 13.058594 C 5.5 13.460938 5.804688 13.378906 5.804688 13.171875 C 5.804688 13.066406 5.828125 12.898438 5.640625 12.902344 C 5.582031 12.90625 5.5 12.984375 5.5 13.058594 Z M 3.894531 12.800781 C 3.894531 12.859375 4.101562 12.988281 4.148438 13.015625 C 4.222656 13.058594 4.457031 13.207031 4.457031 13.042969 C 4.457031 13.007812 4.386719 12.957031 4.308594 12.871094 L 4.273438 12.839844 C 4.171875 12.734375 4.175781 12.640625 3.992188 12.625 C 3.976562 12.65625 3.96875 12.683594 3.953125 12.714844 L 3.925781 12.753906 C 3.910156 12.777344 3.894531 12.75 3.894531 12.800781 Z M 8.917969 10.507812 C 8.917969 10.714844 8.917969 10.648438 8.992188 10.722656 C 9.054688 10.785156 9.09375 10.910156 9.113281 10.988281 C 9.132812 11.101562 9.207031 11.019531 9.207031 11.003906 C 9.207031 10.96875 9.164062 10.695312 9.125 10.621094 C 9.097656 10.574219 9.066406 10.554688 9.039062 10.480469 C 9.015625 10.421875 9.011719 10.347656 8.996094 10.285156 C 8.925781 10.289062 8.941406 10.292969 8.929688 10.359375 C 8.921875 10.402344 8.917969 10.445312 8.917969 10.507812 Z M 8.292969 11.148438 C 8.3125 11.058594 8.324219 11.140625 8.324219 10.972656 C 8.324219 10.867188 8.265625 10.894531 8.226562 10.828125 C 8.1875 10.765625 8.207031 10.683594 8.113281 10.683594 C 7.882812 10.683594 7.8125 10.816406 7.945312 10.933594 C 8.113281 11.082031 8.042969 11.144531 8.292969 11.148438 Z M 14.898438 14.96875 L 14.804688 14.96875 C 14.804688 15.082031 14.832031 15.050781 14.914062 15.03125 L 14.914062 14.984375 C 15.042969 14.992188 15.042969 15.046875 15.042969 14.871094 C 14.933594 14.84375 14.871094 14.847656 14.898438 14.96875 Z M 13.984375 14.789062 C 14.023438 14.847656 14.011719 14.839844 14.097656 14.839844 C 14.109375 14.796875 14.097656 14.824219 14.113281 14.789062 C 14.082031 14.75 14.074219 14.746094 14 14.742188 C 13.992188 14.773438 14 14.769531 13.984375 14.789062 Z M 13.585938 13.828125 L 13.617188 13.875 C 13.746094 13.875 13.71875 13.796875 13.710938 13.75 C 13.613281 13.75 13.625 13.75 13.585938 13.828125 Z M 12.992188 12 C 12.992188 12.140625 13.105469 12.082031 13.121094 12.078125 C 13.117188 12.039062 13.117188 12.023438 13.101562 12 C 13.078125 11.960938 12.992188 11.914062 12.992188 12 Z M 13.359375 11.984375 C 13.359375 12.042969 13.371094 12.007812 13.445312 12.058594 C 13.507812 12.097656 13.476562 12.105469 13.550781 12.113281 C 13.550781 12.082031 13.554688 12.082031 13.546875 12.054688 C 13.503906 11.941406 13.359375 11.925781 13.359375 11.984375 Z M 14.355469 12.851562 C 14.433594 12.851562 14.414062 12.726562 14.332031 12.695312 L 14.210938 12.640625 C 14.183594 12.679688 14.183594 12.664062 14.183594 12.699219 C 14.1875 12.78125 14.261719 12.851562 14.355469 12.851562 Z M 5.527344 14.410156 C 5.546875 14.394531 5.535156 14.40625 5.554688 14.382812 C 5.597656 14.328125 5.582031 14.328125 5.628906 14.289062 C 5.597656 14.480469 5.488281 14.734375 5.421875 15.195312 C 5.351562 15.667969 5.398438 15.960938 5.359375 16.253906 C 5.339844 16.414062 5.417969 17.121094 5.484375 17.242188 C 5.578125 17.421875 5.585938 17.128906 5.648438 17.640625 C 5.65625 17.726562 5.710938 18.050781 5.859375 17.960938 C 6.0625 18.359375 5.914062 18.359375 6.265625 18.757812 C 6.335938 18.839844 6.550781 19.050781 6.636719 19.101562 L 6.289062 18.527344 C 5.929688 17.890625 5.6875 17.1875 5.523438 16.457031 C 5.347656 15.667969 5.554688 14.847656 5.910156 14.15625 C 5.964844 14.050781 6.207031 13.664062 6.332031 13.640625 C 6.351562 13.589844 6.433594 13.539062 6.492188 13.503906 C 6.710938 13.367188 6.46875 13.246094 6.621094 13.105469 C 6.757812 12.984375 6.921875 12.882812 6.941406 12.863281 C 7.097656 12.6875 7.152344 12.710938 7.347656 12.453125 C 7.566406 12.5 7.457031 12.394531 7.613281 12.332031 C 7.765625 12.273438 7.78125 12.253906 7.894531 12.164062 C 8.054688 12.035156 7.988281 12.0625 8.242188 12.0625 C 8.328125 12.0625 8.371094 12.039062 8.433594 12.039062 C 8.550781 12.042969 8.492188 12.054688 8.59375 12.019531 C 8.71875 11.835938 8.664062 11.886719 8.949219 11.839844 C 9.066406 11.824219 9.058594 11.84375 9.160156 11.851562 C 9.265625 11.859375 9.292969 11.808594 9.402344 11.855469 C 9.445312 11.835938 10.105469 11.742188 10.316406 11.835938 C 10.347656 11.847656 10.417969 11.886719 10.433594 11.890625 C 10.476562 11.898438 10.484375 11.867188 10.554688 11.855469 C 10.75 11.820312 11.179688 11.992188 11.371094 12.082031 C 11.460938 12.121094 11.546875 12.132812 11.652344 12.15625 C 11.660156 12.21875 11.644531 12.234375 11.703125 12.277344 C 11.773438 12.324219 11.816406 12.300781 11.898438 12.304688 C 11.9375 12.332031 11.960938 12.34375 12.007812 12.371094 C 12.097656 12.425781 12.039062 12.410156 12.09375 12.460938 C 12.144531 12.507812 12.253906 12.550781 12.308594 12.601562 C 12.34375 12.589844 12.332031 12.570312 12.378906 12.5625 L 12.6875 12.914062 C 12.730469 12.953125 12.765625 12.957031 12.789062 13.019531 C 12.816406 13.089844 12.796875 13.152344 12.824219 13.207031 C 12.835938 13.230469 12.902344 13.289062 12.921875 13.320312 C 12.976562 13.386719 13.066406 13.480469 13.105469 13.558594 C 13.035156 13.515625 12.988281 13.449219 12.925781 13.394531 C 12.648438 13.136719 12.90625 13.246094 12.691406 12.957031 C 12.648438 12.898438 12.59375 12.800781 12.503906 12.824219 L 12.863281 13.394531 C 12.90625 13.4375 12.949219 13.460938 12.988281 13.507812 C 13.015625 13.539062 13.214844 13.871094 13.265625 13.773438 C 13.289062 13.730469 13.25 13.75 13.265625 13.714844 C 13.421875 13.796875 13.429688 13.976562 13.546875 14.109375 C 13.582031 14.148438 13.625 14.171875 13.644531 14.214844 C 13.675781 14.277344 13.65625 14.332031 13.691406 14.394531 C 13.726562 14.449219 13.765625 14.449219 13.792969 14.503906 C 13.851562 14.621094 13.707031 14.660156 13.703125 14.808594 L 13.746094 14.839844 C 13.792969 14.820312 13.785156 14.804688 13.789062 14.804688 L 13.800781 14.828125 C 13.804688 14.832031 13.804688 14.835938 13.804688 14.84375 C 13.808594 14.847656 13.808594 14.851562 13.808594 14.855469 C 13.816406 14.910156 13.796875 14.933594 13.820312 15.019531 C 13.839844 15.078125 13.851562 15.167969 13.863281 15.226562 C 13.972656 15.738281 13.964844 16.019531 13.941406 16.554688 C 13.925781 16.957031 13.734375 17.867188 13.496094 18.042969 C 13.449219 18.117188 13.3125 18.164062 13.195312 18.332031 L 13 18.714844 C 12.910156 18.929688 13.0625 18.902344 12.796875 19.089844 C 12.695312 19.160156 12.738281 19.179688 12.683594 19.261719 C 12.660156 19.296875 12.566406 19.375 12.535156 19.402344 C 12.453125 19.316406 12.414062 19.390625 12.347656 19.429688 C 12.285156 19.347656 12.21875 19.289062 12.132812 19.417969 C 12.066406 19.519531 12.003906 19.457031 11.894531 19.53125 C 11.761719 19.625 11.824219 19.648438 11.707031 19.714844 C 11.570312 19.785156 11.550781 19.707031 11.433594 19.691406 C 11.320312 19.753906 11.347656 19.824219 11.253906 19.851562 C 11.136719 19.886719 11.105469 19.917969 11.042969 19.949219 L 10.972656 19.875 C 10.882812 19.886719 10.824219 19.859375 10.757812 19.828125 C 10.492188 19.769531 10.488281 19.921875 10.371094 20.03125 C 10.21875 20.167969 10.113281 20.019531 9.894531 20.015625 C 9.652344 20.011719 9.710938 20.222656 9.5625 20.3125 C 9.460938 20.378906 9.117188 20.328125 8.972656 20.316406 L 9.054688 20.277344 C 8.972656 20.246094 8.972656 20.308594 8.855469 20.316406 L 8.457031 20.285156 C 8.363281 20.253906 8.449219 20.210938 8.117188 20.265625 C 7.792969 20.316406 7.53125 20.113281 7.316406 20.011719 C 7.429688 20.042969 7.585938 20.191406 7.707031 20.082031 C 7.65625 20.039062 7.613281 20.027344 7.546875 19.992188 C 7.453125 19.941406 7.429688 19.941406 7.394531 19.882812 C 7.277344 19.800781 7.269531 19.902344 7.164062 19.800781 C 7.140625 19.78125 7.097656 19.726562 7.058594 19.765625 C 7.023438 19.800781 7.070312 19.839844 7.089844 19.878906 C 6.996094 19.847656 6.816406 19.707031 6.738281 19.648438 L 6.421875 19.390625 C 6.375 19.328125 6.34375 19.351562 6.332031 19.265625 C 6.28125 18.964844 6.355469 19.011719 6.039062 18.726562 L 5.570312 18.152344 C 5.503906 18.039062 5.527344 17.777344 5.355469 17.535156 C 5.316406 17.480469 5.230469 17.347656 5.210938 17.277344 C 5.085938 16.847656 5.179688 16.203125 5.226562 15.753906 C 5.261719 15.421875 5.324219 15.015625 5.425781 14.699219 C 5.449219 14.625 5.523438 14.457031 5.527344 14.410156 Z M 5.527344 14.410156 "/><g clip-rule="nonzero" clip-path="url(#d9a6b5ed97)"><g clip-rule="evenodd" clip-path="url(#f590004a3e)"><path style=" stroke:none;fill-rule:nonzero;fill:url(#7a731891fb);" d="M 10.550781 14.03125 L 10.550781 18.042969 L 13.972656 18.042969 L 13.972656 14.03125 Z M 10.550781 14.03125 "/></g></g><g clip-rule="nonzero" clip-path="url(#0b090102f3)"><g clip-rule="evenodd" clip-path="url(#1643912bc7)"><path style=" stroke:none;fill-rule:nonzero;fill:url(#4b5760fde1);" d="M 6.972656 15.804688 L 6.972656 19.617188 L 9.1875 19.617188 L 9.1875 15.804688 Z M 6.972656 15.804688 "/></g></g><g clip-rule="nonzero" clip-path="url(#3173b7d8b3)"><g clip-rule="evenodd" clip-path="url(#43b4530e67)"><path style=" stroke:none;fill-rule:nonzero;fill:url(#91e10a8e2b);" d="M 4.226562 13.664062 L 7.867188 17.753906 L 11.921875 14.152344 L 8.277344 10.058594 Z M 4.226562 13.664062 "/></g></g><g clip-rule="nonzero" clip-path="url(#0ee517b004)"><g clip-rule="evenodd" clip-path="url(#92cd516752)"><path style=" stroke:none;fill-rule:nonzero;fill:url(#d8d67dd2b4);" d="M 9.542969 15.816406 L 9.542969 19.886719 L 12.726562 19.886719 L 12.726562 15.816406 Z M 9.542969 15.816406 "/></g></g><g clip-rule="nonzero" clip-path="url(#a04d470dc6)"><g clip-rule="evenodd" clip-path="url(#4d9492625b)"><path style=" stroke:none;fill-rule:nonzero;fill:url(#6fd1d8c677);" d="M 9.3125 11.964844 L 9.3125 14.390625 L 12.074219 14.390625 L 12.074219 11.964844 Z M 9.3125 11.964844 "/></g></g></g></svg>