<?xml version="1.0" encoding="UTF-8"?>
<!DOCTYPE svg PUBLIC "-//W3C//DTD SVG 1.1//EN" "http://www.w3.org/Graphics/SVG/1.1/DTD/svg11.dtd">
<!-- Creator: CorelDRAW -->
<svg xmlns="http://www.w3.org/2000/svg" xml:space="preserve" width="8in" height="8in" version="1.1" style="shape-rendering:geometricPrecision; text-rendering:geometricPrecision; image-rendering:optimizeQuality; fill-rule:evenodd; clip-rule:evenodd"
viewBox="0 0 8000 8000"
 xmlns:xlink="http://www.w3.org/1999/xlink"
 xmlns:xodm="http://www.corel.com/coreldraw/odm/2003">
 <defs>
  <style type="text/css">
   <![CDATA[
    .fil0 {fill:none}
    .fil3 {fill:#1C9DE4}
    .fil1 {fill:white}
    .fil8 {fill:url(#id0)}
    .fil2 {fill:url(#id1)}
    .fil4 {fill:url(#id2)}
    .fil7 {fill:url(#id3)}
    .fil5 {fill:url(#id4)}
    .fil6 {fill:url(#id5)}
   ]]>
  </style>
  <linearGradient id="id0" gradientUnits="userSpaceOnUse" x1="3106.63" y1="3787.04" x2="3213.06" y2="3458.71">
   <stop offset="0" style="stop-opacity:1; stop-color:#76B101"/>
   <stop offset="1" style="stop-opacity:1; stop-color:#C3ED2B"/>
  </linearGradient>
  <linearGradient id="id1" gradientUnits="userSpaceOnUse" x1="3013.82" y1="4211.26" x2="3380.52" y2="5038.45">
   <stop offset="0" style="stop-opacity:1; stop-color:#FDFEFE"/>
   <stop offset="1" style="stop-opacity:1; stop-color:#C5F2F8"/>
  </linearGradient>
  <linearGradient id="id2" gradientUnits="userSpaceOnUse" x1="3559.8" y1="4235.51" x2="3139.1" y2="4070.48">
   <stop offset="0" style="stop-opacity:1; stop-color:#FF951F"/>
   <stop offset="1" style="stop-opacity:1; stop-color:#FFCE8A"/>
  </linearGradient>
  <linearGradient id="id3" gradientUnits="userSpaceOnUse" x1="3360.87" y1="4613.23" x2="3024.78" y2="4220.52">
   <stop offset="0" style="stop-opacity:1; stop-color:#E93628"/>
   <stop offset="1" style="stop-opacity:1; stop-color:#F97066"/>
  </linearGradient>
  <linearGradient id="id4" gradientUnits="userSpaceOnUse" x1="2694.91" y1="4601.51" x2="2921.22" y2="4139.69">
   <stop offset="0" style="stop-opacity:1; stop-color:#FF951F"/>
   <stop offset="1" style="stop-opacity:1; stop-color:#FFC56E"/>
  </linearGradient>
  <radialGradient id="id5" gradientUnits="userSpaceOnUse" gradientTransform="matrix(1.25846 -1.11903 0.991105 1.11321 -4358 2472)" cx="2585.24" cy="3722.81" r="78.9" fx="2585.24" fy="3722.81">
   <stop offset="0" style="stop-opacity:1; stop-color:#8748EF"/>
   <stop offset="1" style="stop-opacity:1; stop-color:#652CCD"/>
  </radialGradient>
 </defs>
 <g id="Layer_x0020_1">
  <metadata id="CorelCorpID_0Corel-Layer"/>
  <rect class="fil0" width="8000" height="8000"/>
  <path class="fil1" d="M4897.68 3571.98l-1.12 -780.41 -548.58 -1.34 -0.81 612.96c-31.3,-37.42 -79.64,-134.83 -209.66,-285.67 -72.65,-84.3 -182.51,-175.52 -272.65,-238.79 -200.11,-140.46 -445.27,-245.97 -744.69,-279.33 -656.15,-73.13 -1175.61,269.43 -1433.96,605.87 -313.57,408.33 -471.49,992.84 -239.02,1595.5 176.49,457.51 571.65,842.11 1076.41,977.17 304.52,81.47 598.47,75.34 895.98,-13.53 551.07,-164.63 788.13,-524.19 1092.25,-952.96l2152.04 -2976.99 -502.18 -2.83 -1264 1740.35zm2.85 901.63l881.54 1184.69 658.9 0.86 -1228.74 -1646.41 -311.7 460.86zm-2093.02 -1464.93c-314.33,36.54 -616.13,184.56 -801.67,414.13 -211.29,261.47 -325.65,544 -286.98,909.23 65.98,623.23 638.88,1146.11 1352.49,1067.81 617.33,-67.75 1161.93,-620.2 1079.31,-1328.62 -43.54,-373.37 -232.47,-616.59 -425.02,-785.72 -204.06,-179.24 -559.5,-318.5 -918.13,-276.83z"/>
  <g id="_1673379590528">
   <path class="fil2" d="M3487.03 3518.17c-1.86,8.38 -2.1,2.69 1.59,10.29 8.42,17.33 29.45,29.38 42.13,38.9l72.45 59.4c50.92,47.1 96.53,103.43 135.97,160.71 2.49,3.61 3.48,5.63 5.78,9.2 29.99,46.44 85.19,143.81 88.53,193.07 1.91,28.09 -28.04,49.7 -11.28,74.24 16.28,23.81 -1.64,19.44 11.22,54.74 6.29,17.19 13.22,30.73 13.22,52.72 -10.67,5.64 -14.86,3.26 -17.99,14.98 7.76,1.8 9.24,3.23 15.74,5.24 27.38,8.48 12,7.92 29.96,8.52 14.89,0.5 23.02,5.41 33.97,3.15 6.37,-1.29 11.28,-4.92 15.4,-6.02 17.22,-4.55 3.23,-1.08 14.35,2.22 8.62,2.56 9.76,1.87 19.42,1.87 9.11,-39.06 -1.7,-43.67 -32.96,-50.96 0,-37.79 -3.38,-23.84 -6.25,-45.14 -0.02,-0.17 -0.45,-6.8 -0.45,-6.9 0.22,-18.39 8.21,-4.43 18.78,-19.87 15.75,-22.99 -7.31,-28.8 -6.39,-47.83 1,-20.64 32.5,-17.36 -9.34,-59.42 -24.05,-24.18 -26.05,2.5 -31.2,-25.59 -10.23,-55.81 -5.63,-49.17 -37.77,-85.23 -85.65,-96.05 -15.22,-66.11 -101.95,-143.77 -5.91,-5.28 -10.61,-8.56 -16.78,-13.19 -5.93,-4.45 -10.91,-9.21 -17.34,-12.62 -9.82,-5.2 -14.59,-2.93 -20.75,-9.21 -2.15,-2.2 -8.59,-15.97 -11.97,-21.01 -12.19,-18.19 -20.96,-15.97 -31.87,-28.06 -7.4,-8.23 -5.89,-12.41 -10.05,-19.93 -4.02,-7.26 -4.64,-5.06 -12.01,-11.96l-36.01 -32.91c-18.8,-14.69 -75.76,-60.62 -96.46,-71.56 -12.09,-6.4 -4.39,-4.1 -12.69,-2.09 -4.66,-10.61 -1.55,-7.05 -23.05,-18.9l-51.78 -26.11c-82.01,-37.67 -122.9,-48.53 -211.6,-67.09l-145.07 -13.75c-43.83,0.17 -53.23,5.52 -74.93,6.02 0,-20.2 -1.28,-42.37 1.62,-61.3 3.58,-23.34 6.64,-32.97 1.37,-55.57 -12.28,3.28 -12.6,7.37 -15.38,20.57l-17.57 99.3c-34.1,0 -2.8,-11.31 -32.97,-11.99 -1.59,6.83 -2.32,6.9 -2.99,14.98 -21.09,0 -33.67,6 -59.94,6 -3.6,-15.5 -9.13,-35.8 -20.97,-38.96 -3.76,16.16 3,21.48 3,44.95 -17.87,4.17 -34.26,8.3 -51.75,14.17 -120.38,40.35 -130.68,58.3 -227.98,107.64 -30.64,15.54 -114.9,72.12 -139.05,94.7 -25.01,23.38 -68,57.5 -88.1,82.69 -6.61,8.3 -7.72,9.84 -15.32,17.65 -6.95,7.13 -8.39,10.59 -14.97,18 -6.19,6.93 -9.07,10.97 -14.86,18.1 -20.87,25.76 -48.24,38.7 -77.27,93.54 -6.36,-4.25 -29.92,-30.18 -50.31,0.62 -5.82,8.8 -3.63,13.16 -3.63,26.35 24.11,16.14 12.22,4.9 26.98,11.98 -11.38,21.49 -19.31,40.81 -32.97,41.96l0 -8.98c13.02,-7.67 -12.56,-33.21 -37.61,-25.87 -16.2,4.75 -65.74,48.15 -36.83,97.3 8.54,14.52 26.78,28.72 47.48,30.44 -3.63,15.58 -11.54,18.69 -11.99,38.95 -14.49,0 -16.35,-0.92 -27.16,2.8 -8.28,2.85 -16.07,5.76 -20.78,12.18 2.93,10.96 3.16,6.29 8.98,14.98 11.86,0 14.75,0.88 24.81,-2.17 12.96,-3.92 8.63,-3.82 26.15,-3.82 -2.72,5.66 -7.48,17.48 -8.99,23.98 -38.02,0 -56.22,45.33 -23.98,53.94 -1.95,23.53 -6.03,0.11 -5.98,59.93 0.08,148.75 21.62,142.01 24.11,176.65 2.27,31.51 15.91,81.8 12.64,117.85 -4.44,49.06 20.99,72.92 33,100.21 17.74,40.29 26.44,42.31 38.03,60.87 26.03,41.65 27,50.26 63.58,104.22l43.63 55.26c16.26,17.48 55.91,65.54 73.06,79.57 11.61,9.49 -0.28,3.91 14.58,6.57 -1.28,5.8 -5.15,2.2 9.48,14.41 5.81,4.84 9.16,7.45 14.95,12.13 9.96,8.04 18.68,16.47 29.14,24.81 42.62,34 123.63,85.75 170.76,104.92 5.28,2.14 14.43,5.65 19.44,8.12 15.41,7.58 6.93,1.55 -1.04,12.42 21.68,5.05 95.88,41.48 116.87,41.94l0 -5.98c-7.34,-1.71 -10.48,-3.35 -17.93,-6.05l-17.23 -6.75c-13.44,-5.51 -24.26,-8.25 -30.76,-17.17 94.44,22.01 138.97,78.82 236.3,68.51 41.44,-4.4 49.3,-12.23 71.76,21.98 14.49,22.09 33.71,32.39 69.41,32.48 45.44,0.14 75.09,-13 89.04,-11.41 106.93,12.16 90.85,-20.04 101.06,-47.41 7.18,-19.24 19.25,-11.42 19.76,-34.19 64.39,0 115.33,-25.9 165.32,-65.41 6.71,-5.31 13.45,-12.76 19.78,-19.18 7.08,-7.19 10.69,-14.95 18.67,-20.29 2.79,10.47 1.13,6.73 8.99,11.98 40.62,-21.48 53.48,-40.98 79.64,-61.19 16.14,-12.45 21.7,-23.62 34.96,-36.95 46.02,-46.25 114.68,-174.98 150.37,-239.18 19.83,-35.69 -0.85,-5.67 27.88,-44.04l41.7 -66.18c14.75,-27.17 -0.6,-103.62 11.92,-128.91 7.92,-16 15.09,-34.67 16.06,-56.05 0.79,-16.93 -8.08,-73.92 -16.25,-91.44 -6.12,-13.11 -13.8,-13.31 -1.68,-22.2 2.81,12.09 6.2,20.82 17.98,23.97 20.94,-14.02 6.22,-30.13 4.39,-34.26 -5.09,-11.47 -0.11,-5.81 -7.37,-16.68l-11.05 6.94c-0.41,0.42 -1.02,1.24 -1.37,1.63l-2.58 3.42c0,-20.74 -3.18,-22.55 -5.41,-36.78 -3.75,-23.87 5.88,-19.19 5.37,-37.86l-10.07 -77.45c-3.38,-25.72 13.62,-24.81 5.34,-49.76 -4.43,-13.38 -11.17,-12.94 -11.17,-12.96 -10.59,-5.56 -5.98,4.31 -11.04,-9.94 -0.63,-1.78 -2.94,-13.03 -4.02,-16.96 -3.42,-12.39 -6.26,-24.17 -10.96,-33.98 20.56,-13.76 20.97,-18.85 20.97,-32.96 -14.98,-7.94 -18.46,-9.71 -32.96,0 -19.95,-41.59 -30.85,-77.14 -61.72,-124.07 -30.67,-46.65 -38.24,-62.81 -77.04,-108.74 -17.72,-20.96 -58.14,-67.44 -77.88,-83.93l-36.75 -32.19c-10.19,-7.65 -18.02,-12.84 -27.83,-20.09 -9.46,-7 -18.25,-13.26 -28.02,-19.93 -21,-14.33 -17.79,-18.17 -29.37,-15.59 -5.1,-12.52 -1.98,-8.26 -23.39,-21.56l-81.06 -44.79c-10.22,-4.11 -17.01,-8.06 -29.09,-12.86 -11.44,-4.52 -18.51,-7.34 -29.98,-11.97 -11.33,-4.57 -19.4,-7.29 -30.86,-11.09 -15.61,-5.2 -21.9,-4.23 -30.37,-11.58 24.13,0 52.99,14 74.48,8.57 15.44,-3.89 5.86,-3.88 12.42,-17.56 8.19,3.93 5.02,1.34 14.14,3.84 18.75,5.13 43.02,19.38 68.07,20.94 40.01,2.51 20.07,13.08 46.21,20.84 14.73,4.38 12.93,-1.4 26.85,2.67 20.26,5.93 20.7,23.74 42.49,32.61zm-1579.2 143.4l0 0.43c0,10.96 38.56,34.93 46.98,39.93 13.74,8.15 57.91,36.09 57.91,5.02 0,-6.83 -13.3,-15.92 -28.02,-31.9l-6.13 -5.85c-19.35,-19.46 -18.5,-37.31 -52.74,-40.16 -2.93,5.54 -4.27,11.02 -7.28,16.7l-4.94 7.03c-3.43,4.65 -5.69,-0.13 -5.76,8.8zm1953.79 9.42c15.13,0 11.51,-23.07 -4.19,-28.77l-22.77 -10.19c-4.61,6.88 -5,3.9 -4.84,11.09 0.35,14.79 14.15,27.87 31.8,27.87zm-185.79 -161.82c0,10.72 2.24,4.69 16.28,13.7 11.32,7.25 5.56,9.1 19.69,10.28 -0.13,-5.83 0.69,-5.3 -1.28,-10.71 -7.75,-21.23 -34.68,-24.18 -34.68,-13.27zm-68.93 3c0,26.03 21.67,15.53 23.98,14.98 -0.17,-7.49 -0.15,-10.76 -2.99,-15 -4.76,-7.04 -20.99,-16.07 -20.99,0.01zm110.89 341.61l5.98 8.99c24.54,0 18.76,-14.76 17.99,-23.97 -18.51,0 -16.04,-0.04 -23.97,14.98zm74.92 179.8c7.17,10.7 4.57,8.98 20.96,8.98 2.11,-7.93 -0.23,-2.46 3,-8.98 -5.81,-7.93 -7.5,-8.7 -20.98,-8.99 -1.43,5.37 -0.44,5.32 -2.99,8.99zm170.81 32.96l-17.99 0c0.47,21.38 5.48,15.59 20.98,11.99l0 -8.99c23.52,1.95 23.97,11.96 23.97,-20.98 -20.43,-4.76 -32.22,-4.57 -26.96,17.98zm-1234.6 -713.19c4.01,-17.25 5.98,-2.06 5.98,-32.97 0,-19.81 -10.55,-14.43 -17.93,-27 -7.07,-12.02 -4.13,-26.93 -21.02,-26.93 -43.51,0 -56.28,24.67 -31.63,46.62 31,27.63 18.2,39.26 64.59,40.29zm116.86 -119.86c0,38.64 0.14,26.15 13.98,39.96 11.63,11.65 19.3,34.84 22.4,49.79 4.35,21.05 17.56,6.1 17.56,3.14 0,-7.19 -7.65,-57.59 -15.12,-71.78 -4.69,-8.9 -10.58,-12.64 -15.76,-26.2 -4.36,-11.39 -5.31,-24.99 -8.07,-36.87 -13.15,1.09 -10.65,1.52 -12.8,14.17 -1.39,8.13 -2.19,16.33 -2.19,27.79zm-638.27 476.45c0,75.08 56.93,59.61 56.93,20.98 0,-19.44 4.59,-51.01 -30.34,-50.02 -11.35,0.31 -26.59,15.08 -26.59,29.04zm-179.81 -107.87c0,54.94 64.68,75.72 32.09,9.87 -15.23,-30.76 -32.09,-15.55 -32.09,-9.87zm-104.88 227.74l9 11.99 17.99 0c10.5,-12.13 8.98,-7.56 8.98,-26.97 -23.96,-12.67 -31.02,-6.22 -35.97,14.98zm113.88 6.01c0,21.87 32.96,21.59 32.96,-9 -11.06,-5.85 -9.13,-5.98 -23.97,-5.98 -1.54,2.3 -8.99,12.67 -8.99,14.98zm59.92 -53.95c5.83,21.79 26.98,34.15 26.98,0 -9.8,-5.18 -16.45,-10.3 -26.98,0zm0 -149.83c8.09,-0.67 8.17,-1.41 14.98,-2.99 0,-7.52 1.46,-17.98 -5.99,-17.98 -13.62,0 -10.87,12.87 -9,20.98zm479.46 1450.36l11.32 12.65c16.31,-5.54 9.96,-0.49 18.65,-9.65 -6.86,-10.24 -7.25,-8.79 -20.98,-11.99l-8.99 8.99z"/>
   <path class="fil3" d="M3487.03 3518.17c-1.86,8.38 -2.1,2.69 1.59,10.29 8.42,17.33 29.45,29.38 42.13,38.9l72.45 59.4c50.92,47.1 96.53,103.43 135.97,160.71 2.49,3.61 3.48,5.63 5.78,9.2 29.99,46.44 85.19,143.81 88.53,193.07 1.91,28.09 -28.04,49.7 -11.28,74.24 16.28,23.81 -1.64,19.44 11.22,54.74 6.29,17.19 13.22,30.73 13.22,52.72 -10.67,5.64 -14.86,3.26 -17.99,14.98 7.76,1.8 9.24,3.23 15.74,5.24 27.38,8.48 12,7.92 29.96,8.52 14.89,0.5 23.02,5.41 33.97,3.15 6.37,-1.29 11.28,-4.92 15.4,-6.02 17.22,-4.55 3.23,-1.08 14.35,2.22 8.62,2.56 9.76,1.87 19.42,1.87 9.11,-39.06 -1.7,-43.67 -32.96,-50.96 0,-37.79 -3.38,-23.84 -6.25,-45.14 -0.02,-0.17 -0.45,-6.8 -0.45,-6.9 0.22,-18.39 8.21,-4.43 18.78,-19.87 15.75,-22.99 -7.31,-28.8 -6.39,-47.83 1,-20.64 32.5,-17.36 -9.34,-59.42 -24.05,-24.18 -26.05,2.5 -31.2,-25.59 -10.23,-55.81 -5.63,-49.17 -37.77,-85.23 -85.65,-96.05 -15.22,-66.11 -101.95,-143.77 -5.91,-5.28 -10.61,-8.56 -16.78,-13.19 -5.93,-4.45 -10.91,-9.21 -17.34,-12.62 -9.82,-5.2 -14.59,-2.93 -20.75,-9.21 -2.15,-2.2 -8.59,-15.97 -11.97,-21.01 -12.19,-18.19 -20.96,-15.97 -31.87,-28.06 -7.4,-8.23 -5.89,-12.41 -10.05,-19.93 -4.02,-7.26 -4.64,-5.06 -12.01,-11.96l-36.01 -32.91c-18.8,-14.69 -75.76,-60.62 -96.46,-71.56 -12.09,-6.4 -4.39,-4.1 -12.69,-2.09 -4.66,-10.61 -1.55,-7.05 -23.05,-18.9l-51.78 -26.11c-82.01,-37.67 -122.9,-48.53 -211.6,-67.09l-145.07 -13.75c-43.83,0.17 -53.23,5.52 -74.93,6.02 0,-20.2 -1.28,-42.37 1.62,-61.3 3.58,-23.34 6.64,-32.97 1.37,-55.57 -12.28,3.28 -12.6,7.37 -15.38,20.57l-17.57 99.3c-34.1,0 -2.8,-11.31 -32.97,-11.99 -1.59,6.83 -2.32,6.9 -2.99,14.98 -21.09,0 -33.67,6 -59.94,6 -3.6,-15.5 -9.13,-35.8 -20.97,-38.96 -3.76,16.16 3,21.48 3,44.95 -17.87,4.17 -34.26,8.3 -51.75,14.17 -120.38,40.35 -130.68,58.3 -227.98,107.64 -30.64,15.54 -114.9,72.12 -139.05,94.7 -25.01,23.38 -68,57.5 -88.1,82.69 -6.61,8.3 -7.72,9.84 -15.32,17.65 -6.95,7.13 -8.39,10.59 -14.97,18 -6.19,6.93 -9.07,10.97 -14.86,18.1 -20.87,25.76 -48.24,38.7 -77.27,93.54 -6.36,-4.25 -29.92,-30.18 -50.31,0.62 -5.82,8.8 -3.63,13.16 -3.63,26.35 24.11,16.14 12.22,4.9 26.98,11.98 -11.38,21.49 -19.31,40.81 -32.97,41.96l0 -8.98c13.02,-7.67 -12.56,-33.21 -37.61,-25.87 -16.2,4.75 -65.74,48.15 -36.83,97.3 8.54,14.52 26.78,28.72 47.48,30.44 -3.63,15.58 -11.54,18.69 -11.99,38.95 -14.49,0 -16.35,-0.92 -27.16,2.8 -8.28,2.85 -16.07,5.76 -20.78,12.18 2.93,10.96 3.16,6.29 8.98,14.98 11.86,0 14.75,0.88 24.81,-2.17 12.96,-3.92 8.63,-3.82 26.15,-3.82 -2.72,5.66 -7.48,17.48 -8.99,23.98 -38.02,0 -56.22,45.33 -23.98,53.94 -1.95,23.53 -6.03,0.11 -5.98,59.93 0.08,148.75 21.62,142.01 24.11,176.65 2.27,31.51 15.91,81.8 12.64,117.85 -4.44,49.06 20.99,72.92 33,100.21 17.74,40.29 26.44,42.31 38.03,60.87 26.03,41.65 27,50.26 63.58,104.22l43.63 55.26c16.26,17.48 55.91,65.54 73.06,79.57 11.61,9.49 -0.28,3.91 14.58,6.57 -1.28,5.8 -5.15,2.2 9.48,14.41 5.81,4.84 9.16,7.45 14.95,12.13 9.96,8.04 18.68,16.47 29.14,24.81 42.62,34 123.63,85.75 170.76,104.92 5.28,2.14 14.43,5.65 19.44,8.12 15.41,7.58 6.93,1.55 -1.04,12.42 21.68,5.05 95.88,41.48 116.87,41.94l0 -5.98c-7.34,-1.71 -10.48,-3.35 -17.93,-6.05l-17.23 -6.75c-13.44,-5.51 -24.26,-8.25 -30.76,-17.17 94.44,22.01 138.97,78.82 236.3,68.51 41.44,-4.4 49.3,-12.23 71.76,21.98 14.49,22.09 33.71,32.39 69.41,32.48 45.44,0.14 75.09,-13 89.04,-11.41 106.93,12.16 90.85,-20.04 101.06,-47.41 7.18,-19.24 19.25,-11.42 19.76,-34.19 64.39,0 115.33,-25.9 165.32,-65.41 6.71,-5.31 13.45,-12.76 19.78,-19.18 7.08,-7.19 10.69,-14.95 18.67,-20.29 2.79,10.47 1.13,6.73 8.99,11.98 40.62,-21.48 53.48,-40.98 79.64,-61.19 16.14,-12.45 21.7,-23.62 34.96,-36.95 46.02,-46.25 114.68,-174.98 150.37,-239.18 19.83,-35.69 -0.85,-5.67 27.88,-44.04l41.7 -66.18c14.75,-27.17 -0.6,-103.62 11.92,-128.91 7.92,-16 15.09,-34.67 16.06,-56.05 0.79,-16.93 -8.08,-73.92 -16.25,-91.44 -6.12,-13.11 -13.8,-13.31 -1.68,-22.2 2.81,12.09 6.2,20.82 17.98,23.97 20.94,-14.02 6.22,-30.13 4.39,-34.26 -5.09,-11.47 -0.11,-5.81 -7.37,-16.68l-11.05 6.94c-0.41,0.42 -1.02,1.24 -1.37,1.63l-2.58 3.42c0,-20.74 -3.18,-22.55 -5.41,-36.78 -3.75,-23.87 5.88,-19.19 5.37,-37.86l-10.07 -77.45c-3.38,-25.72 13.62,-24.81 5.34,-49.76 -4.43,-13.38 -11.17,-12.94 -11.17,-12.96 -10.59,-5.56 -5.98,4.31 -11.04,-9.94 -0.63,-1.78 -2.94,-13.03 -4.02,-16.96 -3.42,-12.39 -6.26,-24.17 -10.96,-33.98 20.56,-13.76 20.97,-18.85 20.97,-32.96 -14.98,-7.94 -18.46,-9.71 -32.96,0 -19.95,-41.59 -30.85,-77.14 -61.72,-124.07 -30.67,-46.65 -38.24,-62.81 -77.04,-108.74 -17.72,-20.96 -58.14,-67.44 -77.88,-83.93l-36.75 -32.19c-10.19,-7.65 -18.02,-12.84 -27.83,-20.09 -9.46,-7 -18.25,-13.26 -28.02,-19.93 -21,-14.33 -17.79,-18.17 -29.37,-15.59 -5.1,-12.52 -1.98,-8.26 -23.39,-21.56l-81.06 -44.79c-10.22,-4.11 -17.01,-8.06 -29.09,-12.86 -11.44,-4.52 -18.51,-7.34 -29.98,-11.97 -11.33,-4.57 -19.4,-7.29 -30.86,-11.09 -15.61,-5.2 -21.9,-4.23 -30.37,-11.58 24.13,0 52.99,14 74.48,8.57 15.44,-3.89 5.86,-3.88 12.42,-17.56 8.19,3.93 5.02,1.34 14.14,3.84 18.75,5.13 43.02,19.38 68.07,20.94 40.01,2.51 20.07,13.08 46.21,20.84 14.73,4.38 12.93,-1.4 26.85,2.67 20.26,5.93 20.7,23.74 42.49,32.61zm-910.95 1564.22l11.32 12.65c16.31,-5.54 9.96,-0.49 18.65,-9.65 -6.86,-10.24 -7.25,-8.79 -20.98,-11.99l-8.99 8.99zm-479.46 -1450.36c8.09,-0.67 8.17,-1.41 14.98,-2.99 0,-7.52 1.46,-17.98 -5.99,-17.98 -13.62,0 -10.87,12.87 -9,20.98zm0 149.83c5.83,21.79 26.98,34.15 26.98,0 -9.8,-5.18 -16.45,-10.3 -26.98,0zm-59.92 53.95c0,21.87 32.96,21.59 32.96,-9 -11.06,-5.85 -9.13,-5.98 -23.97,-5.98 -1.54,2.3 -8.99,12.67 -8.99,14.98zm-113.88 -6.01l9 11.99 17.99 0c10.5,-12.13 8.98,-7.56 8.98,-26.97 -23.96,-12.67 -31.02,-6.22 -35.97,14.98zm104.88 -227.74c0,54.94 64.68,75.72 32.09,9.87 -15.23,-30.76 -32.09,-15.55 -32.09,-9.87zm179.81 107.87c0,75.08 56.93,59.61 56.93,20.98 0,-19.44 4.59,-51.01 -30.34,-50.02 -11.35,0.31 -26.59,15.08 -26.59,29.04zm-299.67 -47.94c0,10.96 38.56,34.93 46.98,39.93 13.74,8.15 57.91,36.09 57.91,5.02 0,-6.83 -13.3,-15.92 -28.02,-31.9l-6.13 -5.85c-19.35,-19.46 -18.5,-37.31 -52.74,-40.16 -2.93,5.54 -4.27,11.02 -7.28,16.7l-4.94 7.03c-3.48,4.73 -5.76,-0.28 -5.76,9.23zm937.94 -428.51c0,38.64 0.14,26.15 13.98,39.96 11.63,11.65 19.3,34.84 22.4,49.79 4.35,21.05 17.56,6.1 17.56,3.14 0,-7.19 -7.65,-57.59 -15.12,-71.78 -4.69,-8.9 -10.58,-12.64 -15.76,-26.2 -4.36,-11.39 -5.31,-24.99 -8.07,-36.87 -13.15,1.09 -10.65,1.52 -12.8,14.17 -1.39,8.13 -2.19,16.33 -2.19,27.79zm-116.86 119.86c4.01,-17.25 5.98,-2.06 5.98,-32.97 0,-19.81 -10.55,-14.43 -17.93,-27 -7.07,-12.02 -4.13,-26.93 -21.02,-26.93 -43.51,0 -56.28,24.67 -31.63,46.62 31,27.63 18.2,39.26 64.59,40.29zm1234.6 713.19l-17.99 0c0.47,21.38 5.48,15.59 20.98,11.99l0 -8.99c23.52,1.95 23.97,11.96 23.97,-20.98 -20.43,-4.76 -32.22,-4.57 -26.96,17.98zm-170.81 -32.96c7.17,10.7 4.57,8.98 20.96,8.98 2.11,-7.93 -0.23,-2.46 3,-8.98 -5.81,-7.93 -7.5,-8.7 -20.98,-8.99 -1.43,5.37 -0.44,5.32 -2.99,8.99zm-74.92 -179.8l5.98 8.99c24.54,0 18.76,-14.76 17.99,-23.97 -18.51,0 -16.04,-0.04 -23.97,14.98zm-110.89 -341.61c0,26.03 21.67,15.53 23.98,14.98 -0.17,-7.49 -0.15,-10.76 -2.99,-15 -4.76,-7.04 -20.99,-16.07 -20.99,0.01zm68.93 -3c0,10.72 2.24,4.69 16.28,13.7 11.32,7.25 5.56,9.1 19.69,10.28 -0.13,-5.83 0.69,-5.3 -1.28,-10.71 -7.75,-21.23 -34.68,-24.18 -34.68,-13.27zm185.79 161.82c15.13,0 11.51,-23.07 -4.19,-28.77l-22.77 -10.19c-4.61,6.88 -5,3.9 -4.84,11.09 0.35,14.79 14.15,27.87 31.8,27.87zm-1648.93 291.66c3.48,-3.09 1.67,-1.11 5.08,-5.42 8.18,-10.33 4.75,-10.33 13.79,-17.5 -5.7,35.61 -26.5,83.22 -38.98,169.64 -12.74,88.18 -4.4,143.04 -11.04,197.31 -3.72,30.37 10.7,161.93 22.97,185.12 17.45,32.94 18.92,-21.27 30.52,74.39 1.9,15.68 11.78,76.08 39.77,59.44 37.48,74.94 9.94,74.26 75.52,148.99 13.3,15.17 53.31,54.88 69.28,64.12l-64.92 -106.95c-67.13,-118.94 -112.13,-250.58 -142.81,-387.24 -33.04,-147.06 5.85,-300.62 72.24,-429.27 10.38,-20.12 55.63,-91.94 78.69,-96.9 3.82,-8.85 19.14,-18.34 29.89,-25.09 41.21,-25.89 -4.27,-47.95 24.52,-74.41 25.03,-23.01 56.2,-42.05 59.3,-45.58 29.07,-32.98 39.66,-28.55 76.31,-76.33 40.65,8.94 20.28,-10.93 49.58,-22.51 28.54,-11.26 31.17,-14.7 52.29,-31.59 30.1,-24.06 17.52,-19.2 65.36,-19.02 15.87,0.05 23.96,-4.36 35.43,-4.12 22.09,0.5 10.92,2.78 30.05,-4.23 23.18,-34.09 13.08,-24.5 66.15,-32.89 22.05,-3.48 20.91,0.5 39.56,1.84 19.51,1.39 24.77,-8.22 45.39,0.45 8.15,-3.11 131.43,-20.52 170.96,-3.54 5.73,2.46 18.43,9.74 21.56,10.35 8.19,1.62 9.8,-4.01 22.39,-6.27 36.67,-6.59 117.3,25.3 152.89,41.77 16.87,7.79 33.06,9.96 52.37,14.17 1.32,12.04 -1.76,14.44 9.69,22.46 13.11,9.18 20.98,4.78 36.65,5.01 7.02,5.52 11.5,7.84 20.19,12.93 16.51,9.65 5.4,6.8 16.3,16.79 9.27,8.5 29.61,16.75 39.91,25.94 6.34,-2.15 4.64,-5.49 13.21,-7.23l57.64 65.33c7.66,7.65 14.51,8.35 18.89,20.06 5.01,13.39 1.1,24.52 6.59,35.12 2.09,4.03 14.2,15.48 18.47,20.72 10.1,12.39 26.93,30.3 33.89,44.63 -13.01,-7.49 -21.93,-19.91 -33.22,-30.35 -52.34,-48.39 -4.13,-28.1 -43.78,-82.04 -8.09,-10.99 -18.33,-28.87 -35.66,-24.35l67.54 106.33c8.21,8.22 15.95,12.43 23.47,21.49 4.83,5.84 42.41,67.74 51.69,49.51 4.23,-8.3 -3.06,-4.61 -0.4,-11.17 29.76,15.38 31.26,48.69 52.7,73.44 6.69,7.74 14.68,11.79 18.8,20.15 5.61,11.33 1.54,22.01 8.54,33.4 6.32,10.29 13.78,10.06 18.92,20.3 11.19,22.26 -16.3,29.38 -16.91,56.99l7.85 5.89c9.27,-3.51 7.55,-6.42 8.56,-6.39l2.15 4.38c0.22,0.72 0.6,1.57 0.79,2.39 0.21,0.88 0.38,1.64 0.54,2.59 1.56,9.87 -2.14,14.33 2.27,30.47 3.09,11.32 5.32,27.83 7.67,38.6 20.89,95.89 18.8,148.45 14.88,248.41 -2.96,75.21 -39.13,245.04 -83.22,277.86 -8.59,14.19 -34.22,22.8 -56.13,54.24l-36.43 71.59c-16.93,40.07 11.07,34.57 -37.96,69.63 -18.85,13.47 -11.04,16.68 -21.46,32.53 -4.14,6.28 -21.47,21.15 -27.36,25.89 -15.56,-15.96 -22.85,-2.29 -35,4.97 -12.23,-15.11 -24.33,-25.72 -40.46,-1.68 -12.38,18.46 -24.34,6.9 -44.58,21.1 -24.68,17.31 -12.77,21.96 -35.22,33.82 -25.37,13.39 -28.78,-1.14 -50.54,-3.82 -21.26,11.09 -16.25,24.36 -33.99,29.56 -22.1,6.46 -27.75,12.35 -39.47,18.4l-12.8 -13.82c-17.09,2.07 -28.03,-3.34 -39.97,-8.66 -49.61,-10.81 -50.99,17.71 -72.71,37.49 -28.35,25.79 -47.72,-1.59 -88.78,-2.46 -45.52,-0.96 -34.16,38.27 -61.85,55.51 -19.13,11.91 -83.79,2.59 -110.44,0.25l15.19 -7.16c-15.02,-5.67 -15.33,6.14 -37.36,7.1l-73.99 -5.23c-17.72,-5.96 -1.83,-14.03 -63.47,-4.3 -60.44,9.54 -109.87,-28.24 -149.81,-47.08 20.85,5.76 50.57,33.85 72.72,12.79 -9.03,-7.67 -17.43,-10.19 -29.31,-16.34 -17.92,-9.27 -22.61,-9.47 -29.18,-20.58 -21.62,-15.31 -23.12,3.76 -42.86,-15.38 -3.89,-3.75 -11.91,-13.52 -19.34,-6.29 -6.91,6.71 2,13.88 5.72,21.04 -17.27,-6.14 -51.48,-32.43 -65.75,-43.19l-59.39 -48.39c-8.6,-11.09 -14.29,-6.9 -16.8,-22.9 -8.89,-56.57 4.75,-47.39 -54.5,-100.57l-87.17 -107.63c-12.74,-21.08 -8.28,-69.78 -40.63,-115.18 -7.4,-10.39 -23.28,-35 -26.94,-47.87 -23.04,-80.82 -5.65,-201.31 3.2,-284.92 6.58,-62.04 18.09,-138.02 36.74,-197.05 4.4,-13.95 18.6,-45.24 19.39,-53.82z"/>
   <path class="fil4" d="M3489.52 4395.34l-1.74 27.57c13.26,0.24 16.52,4.99 18.46,15.93 1.51,8.57 4.96,26 5.08,32.24 -7.03,11.51 -14.9,11.43 -15.17,26.56 -0.03,1.74 5.65,66.05 12.82,74.47 12.69,14.88 18.95,2.54 29.02,-1.45 6.91,4.99 15.29,14.73 22.11,16.55 18.44,4.91 17.61,-7.7 26.7,-13.46 19.52,-12.38 34.84,19 59.07,13.78 0.36,-0.2 26.12,-20.72 -10.65,-33.88 -10.65,-3.81 -12.29,-3.81 -18.93,-10.64 10.05,-13.51 12.92,0.96 16.64,-14.98 -14.46,-13.7 -31.69,0.24 -48.48,-16.43 -11.28,-11.19 -16.39,-31.94 -8.08,-46.39 8.67,5.02 13.81,13.7 21.37,21.07 8.14,7.94 15.8,13.56 25.27,19.71 27.61,17.92 44.13,8.52 66.86,19.04 -1.48,15.51 -5.8,14.42 -9.21,27.67 29.22,8.15 20.45,13.25 14.61,34.13 -5.64,20.12 2.89,6.81 5.23,25.24 1.27,10.12 -2.08,16.78 0.87,28.98 44.09,-32.82 80.26,-202.65 83.22,-277.86 3.92,-99.96 6.02,-152.52 -14.88,-248.41 -2.34,-10.76 -4.58,-27.28 -7.67,-38.6 -4.41,-16.14 -0.7,-20.6 -2.27,-30.47 -0.16,-0.96 -0.33,-1.71 -0.54,-2.59 -0.19,-0.83 -0.57,-1.67 -0.79,-2.39l-2.15 -4.38c-1.01,-0.03 0.72,2.88 -8.56,6.39l-7.85 -5.89c-35.71,5.39 -52.81,27.87 -74.46,43.31 -45.97,32.79 -63.35,-12.51 -60.99,-31.26 27.89,-16.65 35.63,20.98 52.24,1.19 13.27,-14.25 -16.15,-35.63 -26.6,-39.73 -27.46,-10.81 -32.88,-1.37 -38.98,-35.91 -3.67,-20.72 -4.3,-44.26 -14.42,-60.47 -10.7,-17.15 -31.52,-22.05 -49.59,-8.39 -7.44,40.73 27.82,62.98 1.64,91.32 -27.42,0.56 -35.04,-26.53 -54.39,-31.87 -14.24,-3.92 -27.69,1.97 -34.7,9.34 -14.7,15.43 -2.89,15.41 1.9,26.25 -29.54,30.91 -84.86,31.8 -53.8,69.31 12.43,15.02 6.42,14.24 13.99,30.96 34.87,4.4 24.8,-29.96 43.94,-51.72 14.22,-16.17 40.62,-34.1 64.49,-15.07 1.25,18.04 -5.26,22.52 -6.87,37.19l25.71 4.2c1.8,24.85 -16.91,14.32 -49.01,23.17 -23.08,6.35 -23.55,18.71 -35.57,32.72 -25.11,2.35 -47.9,-5.94 -56.41,-25.77 -6,-13.98 -21.23,-40.81 -41.02,-33.05 -9.99,22.11 9.52,51.37 0.31,72.66 -15.76,21.18 -26.37,-5.57 -45.69,-3.94 -8.36,0.7 -18.29,7.8 -20.41,13.89 -6.41,18.5 4.84,8.06 10.22,19.27 -7.44,8.56 -14.26,10.82 -19,16.15 -8.33,9.37 -1.08,1.46 -5.78,12.39 -9.03,21.07 -29.21,10.92 -56.22,30.48 -12.91,9.36 -59.57,58.97 -51.46,83.02 61.15,11.06 59.83,-79.83 116.39,-86.09 0.11,11.24 1.65,14.8 5.44,21.12 28.67,2.46 32.53,-20.72 50.43,-29.98 16.65,8.6 -2.44,6.68 14.98,10.07 11.91,-13.35 -3.17,-13.46 14.98,-14.59 7.39,10.8 3.91,52.44 3.59,68.49 -0.74,38.27 -22.02,26.71 -20.02,46.19 30.67,5.76 63.55,-17 60.01,-45.47 -2.42,-19.34 -46.63,-61.11 -1.49,-63.84 0.8,12.74 -0.78,31.71 3.06,41.94 4.09,10.9 11.31,11.8 20.65,20.31 3.33,40.38 -27.97,37.44 -12.7,75.57 57.79,4.64 3.89,-46.35 42.57,-50.4 0.91,17.52 -9.02,27.61 0.13,41.45 16.73,7.84 13.78,-9.38 21.07,-20.16l13.78 0.45c-0.45,5.17 -3.34,14.87 -3.16,16.64 1.29,13.06 -0.42,-3.65 7.53,12.06 0.93,15.51 0.37,24.38 -6.69,35.12zm-309.05 -436.67c6.83,17.93 11.9,31.73 26.52,46.35 6.19,6.16 36.52,19.16 58.74,10.98 4.59,-14.44 0.45,-17.56 -9.25,-27.36 2.25,-3.59 0.52,-0.92 4.11,-4.71 26.41,-27.83 23.24,-71.5 -14.2,-50 -18.02,10.34 -15.8,3.26 -26.35,-2.02 -16.76,-8.37 -33.73,14.98 -39.56,26.76zm36.51 162.62c11.63,7.05 28.22,17.33 46.26,12.15 3.8,-12.58 6.46,-45.67 -1.61,-57.18 -16.95,-24.15 -36.5,1.59 -37.29,11.1 -0.76,9.22 3.5,1.49 -0.66,15.55 -2.36,8.01 -4.54,8.12 -6.71,18.39zm63.66 -3.8c13.21,16.5 47.68,17.15 50.37,-6.32 1.5,-13.17 -4.68,-21.1 -9.46,-31.75 -8.1,-18.06 -1.13,-22.98 -5.09,-36.7 -7.61,-26.42 -40.67,5.02 -44.62,19.04 -6.87,24.32 7.12,14.68 14.61,25.85 7.38,10.98 -5.15,13.58 -5.81,29.87z"/>
   <path class="fil5" d="M2588.55 4260.56c14.59,16.86 3.44,19.77 3.49,38.54 13.69,0.47 22.35,-2.24 32.69,3.33 27.81,26.25 -14.76,52.72 -37.66,59.69 8.61,30.43 4.01,39.24 -9.74,62.22 -20.43,34.15 -6.63,35.17 5.2,52.74 -14.28,43.59 -64.49,-8.55 -63.59,45.48 40.17,-1.2 68.65,-50.57 87.28,11.17 14.92,-0.44 17.85,-0.47 26.61,5.85 -1.31,17.63 -3.02,6.29 -8.95,15.13 -9.54,14.22 4.44,35.85 -22.37,49.7 -21.57,11.16 -12.65,4.33 -23.3,24.67 -7.75,14.81 -15.63,7.44 -34.66,9.94 -2.27,15.41 4.05,21.93 5.81,35.82 -0.55,0.28 -1.49,0.37 -1.76,0.48 -0.25,0.11 -1.35,0.4 -1.65,0.55 -0.28,0.14 -1.19,0.49 -1.46,0.67 -4.79,3.12 -2.12,3.87 -6.83,10.41 -8.33,11.55 -11.61,3.58 -19.79,24.97l-1.39 3.67c-3.04,11.78 3.16,5.96 -3.37,22.08l-20.8 60.51c-0.29,0.91 -1.09,3.37 -1.37,4.28l-2 6.78c-1.96,5.94 -0.5,4.56 -3.72,9.42 6.21,7.17 5.6,3.15 10.37,11.98 -7.06,13.43 -6.17,0.57 -12.77,14.98 6.91,12.91 20.9,25.77 21.69,44.89 1.04,24.69 -8.83,44.5 23.94,41.89 19.28,-27.14 3.29,-42.16 11.04,-67.06 1.64,-5.26 23.83,-36.98 34.57,-41.72 5.93,9.11 8.36,17.67 20.64,22.39 -1.05,-26.06 -22.04,-17.23 -2.57,-50.27 7.91,-13.42 5.63,-7.39 17.04,-15.96 7.56,-5.68 6.65,-8.28 14.87,-14.19 14.71,2 10.41,8.77 26.98,7.85 19.42,-20.32 -6.46,-30.76 44.23,-45.26l40.56 -4.31c14.36,-1.37 18.48,4.85 34.41,3.76l1.25 -20.41c31.24,3.15 3.98,-18.17 26.61,-43.54 31.98,2.61 15.35,27.55 26.74,50.25 28.5,-8.16 -12.72,-48.56 16.36,-79.67 26.65,-28.5 34.47,-11.51 34.66,-65.14 9.86,-9.84 18.27,-11.71 20.34,-26.16 -12.4,-11.21 -16.82,-4.6 -29.03,-11.99 -0.2,-18.09 2.09,-9.49 13.69,-17.98 -2.24,-11.7 -6.34,-13.08 -16.07,-18.94 -11.42,-6.89 -9.85,-8.8 -16.02,-20.09l-22.93 -5.92c-3.07,-34.73 27.39,-12.09 28.87,-45.24 -20.77,-0.68 -24,4.39 -37.54,-6.69 -4.11,-25.2 10.92,-18.82 20.18,-34.98 -8.3,-4.06 -10.94,-1.29 -20.06,-7.31 -3.76,-38.65 64.59,-7.32 50.31,-50.42 -45.22,-14.37 -95.75,54.34 -99.74,-10.32 -17.88,-0.96 -31.7,-1.56 -41.46,-12.84 -12.52,4.57 -1.89,5 -18.42,7.22l-1.67 -5.17c-10.94,-37.09 -31.24,-3.91 -55.27,-14.37 -8.4,-6.95 -2.8,-5.62 -11.89,-11.91 -29.64,-20.51 -10.41,-19.5 -13.78,-51.98l-13.78 -1.07c-6.83,22.7 -15.19,24.41 -23.01,37.54z"/>
   <path class="fil6" d="M2433.62 3859.41c1.56,33.5 11.22,39.06 -9.93,72.76 -12.93,20.62 -29.05,29.93 -56.58,38.91 -8.13,32.08 -1.96,31.2 26.18,39.13 4.65,8.4 2.78,4.96 -0.93,14.99 41.07,0.91 10.12,4.04 42.31,12.06 4.55,19.46 -1.48,12.7 11.59,19.21 0.62,0.31 1.81,0.57 2.61,1.08l-8.59 23.71c1.1,0.87 2.04,0.84 2.27,1.81l4.4 4.91c4.02,6.38 2.26,-5.13 2.94,8.36 0.57,11.18 -4.57,9.13 -3.25,23.62 32.09,2.61 5.86,-14.37 37.98,-1.26 -5.07,14.47 -0.63,9.32 -0.24,17.2 0.69,13.44 -6.7,5.88 -2.87,21.83 6.15,25.76 22.37,14.25 38.66,24.67 13.43,26.95 -27.21,35.56 -16,56.98 22.43,-1.32 6.26,-21.38 23.98,-37.03 19.59,-1.42 -0.63,-0.23 9.15,1.93 20.88,4.62 7.83,-5.61 27.68,2.1 11.43,28.93 -15.15,53.99 23.6,54.18 7.79,-13.11 16.16,-14.83 23,-37.54 -13.06,-8.46 -2.41,-23.94 -11.85,-39.1 -3.76,-6.05 -7.76,-8.02 -16.85,-10.17 -11.7,-2.77 -13.24,-0.24 -22.54,-5.31 -1.49,-28.34 6.46,-35.93 12.51,-57.44 25.37,-2.13 64.72,0.05 80.13,13.54 29.44,25.74 7.21,54.57 39.2,52.04l-11.14 -39.04c10.32,-7.12 13.6,-11.89 21.37,-19.67 11.11,-11.11 14.54,-5.59 32.56,-9.43 26.57,-71.64 21.66,-33.68 75.84,-54.94 0.39,-0.84 0.71,-3.06 0.85,-2.62 0.13,0.42 0.63,-1.95 0.82,-2.61 0.18,-0.65 0.52,-1.8 0.73,-2.57 6.35,-22.78 19.55,-31.44 51.49,-44.05 40.6,-16 40.39,24.51 71,28.78 24.34,-27.13 1.69,-54.29 -7.91,-78.57 -7.04,-17.76 -2.75,-29.36 -6.87,-44.31 -4.88,-17.67 -14.39,-17 -31.4,-22.71 -3.62,-16.79 0.11,-28.36 -22.59,-29.37 -19.61,-0.86 -29,7.31 -49.28,2.47l-4.14 -23.83c-0.14,-0.63 -0.33,-1.7 -0.66,-2.49 -52.56,0.36 -15.98,91.6 -56.94,90.91 -15.75,-21.76 10.3,-4.92 -8.99,-54.32 -27.72,-1.17 -32.58,1.74 -35.36,-26.38 -11.69,-0.27 -27.06,2.52 -30.55,-5.17 -0.47,-18.09 4.25,-21.63 18.19,-27.46 18.47,-7.73 20.09,-2.76 26.9,-20.1 0.04,-0.01 30.35,-29.37 45.77,-2.24 2.25,3.96 1.66,4.56 3.61,8.35 1.98,3.84 -0.98,-0.88 2.2,3.98 14.32,21.9 27.79,-20.61 31.82,-29.74 11.24,-25.47 1.65,-45.55 14.39,-51.81 10.41,-2.75 14.93,2 21.01,11.19 32.84,49.69 1.21,35.26 -21.21,65.06 6.23,41.93 26.87,-2.72 57.79,39.19 5.39,7.32 16.12,20.76 25.25,23.57 25.26,7.79 25.81,-9.19 15.29,-23.51 24.36,-13.91 24.37,-25.32 8.5,-50.59 7.48,-11.33 11.81,-3.26 11.67,-21.47 -0.22,-30.15 -25.76,-21.95 -30.52,-36.95 -4.02,-12.67 3.22,-13.45 4.56,-24.69 -7.95,-6 -18.52,-8.31 -30.91,-11.27l5.59 -24.99c-21.27,-1.21 -25.93,-0.99 -27.75,-21.18l-21.56 -2.46c-3.39,-8.74 -4.21,-10.53 -2.53,-20.8 42.09,-22.59 50.8,38.08 85.09,-31.22 21.04,-42.52 85.95,9.43 92.95,-39.37 -15.65,-19.38 -33.94,-10.29 -51.68,-20.36 -12.43,-7.07 -2.9,-14.49 -28.76,-42.88 -20.62,-8.67 -25.88,0.94 -45.39,-0.45 -18.66,-1.33 -17.51,-5.31 -39.56,-1.84 -53.06,8.39 -42.96,-1.21 -66.15,32.89 -19.13,7 -7.96,4.72 -30.05,4.23 -11.46,-0.24 -19.56,4.17 -35.43,4.12 -47.85,-0.19 -35.26,-5.04 -65.36,19.02 -21.12,16.89 -23.75,20.33 -52.29,31.59 -29.3,11.58 -8.93,31.45 -49.58,22.51 -36.65,47.78 -47.24,43.35 -76.31,76.33 -3.1,3.53 -34.27,22.57 -59.3,45.58 -28.79,26.46 16.7,48.52 -24.52,74.41 -10.75,6.75 -26.07,16.24 -29.89,25.09 22.56,6.49 29.59,-23 46.19,-7.19 9.62,16.7 -9.45,11.08 4.26,28.44 1.96,2.49 17.28,17.54 20.37,19.78z"/>
   <path class="fil7" d="M3224.36 4660.61c-5.74,22.1 -9.8,15.18 -16.93,32.22 6.51,11.87 6.28,1.9 8.66,14.98 -14.8,21.78 -27.56,12.23 -18.95,44.28 6.98,25.97 -17.59,19.67 -29.68,36.63 3.04,8.21 -0.77,-1.23 8.45,8.69 32.84,35.39 -6.47,32.09 7.51,60.67 4.8,9.82 5.73,10.54 16.7,13.93 13.56,4.2 14.83,1.46 20.58,9.98 18.8,27.87 -21.4,35 -30.69,92.8 11.94,5.32 22.88,10.73 39.97,8.66 5.02,-21.64 6.01,-72.89 33.64,-84.68 2.83,12.59 -1.23,34.96 4.67,46.07 31.11,5.31 10.2,-30.11 14.86,-48.06 3.74,-14.43 8.56,-4.04 20.49,-6.49 12.24,-2.49 9.81,-10.61 13.48,-22.9 30.59,-7.39 23.09,-3.02 23.22,-36.72l17.83 -9.8 8.46 7.99c0.49,0.47 1.35,1.3 1.76,1.69 0.4,0.39 1.13,1.19 1.76,1.71l1.5 -7.97c4.52,-30.76 9.61,-17.37 26.78,-31.31 16.39,-13.32 38,-11.04 34.59,-33.62 -2.62,-17.48 -44.48,-28.52 -0.3,-40.13 18.13,-4.76 8.35,-2.63 17.16,-15.49 11.55,-16.89 29.13,-1.9 36.37,-29.98 7.01,-27.14 -3.89,-31.31 30.1,-35.86 20.75,-2.77 41.42,-4.07 39.43,-26 -21.57,-14.8 -33.72,8.98 -62.42,-17.98 -1.25,-26.59 5.89,-10.65 -3.91,-41.01 -5.98,-18.44 -3.21,-22.82 -12.98,-37.17 -8.63,-18.28 -15.2,-25.43 -14.16,-50.76 1,-24.28 8.05,-35.27 25.45,-42.11l1.74 -27.57 -30.04 -3.85c-7.11,-8.04 -32.74,-13.72 -57.2,-27.5 -38.3,-21.55 -39.67,-6.67 -68.76,-15.35 -27.28,-8.15 -9.5,-45.13 -25.13,-58.45 -9.33,-7.97 -43.37,-28.73 -54.9,-19.7 -6.5,8.72 -3.04,18.77 -5.5,30.87 -23.73,14.07 -24.26,1.8 -51.5,26.03 -18.89,16.79 -31.28,18.31 -59.28,11.24 -64.81,-16.34 -45.81,-28.95 -86.42,-69.54 -43.81,-43.81 -88.13,5.41 -60.99,42.98 22.7,31.43 90.76,22.19 89.87,67.09 -6.31,4.69 -10.34,8.23 -19.49,9.78 -14.61,2.47 -17.33,-3.69 -22.09,7.24 3.02,7.94 -3.61,4.93 11.24,7.18 3.29,0.49 12.94,-0.19 18.09,0.18l-8.84 26.93 27.98 0.39c2.99,24.43 -20.63,43.93 3.57,53.47 24.94,9.82 15.33,-5.89 24.47,22.62l15.85 21.45c5.84,2.93 63.96,-5.81 80.35,9.25 0.65,0.59 2.56,3.04 2.99,3.55l2.78 4.03c-0.33,17.78 4.02,23.2 -1.91,41.56 -11.94,12.52 -3.31,12.69 -5.58,26.23 -3.72,22.05 -10.15,3.93 -12.16,26.46 12.36,11.6 9.93,-2.4 25.97,19.11 0.35,0.47 0.88,1.45 1.47,2.04zm240.06 194.04c3.89,-31.19 31.37,-27.45 42.33,-41.96 -7.3,-9.86 -18.54,-6.59 -33.79,-10.29 -5.29,-9.61 -4.57,-20.31 -21.7,-18.91 -8.16,0.67 -15.26,8.74 -27.39,14.04 -65.78,28.69 -10.11,62.17 30.25,78.14 10.46,4.14 26.37,11.53 30.37,-0.5 5.05,-15.19 -10.49,-15.72 -20.07,-20.52z"/>
   <path class="fil8" d="M3015.3 3690.27c10.15,7.24 2.02,-1.3 4.55,7.99 2.96,10.93 -1.78,19.59 -2.29,30.33 -0.74,15.66 6.33,21.63 11.16,32.3 -14.2,26.44 -37.2,16.85 -55.21,28.82 -6.69,4.44 -15.14,21.24 -1.13,27.61 9.66,4.4 28.36,-1.09 38.27,-2.37 1.49,27.08 -13.11,32.32 -11.46,56.69l13.66 5.66c3.35,81.53 5.82,48.09 29.43,64.73 9.9,6.98 -2.22,8.31 19.81,8.46 6.37,-22.76 4.93,-34.41 19.73,-51.33 33.24,-4.03 20.5,7.46 42.65,9.31 10.08,-5.59 10.11,-11.27 16.75,-19.81 18.96,-1.84 8.41,6.69 24.97,-4.98 8.57,-6.05 13.66,-8.02 27.24,-9.48 39.3,-4.21 32.2,5.85 37.15,-34.06 31.19,-9.2 37.06,42.32 67.13,19.17 10.2,-7.88 8.94,-26.87 0.79,-35.71 -8.37,-9.08 -26.83,-11.24 -18.91,-27.18 9.94,-11.65 26.71,-6.17 44.23,-4.11 -0.54,-11.65 0.94,-12.57 -6.08,-21.03l-13.82 -13.37c10.74,-10.87 17.5,-12.46 29.64,-21.74 20.11,-15.36 1.13,-18.35 1.17,-31.9 31.42,-16.83 45.13,19.7 77.43,14.44 16.45,-13.45 23.63,-35.59 -1.33,-46.49 -10.96,-4.77 -51.02,-13.56 -63.5,-15.98 -18.53,-30.57 22.74,-34.79 4.9,-60.13 -28.09,-14.92 -18.73,29.33 -46.78,22.89 -6.04,-18.63 1.67,-23.77 -6.19,-41.68 -40.22,-12.06 -27.92,40.18 -51.9,16.11 -25.62,-25.74 -7.61,1.83 -71.93,-9.74 -5.65,9.28 -1.52,6.3 -8.99,13.19 -33.07,-15.37 -2.04,-91.09 -53.91,-87.04 -11.15,14.53 -7.04,39.35 -22.18,43.44 -29.38,7.92 -4.96,-29.48 -37.65,-25.59 0.11,37.68 3.21,14.75 -22.73,42.83 -8.72,9.43 -11.61,11.52 -22.7,19.24 -42.13,29.39 -73.5,33.24 -80.72,45.21 -6.81,11.28 -3.75,26.76 2.91,33.36 19.74,19.52 35.8,-10.73 63.73,-9.78 -1.17,19.4 -9.7,21.37 -8.37,38.19 12.41,1.01 23.41,1.13 30.51,-6.44z"/>
  </g>
 </g>
</svg>
