<?xml version="1.0" encoding="UTF-8"?>
<!DOCTYPE svg PUBLIC "-//W3C//DTD SVG 1.1//EN" "http://www.w3.org/Graphics/SVG/1.1/DTD/svg11.dtd">
<!-- Creator: CorelDRAW -->
<svg xmlns="http://www.w3.org/2000/svg" xml:space="preserve" width="8in" height="8in" version="1.1" style="shape-rendering:geometricPrecision; text-rendering:geometricPrecision; image-rendering:optimizeQuality; fill-rule:evenodd; clip-rule:evenodd"
viewBox="0 0 8000 8000"
 xmlns:xlink="http://www.w3.org/1999/xlink"
 xmlns:xodm="http://www.corel.com/coreldraw/odm/2003">
 <defs>
  <style type="text/css">
   <![CDATA[
    .str0 {stroke:black;stroke-width:6.94;stroke-miterlimit:2.61313}
    .fil0 {fill:none}
    .fil4 {fill:#1C9DE4}
    .fil1 {fill:white}
    .fil2 {fill:white;fill-rule:nonzero}
    .fil9 {fill:url(#id0)}
    .fil5 {fill:url(#id1)}
    .fil3 {fill:url(#id2)}
    .fil8 {fill:url(#id3)}
    .fil6 {fill:url(#id4)}
    .fil7 {fill:url(#id5)}
   ]]>
  </style>
  <linearGradient id="id0" gradientUnits="userSpaceOnUse" x1="4728.06" y1="3619.5" x2="4772.52" y2="3482.34">
   <stop offset="0" style="stop-opacity:1; stop-color:#76B101"/>
   <stop offset="1" style="stop-opacity:1; stop-color:#C3ED2B"/>
  </linearGradient>
  <linearGradient id="id1" gradientUnits="userSpaceOnUse" x1="4917.36" y1="3806.82" x2="4741.63" y2="3737.89">
   <stop offset="0" style="stop-opacity:1; stop-color:#FF951F"/>
   <stop offset="1" style="stop-opacity:1; stop-color:#FFCE8A"/>
  </linearGradient>
  <linearGradient id="id2" gradientUnits="userSpaceOnUse" x1="4689.29" y1="3796.69" x2="4842.47" y2="4142.22">
   <stop offset="0" style="stop-opacity:1; stop-color:#FDFEFE"/>
   <stop offset="1" style="stop-opacity:1; stop-color:#C5F2F8"/>
  </linearGradient>
  <linearGradient id="id3" gradientUnits="userSpaceOnUse" x1="4834.26" y1="3964.6" x2="4693.87" y2="3800.57">
   <stop offset="0" style="stop-opacity:1; stop-color:#E93628"/>
   <stop offset="1" style="stop-opacity:1; stop-color:#F97066"/>
  </linearGradient>
  <linearGradient id="id4" gradientUnits="userSpaceOnUse" x1="4556.07" y1="3959.71" x2="4650.61" y2="3766.79">
   <stop offset="0" style="stop-opacity:1; stop-color:#FF951F"/>
   <stop offset="1" style="stop-opacity:1; stop-color:#FFC56E"/>
  </linearGradient>
  <radialGradient id="id5" gradientUnits="userSpaceOnUse" gradientTransform="matrix(1.25845 -1.11903 0.991097 1.11321 -4726 4640)" cx="4510.27" cy="3592.66" r="78.9" fx="4510.27" fy="3592.66">
   <stop offset="0" style="stop-opacity:1; stop-color:#8748EF"/>
   <stop offset="1" style="stop-opacity:1; stop-color:#652CCD"/>
  </radialGradient>
 </defs>
 <g id="Layer_x0020_1">
  <metadata id="CorelCorpID_0Corel-Layer"/>
  <rect class="fil0 str0" width="8000" height="8000"/>
  <g id="_1673079109456">
   <path class="fil1" d="M3778.43 4059.6l46.76 -167 79.67 292.05 136.35 -1.3 191.63 -611.42 -146.81 -0.34 -109.99 337.87 -92.09 -337.81 -135.25 0 -79.92 342.02 109.65 145.93zm-34.18 125.27l19.19 -65.31 -541.02 -701.06 -174.89 -0.47 573.24 765.63 123.47 1.21z"/>
   <path class="fil1" d="M5137.86 4183.35l109.44 1.53 0.47 -224.85c91.13,-17.81 118.72,33.8 151.92,81.61 13.89,20.01 34.29,51.21 48,72.21 9.65,14.78 15.54,23.78 23.83,36.17 32.22,48.21 6.9,34.67 152.7,34.81l-80.44 -131.46c-36.15,-53.63 -48.47,-71.19 -102.2,-107.67 43.35,-10.73 67.17,-16.16 94.59,-40.35 19.82,-17.48 45.37,-55.54 43.55,-90l-109.54 -0.63c-18.89,37.02 -15.54,51.72 -82.52,55.68 -44.69,2.64 -94.66,2.15 -139.56,0.99l-0.49 -55.45 -108.87 -1.12 -0.89 368.5zm0.15 -408.39c25.29,0.3 89.63,3.39 110.13,-2.03l-0.29 -38.65c42.64,-0.91 86.52,-0.63 129.09,-0.12 46.41,0.56 74.78,5.52 86.93,40.95l116.02 0c-3.23,-89.07 -74.85,-125.25 -153.55,-131 -90.86,-6.65 -195.85,-1.69 -288.25,-1.89l-0.08 132.74z"/>
   <path class="fil1" d="M6164.03 3930.62l109.58 -0.25 0.42 -195.71c194.43,-6.47 222.94,11.39 231.61,196.03l112.57 -0.07c2.41,-122.4 -33.28,-213.66 -108.58,-259.53 -69.3,-42.21 -252.09,-29.67 -345.69,-28.3l0.09 287.83zm-0.06 255.38c89.45,-3.08 244.29,11.48 317.68,-16.81 82.07,-31.65 132.55,-123.94 132.91,-199.04l-111.69 0.15c-8.82,55.04 -19.37,92.63 -62.26,111.68 -37.22,16.52 -120.44,12.47 -166.31,11.67l-0.44 -123.03 -109.02 -0.54 -0.87 215.94z"/>
   <path class="fil1" d="M5686.19 4095.35l0.2 91.14 385.02 -1.54 0.78 -92.33 -386 2.72zm109.69 -43.35l1.49 -410.02 -110.67 -0.59 -0.94 410.7 110.12 -0.1z"/>
   <path class="fil1" d="M2362.85 3639.46l-0.32 -222.84 -156.64 -0.38 -0.23 175.02c-8.94,-10.69 -22.74,-38.5 -59.87,-81.57 -20.75,-24.07 -52.11,-50.12 -77.85,-68.18 -57.14,-40.11 -127.14,-70.24 -212.64,-79.76 -187.35,-20.88 -335.68,76.93 -409.45,173 -89.54,116.59 -134.63,283.49 -68.25,455.57 50.39,130.64 163.23,240.46 307.36,279.02 86.96,23.26 170.89,21.51 255.84,-3.87 157.35,-47.01 225.04,-149.68 311.88,-272.11l614.49 -850.05 -143.39 -0.81 -360.92 496.94zm0.81 257.45l251.72 338.28 188.14 0.24 -350.85 -470.11 -89 131.59zm-597.64 -418.3c-89.76,10.44 -175.93,52.7 -228.91,118.25 -60.33,74.66 -92.98,155.33 -81.94,259.62 18.84,177.96 182.43,327.26 386.19,304.9 176.27,-19.35 331.78,-177.09 308.19,-379.37 -12.43,-106.61 -66.38,-176.06 -121.36,-224.35 -58.26,-51.18 -159.76,-90.94 -262.16,-79.05z"/>
   <path class="fil2" d="M4576.99 4796.3c-25.4,-27.35 -48.2,-51.45 -68.39,-73.6 21.5,-28.66 41.69,-62.52 61.23,-100.3l-78.16 -37.78c-11.07,26.7 -24.75,52.76 -40.38,76.2 -9.89,-10.74 -19.05,-20.87 -27.63,-30.44l-83.36 47.9c13.75,15.33 29.19,32.28 46.51,50.93 -18.24,13.03 -37.13,20.19 -56.01,20.19 -31.92,0 -58.62,-21.5 -58.62,-56.67 0,-21.49 9.77,-38.43 33.22,-54.06l87.27 -42.99c72.3,-35.17 99.65,-61.87 99.65,-108.77 0,-67.09 -55.36,-116.59 -133.52,-116.59 -72.3,0 -130.91,53.41 -130.91,117.24 0,33.22 7.17,54.06 29.96,87.93 -67.74,31.27 -95.09,66.44 -95.09,125.06 0,82.72 65.13,130.91 153.71,130.91 48.84,0 89.88,-14.98 127,-42.33 13.68,14.98 28.66,30.61 44.29,46.89l89.23 -39.73zm-215.59 -349.76c22.14,0 38.43,16.93 38.43,41.03 0,26.7 -14.98,38.43 -53.41,54.06 -16.93,-20.19 -26.05,-33.87 -26.05,-54.06 0,-23.44 18.24,-41.03 41.04,-41.03z"/>
   <path class="fil1" d="M2299.69 4840.51l93.98 0.35 38.5 -102.33 175.18 -0.03c8.21,3.25 1.78,-3.91 8.49,8.96l34.81 92.89 97.35 0.6 -70.69 -178.19 -309.15 0.14c-9.9,19.65 -66.57,163.71 -68.48,177.6zm80.83 -211l91.39 0.21 47.93 -131.49 50.26 130.72 93.24 0.92 -93.9 -237.41 -96.73 -0.74 -92.19 237.78z"/>
   <path class="fil1" d="M5942.48 4840.34l0.92 -76.68c-80.38,-12.26 -73.6,-73.44 -73.7,-152.12 -0.09,-75.29 -0.89,-151.22 0.2,-226.44l-90.96 -0.22c-1.47,52.36 -1.69,261.29 2.14,306.5 5.06,59.81 12.84,77.65 44.88,110.5 22.67,23.24 74.38,44.59 116.53,38.46zm34.05 -75.58l-1.04 77.41c102.52,-5.28 151,-47.89 158.22,-148.56 6.96,-96.83 2.03,-209.13 2.09,-307.92l-90.65 -0.86c-1.85,59.91 3.88,289.61 -5.37,329.3 -8.71,37.34 -38.05,43.49 -63.25,50.64z"/>
   <path class="fil1" d="M2862.66 4841.09l91.11 0.7 -153.06 -449.11 -97.31 -0.19 159.26 448.59zm113.18 -45.07l144.6 -402.71 -94.84 -0.78c-10.43,15.78 -27.07,78.65 -34.57,101.11l-50.17 152c-9.11,28.02 -12.04,21.65 -1.45,50.92 4.77,13.19 29.13,90.25 36.44,99.47z"/>
   <path class="fil1" d="M3190.23 4841.82l341.07 -0.54 0.34 -74.78 -250.52 -1.21 -0.41 -19.79 -89.09 0.05 -1.4 96.27zm0.09 -129.41l91 0.21 0.01 -79.44 223.61 -0.68 1.17 -75.22 -223.89 -0.64 -0.96 -99.2 240.91 -0.6 0.87 -77.95 -332.49 -0.43 -0.23 333.95z"/>
   <path class="fil1" d="M5404.54 4378.41c-120.79,16.11 -228.37,130.6 -207.51,270.65 18.25,122.54 130.68,225.73 275.78,205.98 120.61,-16.42 227.41,-127.99 207.67,-269.83 -17.36,-124.76 -132.19,-225.97 -275.93,-206.8zm18.22 87.49c-79.5,9.33 -148.03,76.04 -137.82,167.87 8.94,80.42 83.36,143.2 172.19,133.37 80.06,-8.85 145.57,-79.17 135.13,-169.3 -8.82,-76.07 -82.04,-142.21 -169.49,-131.94z"/>
   <path class="fil1" d="M6239.48 4840.3l93.3 1.3 0.41 -191.68c77.69,-15.18 101.2,28.81 129.5,69.57 11.85,17.06 29.23,43.66 40.92,61.56 8.22,12.6 13.25,20.27 20.31,30.83 27.47,41.1 5.88,29.56 130.17,29.69l-68.57 -112.07c-30.82,-45.72 -41.32,-60.69 -87.12,-91.78 36.96,-9.15 57.26,-13.77 80.63,-34.39 16.9,-14.91 38.68,-47.35 37.13,-76.72l-93.39 -0.53c-16.09,31.56 -13.24,44.09 -70.34,47.46 -38.1,2.25 -80.7,1.84 -118.97,0.85l-0.42 -47.26 -92.8 -0.95 -0.76 314.13zm0.13 -348.14l93.89 -1.73 -0.24 -32.94c36.34,-0.78 73.75,-0.54 110.04,-0.11 39.57,0.48 63.75,4.71 74.1,34.91l98.91 0c-2.76,-75.93 -63.81,-106.77 -130.9,-111.68 -77.46,-5.67 -166.95,-1.44 -245.72,-1.61l-0.07 113.16z"/>
   <path class="fil1" d="M3626.47 4765.92l0.17 77.69 328.21 -1.3 0.67 -78.71 -329.05 2.32zm93.5 -36.95l1.27 -349.53 -94.34 -0.5 -0.8 350.11 93.88 -0.09z"/>
   <path class="fil1" d="M1813.78 4840.55l93.3 1.31 0.41 -191.68c77.69,-15.18 101.2,28.82 129.5,69.57 11.84,17.07 29.23,43.66 40.92,61.56 8.22,12.6 13.25,20.27 20.31,30.84 27.47,41.09 5.88,29.56 130.17,29.68l-68.57 -112.06c-30.82,-45.72 -41.31,-60.69 -87.13,-91.79 36.96,-9.15 57.26,-13.77 80.64,-34.39 16.89,-14.91 38.68,-47.35 37.13,-76.72l-93.39 -0.53c-16.09,31.55 -13.24,44.09 -70.34,47.46 -38.1,2.25 -80.7,1.84 -118.96,0.84l-0.42 -47.26 -92.8 -0.96 -0.76 314.13zm0.13 -348.14l93.89 -1.73 -0.24 -32.94c36.35,-0.77 73.76,-0.54 110.04,-0.11 39.57,0.48 63.75,4.71 74.1,34.91l98.91 0c-2.75,-75.93 -63.8,-106.77 -130.9,-111.68 -77.45,-5.67 -166.95,-1.44 -245.72,-1.61l-0.07 113.15z"/>
   <path class="fil1" d="M4929.85 4842.16l90.8 0.35 0.25 -353.97 -91.65 -1.39 0.6 355.01zm-133.05 -388.73l356.48 0.36 0.02 -74.73 -356.53 -1 0.04 75.37z"/>
   <path class="fil1" d="M1520.5 4842.16l90.8 0.35 0.25 -353.97 -91.65 -1.39 0.6 355.01zm-133.05 -388.73l356.48 0.36 0.02 -74.73 -356.54 -1 0.04 75.37z"/>
  </g>
  <g id="_1673079108496">
   <path class="fil3" d="M4886.96 3507.18c-0.78,3.5 -0.88,1.12 0.67,4.3 3.52,7.24 12.3,12.27 17.6,16.25l30.26 24.81c21.27,19.68 40.32,43.2 56.8,67.13 1.04,1.51 1.45,2.35 2.41,3.84 12.53,19.4 35.59,60.07 36.98,80.65 0.8,11.73 -11.72,20.76 -4.71,31.02 6.8,9.94 -0.68,8.12 4.69,22.87 2.63,7.18 5.52,12.84 5.52,22.02 -4.46,2.35 -6.21,1.36 -7.52,6.26 3.24,0.75 3.86,1.35 6.57,2.19 11.44,3.54 5.02,3.31 12.52,3.56 6.22,0.2 9.61,2.26 14.19,1.31 2.66,-0.54 4.71,-2.06 6.43,-2.51 7.19,-1.9 1.35,-0.45 6,0.93 3.6,1.07 4.08,0.78 8.11,0.78 3.8,-16.31 -0.71,-18.24 -13.77,-21.28 0,-15.79 -1.41,-9.96 -2.61,-18.86 -0.01,-0.07 -0.19,-2.84 -0.19,-2.88 0.09,-7.69 3.43,-1.85 7.85,-8.3 6.58,-9.61 -3.05,-12.03 -2.67,-19.98 0.41,-8.62 13.57,-7.25 -3.91,-24.82 -10.04,-10.1 -10.88,1.04 -13.04,-10.69 -4.27,-23.31 -2.35,-20.54 -15.78,-35.6 -35.78,-40.12 -6.36,-27.61 -42.59,-60.06 -2.47,-2.21 -4.43,-3.57 -7.01,-5.51 -2.48,-1.86 -4.56,-3.85 -7.24,-5.27 -4.1,-2.17 -6.09,-1.22 -8.67,-3.85 -0.9,-0.92 -3.59,-6.67 -5,-8.78 -5.09,-7.59 -8.75,-6.67 -13.31,-11.72 -3.09,-3.44 -2.46,-5.19 -4.2,-8.33 -1.68,-3.03 -1.94,-2.11 -5.02,-4.99l-15.04 -13.75c-7.85,-6.13 -31.65,-25.32 -40.3,-29.89 -5.05,-2.67 -1.83,-1.71 -5.3,-0.87 -1.95,-4.43 -0.65,-2.94 -9.63,-7.89l-21.63 -10.91c-34.26,-15.74 -51.34,-20.27 -88.39,-28.03l-60.6 -5.74c-18.31,0.07 -22.24,2.31 -31.3,2.51 0,-8.44 -0.53,-17.7 0.68,-25.6 1.5,-9.75 2.77,-13.77 0.57,-23.22 -5.13,1.37 -5.26,3.08 -6.43,8.59l-7.34 41.48c-14.24,0 -1.17,-4.72 -13.77,-5.01 -0.67,2.86 -0.97,2.88 -1.25,6.26 -8.81,0 -14.07,2.51 -25.04,2.51 -1.5,-6.47 -3.81,-14.95 -8.76,-16.28 -1.57,6.75 1.26,8.97 1.26,18.78 -7.46,1.74 -14.31,3.47 -21.62,5.92 -50.29,16.85 -54.59,24.35 -95.23,44.96 -12.8,6.49 -48,30.13 -58.08,39.56 -10.44,9.77 -28.4,24.02 -36.8,34.54 -2.76,3.46 -3.22,4.11 -6.4,7.37 -2.9,2.98 -3.5,4.43 -6.25,7.52 -2.59,2.9 -3.79,4.58 -6.21,7.56 -8.72,10.76 -20.15,16.17 -32.28,39.07 -2.66,-1.78 -12.5,-12.61 -21.02,0.26 -2.43,3.68 -1.51,5.5 -1.51,11.01 10.07,6.74 5.1,2.05 11.27,5 -4.76,8.98 -8.07,17.05 -13.77,17.52l0 -3.75c5.44,-3.2 -5.25,-13.87 -15.71,-10.81 -6.77,1.98 -27.46,20.11 -15.39,40.64 3.57,6.07 11.19,12 19.83,12.72 -1.52,6.51 -4.82,7.81 -5.01,16.27 -6.06,0 -6.83,-0.39 -11.35,1.17 -3.46,1.19 -6.72,2.41 -8.68,5.09 1.22,4.58 1.32,2.63 3.75,6.26 4.96,0 6.17,0.37 10.37,-0.91 5.41,-1.64 3.61,-1.6 10.92,-1.6 -1.14,2.37 -3.12,7.3 -3.76,10.02 -15.88,0 -23.48,18.93 -10.02,22.53 -0.81,9.83 -2.52,0.04 -2.5,25.04 0.04,62.13 9.03,59.32 10.07,73.79 0.94,13.16 6.64,34.17 5.28,49.23 -1.85,20.5 8.77,30.46 13.78,41.86 7.41,16.83 11.04,17.68 15.89,25.43 10.87,17.4 11.28,21 26.56,43.54l18.22 23.08c6.79,7.3 23.35,27.37 30.52,33.24 4.85,3.96 -0.12,1.63 6.09,2.74 -0.54,2.43 -2.15,0.92 3.96,6.02 2.43,2.02 3.82,3.11 6.24,5.07 4.16,3.36 7.8,6.88 12.17,10.37 17.8,14.2 51.64,35.82 71.33,43.83 2.2,0.89 6.03,2.36 8.12,3.39 6.44,3.17 2.89,0.65 -0.43,5.19 9.06,2.11 40.05,17.33 48.82,17.52l0 -2.5c-3.07,-0.71 -4.38,-1.4 -7.49,-2.52l-7.2 -2.82c-5.61,-2.3 -10.13,-3.44 -12.85,-7.17 39.45,9.19 58.05,32.93 98.71,28.62 17.31,-1.84 20.59,-5.11 29.97,9.18 6.05,9.22 14.08,13.53 29,13.57 18.98,0.06 31.37,-5.43 37.19,-4.77 44.67,5.08 37.95,-8.37 42.21,-19.8 3,-8.04 8.04,-4.77 8.26,-14.28 26.9,0 48.17,-10.82 69.06,-27.32 2.8,-2.22 5.62,-5.33 8.26,-8.01 2.95,-3 4.46,-6.25 7.8,-8.47 1.17,4.37 0.48,2.81 3.76,5 16.97,-8.98 22.34,-17.12 33.27,-25.56 6.74,-5.2 9.06,-9.87 14.6,-15.43 19.22,-19.32 47.91,-73.09 62.81,-99.91 8.29,-14.91 -0.35,-2.37 11.65,-18.4l17.42 -27.64c6.16,-11.35 -0.25,-43.28 4.98,-53.85 3.31,-6.69 6.3,-14.48 6.71,-23.41 0.33,-7.07 -3.38,-30.87 -6.79,-38.19 -2.56,-5.48 -5.76,-5.56 -0.7,-9.28 1.17,5.05 2.59,8.7 7.51,10.02 8.75,-5.85 2.6,-12.58 1.83,-14.31 -2.13,-4.8 -0.04,-2.43 -3.08,-6.97l-4.61 2.9c-0.17,0.18 -0.43,0.52 -0.57,0.68l-1.08 1.43c0,-8.66 -1.33,-9.42 -2.26,-15.37 -1.57,-9.97 2.46,-8.02 2.24,-15.81l-4.2 -32.35c-1.41,-10.74 5.69,-10.36 2.23,-20.78 -1.85,-5.59 -4.67,-5.41 -4.67,-5.41 -4.43,-2.32 -2.5,1.8 -4.61,-4.15 -0.26,-0.74 -1.23,-5.44 -1.68,-7.08 -1.43,-5.17 -2.61,-10.09 -4.58,-14.19 8.59,-5.75 8.76,-7.88 8.76,-13.77 -6.26,-3.31 -7.71,-4.06 -13.77,0 -8.33,-17.37 -12.89,-32.22 -25.78,-51.83 -12.81,-19.49 -15.97,-26.24 -32.19,-45.43 -7.4,-8.75 -24.28,-28.17 -32.53,-35.06l-15.35 -13.45c-4.26,-3.19 -7.53,-5.36 -11.63,-8.39 -3.95,-2.92 -7.62,-5.54 -11.7,-8.32 -8.77,-5.99 -7.43,-7.59 -12.27,-6.52 -2.13,-5.23 -0.82,-3.45 -9.77,-9l-33.86 -18.71c-4.27,-1.72 -7.11,-3.37 -12.15,-5.37 -4.78,-1.89 -7.73,-3.06 -12.52,-5 -4.73,-1.91 -8.11,-3.04 -12.89,-4.63 -6.52,-2.17 -9.15,-1.77 -12.69,-4.84 10.08,0 22.13,5.85 31.11,3.58 6.45,-1.63 2.44,-1.62 5.19,-7.34 3.42,1.64 2.1,0.56 5.91,1.61 7.83,2.15 17.97,8.1 28.43,8.75 16.72,1.05 8.39,5.46 19.3,8.7 6.15,1.83 5.4,-0.58 11.21,1.11 8.46,2.48 8.65,9.92 17.75,13.62zm-659.66 59.9l0 0.18c0,4.58 16.11,14.59 19.62,16.68 5.74,3.41 24.19,15.07 24.19,2.1 0,-2.85 -5.56,-6.65 -11.71,-13.32l-2.56 -2.44c-8.08,-8.13 -7.73,-15.59 -22.03,-16.78 -1.22,2.31 -1.78,4.6 -3.04,6.97l-2.07 2.94c-1.43,1.94 -2.37,-0.06 -2.41,3.67zm816.13 3.93c6.32,0 4.81,-9.63 -1.75,-12.02l-9.51 -4.26c-1.93,2.87 -2.09,1.63 -2.02,4.63 0.15,6.18 5.91,11.64 13.28,11.64zm-77.61 -67.59c0,4.48 0.93,1.96 6.8,5.72 4.73,3.03 2.32,3.8 8.22,4.3 -0.06,-2.44 0.29,-2.22 -0.53,-4.48 -3.24,-8.87 -14.49,-10.1 -14.49,-5.54zm-28.79 1.26c0,10.87 9.05,6.48 10.02,6.26 -0.07,-3.13 -0.06,-4.5 -1.25,-6.26 -1.98,-2.94 -8.76,-6.72 -8.76,0zm46.32 142.7l2.5 3.76c10.25,0 7.83,-6.17 7.51,-10.01 -7.73,0 -6.7,-0.02 -10.01,6.26zm31.29 75.11c3,4.47 1.91,3.75 8.76,3.75 0.88,-3.31 -0.1,-1.03 1.25,-3.75 -2.43,-3.31 -3.13,-3.63 -8.76,-3.76 -0.6,2.24 -0.19,2.22 -1.25,3.76zm71.35 13.77l-7.52 0c0.2,8.93 2.29,6.51 8.76,5.01l0 -3.76c9.83,0.81 10.02,5 10.02,-8.76 -8.53,-1.98 -13.46,-1.91 -11.26,7.51zm-515.71 -297.91c1.67,-7.2 2.5,-0.86 2.5,-13.77 0,-8.28 -4.41,-6.02 -7.49,-11.28 -2.95,-5.02 -1.72,-11.25 -8.78,-11.25 -18.18,0 -23.51,10.3 -13.21,19.47 12.95,11.54 7.6,16.4 26.98,16.83zm48.81 -50.07c0,16.14 0.06,10.92 5.83,16.69 4.86,4.86 8.06,14.55 9.36,20.8 1.82,8.8 7.33,2.55 7.33,1.31 0,-3 -3.2,-24.06 -6.31,-29.98 -1.96,-3.72 -4.42,-5.28 -6.58,-10.94 -1.82,-4.76 -2.22,-10.44 -3.37,-15.41 -5.49,0.46 -4.44,0.64 -5.35,5.92 -0.58,3.4 -0.91,6.82 -0.91,11.61zm-266.62 199.02c0,31.37 23.78,24.91 23.78,8.76 0,-8.12 1.92,-21.31 -12.67,-20.89 -4.74,0.13 -11.11,6.3 -11.11,12.13zm-75.11 -45.06c0,22.95 27.02,31.63 13.41,4.12 -6.37,-12.85 -13.41,-6.5 -13.41,-4.12zm-43.81 95.13l3.76 5.01 7.52 0c4.39,-5.07 3.75,-3.16 3.75,-11.27 -10.01,-5.29 -12.96,-2.59 -15.02,6.26zm47.57 2.51c0,9.14 13.77,9.02 13.77,-3.76 -4.62,-2.44 -3.81,-2.5 -10.01,-2.5 -0.65,0.96 -3.76,5.3 -3.76,6.26zm25.03 -22.54c2.43,9.1 11.27,14.26 11.27,0 -4.09,-2.16 -6.87,-4.3 -11.27,0zm0 -62.59c3.38,-0.28 3.41,-0.59 6.26,-1.25 0,-3.14 0.61,-7.51 -2.5,-7.51 -5.69,0 -4.55,5.37 -3.76,8.76zm200.28 605.84l4.73 5.29c6.81,-2.32 4.16,-0.21 7.79,-4.03 -2.87,-4.28 -3.03,-3.67 -8.76,-5.01l-3.76 3.75z"/>
   <path class="fil4" d="M4886.96 3507.18c-0.78,3.5 -0.88,1.12 0.67,4.3 3.52,7.24 12.3,12.27 17.6,16.25l30.26 24.81c21.27,19.68 40.32,43.2 56.8,67.13 1.04,1.51 1.45,2.35 2.41,3.84 12.53,19.4 35.59,60.07 36.98,80.65 0.8,11.73 -11.72,20.76 -4.71,31.02 6.8,9.94 -0.68,8.12 4.69,22.87 2.63,7.18 5.52,12.84 5.52,22.02 -4.46,2.35 -6.21,1.36 -7.52,6.26 3.24,0.75 3.86,1.35 6.57,2.19 11.44,3.54 5.02,3.31 12.52,3.56 6.22,0.2 9.61,2.26 14.19,1.31 2.66,-0.54 4.71,-2.06 6.43,-2.51 7.19,-1.9 1.35,-0.45 6,0.93 3.6,1.07 4.08,0.78 8.11,0.78 3.8,-16.31 -0.71,-18.24 -13.77,-21.28 0,-15.79 -1.41,-9.96 -2.61,-18.86 -0.01,-0.07 -0.19,-2.84 -0.19,-2.88 0.09,-7.69 3.43,-1.85 7.85,-8.3 6.58,-9.61 -3.05,-12.03 -2.67,-19.98 0.41,-8.62 13.57,-7.25 -3.91,-24.82 -10.04,-10.1 -10.88,1.04 -13.04,-10.69 -4.27,-23.31 -2.35,-20.54 -15.78,-35.6 -35.78,-40.12 -6.36,-27.61 -42.59,-60.06 -2.47,-2.21 -4.43,-3.57 -7.01,-5.51 -2.48,-1.86 -4.56,-3.85 -7.24,-5.27 -4.1,-2.17 -6.09,-1.22 -8.67,-3.85 -0.9,-0.92 -3.59,-6.67 -5,-8.78 -5.09,-7.59 -8.75,-6.67 -13.31,-11.72 -3.09,-3.44 -2.46,-5.19 -4.2,-8.33 -1.68,-3.03 -1.94,-2.11 -5.02,-4.99l-15.04 -13.75c-7.85,-6.13 -31.65,-25.32 -40.3,-29.89 -5.05,-2.67 -1.83,-1.71 -5.3,-0.87 -1.95,-4.43 -0.65,-2.94 -9.63,-7.89l-21.63 -10.91c-34.26,-15.74 -51.34,-20.27 -88.39,-28.03l-60.6 -5.74c-18.31,0.07 -22.24,2.31 -31.3,2.51 0,-8.44 -0.53,-17.7 0.68,-25.6 1.5,-9.75 2.77,-13.77 0.57,-23.22 -5.13,1.37 -5.26,3.08 -6.43,8.59l-7.34 41.48c-14.24,0 -1.17,-4.72 -13.77,-5.01 -0.67,2.86 -0.97,2.88 -1.25,6.26 -8.81,0 -14.07,2.51 -25.04,2.51 -1.5,-6.47 -3.81,-14.95 -8.76,-16.28 -1.57,6.75 1.26,8.97 1.26,18.78 -7.46,1.74 -14.31,3.47 -21.62,5.92 -50.29,16.85 -54.59,24.35 -95.23,44.96 -12.8,6.49 -48,30.13 -58.08,39.56 -10.44,9.77 -28.4,24.02 -36.8,34.54 -2.76,3.46 -3.22,4.11 -6.4,7.37 -2.9,2.98 -3.5,4.43 -6.25,7.52 -2.59,2.9 -3.79,4.58 -6.21,7.56 -8.72,10.76 -20.15,16.17 -32.28,39.07 -2.66,-1.78 -12.5,-12.61 -21.02,0.26 -2.43,3.68 -1.51,5.5 -1.51,11.01 10.07,6.74 5.1,2.05 11.27,5 -4.76,8.98 -8.07,17.05 -13.77,17.52l0 -3.75c5.44,-3.2 -5.25,-13.87 -15.71,-10.81 -6.77,1.98 -27.46,20.11 -15.39,40.64 3.57,6.07 11.19,12 19.83,12.72 -1.52,6.51 -4.82,7.81 -5.01,16.27 -6.06,0 -6.83,-0.39 -11.35,1.17 -3.46,1.19 -6.72,2.41 -8.68,5.09 1.22,4.58 1.32,2.63 3.75,6.26 4.96,0 6.17,0.37 10.37,-0.91 5.41,-1.64 3.61,-1.6 10.92,-1.6 -1.14,2.37 -3.12,7.3 -3.76,10.02 -15.88,0 -23.48,18.93 -10.02,22.53 -0.81,9.83 -2.52,0.04 -2.5,25.04 0.04,62.13 9.03,59.32 10.07,73.79 0.94,13.16 6.64,34.17 5.28,49.23 -1.85,20.5 8.77,30.46 13.78,41.86 7.41,16.83 11.04,17.68 15.89,25.43 10.87,17.4 11.28,21 26.56,43.54l18.22 23.08c6.79,7.3 23.35,27.37 30.52,33.24 4.85,3.96 -0.12,1.63 6.09,2.74 -0.54,2.43 -2.15,0.92 3.96,6.02 2.43,2.02 3.82,3.11 6.24,5.07 4.16,3.36 7.8,6.88 12.17,10.37 17.8,14.2 51.64,35.82 71.33,43.83 2.2,0.89 6.03,2.36 8.12,3.39 6.44,3.17 2.89,0.65 -0.43,5.19 9.06,2.11 40.05,17.33 48.82,17.52l0 -2.5c-3.07,-0.71 -4.38,-1.4 -7.49,-2.52l-7.2 -2.82c-5.61,-2.3 -10.13,-3.44 -12.85,-7.17 39.45,9.19 58.05,32.93 98.71,28.62 17.31,-1.84 20.59,-5.11 29.97,9.18 6.05,9.22 14.08,13.53 29,13.57 18.98,0.06 31.37,-5.43 37.19,-4.77 44.67,5.08 37.95,-8.37 42.21,-19.8 3,-8.04 8.04,-4.77 8.26,-14.28 26.9,0 48.17,-10.82 69.06,-27.32 2.8,-2.22 5.62,-5.33 8.26,-8.01 2.95,-3 4.46,-6.25 7.8,-8.47 1.17,4.37 0.48,2.81 3.76,5 16.97,-8.98 22.34,-17.12 33.27,-25.56 6.74,-5.2 9.06,-9.87 14.6,-15.43 19.22,-19.32 47.91,-73.09 62.81,-99.91 8.29,-14.91 -0.35,-2.37 11.65,-18.4l17.42 -27.64c6.16,-11.35 -0.25,-43.28 4.98,-53.85 3.31,-6.69 6.3,-14.48 6.71,-23.41 0.33,-7.07 -3.38,-30.87 -6.79,-38.19 -2.56,-5.48 -5.76,-5.56 -0.7,-9.28 1.17,5.05 2.59,8.7 7.51,10.02 8.75,-5.85 2.6,-12.58 1.83,-14.31 -2.13,-4.8 -0.04,-2.43 -3.08,-6.97l-4.61 2.9c-0.17,0.18 -0.43,0.52 -0.57,0.68l-1.08 1.43c0,-8.66 -1.33,-9.42 -2.26,-15.37 -1.57,-9.97 2.46,-8.02 2.24,-15.81l-4.2 -32.35c-1.41,-10.74 5.69,-10.36 2.23,-20.78 -1.85,-5.59 -4.67,-5.41 -4.67,-5.41 -4.43,-2.32 -2.5,1.8 -4.61,-4.15 -0.26,-0.74 -1.23,-5.44 -1.68,-7.08 -1.43,-5.17 -2.61,-10.09 -4.58,-14.19 8.59,-5.75 8.76,-7.88 8.76,-13.77 -6.26,-3.31 -7.71,-4.06 -13.77,0 -8.33,-17.37 -12.89,-32.22 -25.78,-51.83 -12.81,-19.49 -15.97,-26.24 -32.19,-45.43 -7.4,-8.75 -24.28,-28.17 -32.53,-35.06l-15.35 -13.45c-4.26,-3.19 -7.53,-5.36 -11.63,-8.39 -3.95,-2.92 -7.62,-5.54 -11.7,-8.32 -8.77,-5.99 -7.43,-7.59 -12.27,-6.52 -2.13,-5.23 -0.82,-3.45 -9.77,-9l-33.86 -18.71c-4.27,-1.72 -7.11,-3.37 -12.15,-5.37 -4.78,-1.89 -7.73,-3.06 -12.52,-5 -4.73,-1.91 -8.11,-3.04 -12.89,-4.63 -6.52,-2.17 -9.15,-1.77 -12.69,-4.84 10.08,0 22.13,5.85 31.11,3.58 6.45,-1.63 2.44,-1.62 5.19,-7.34 3.42,1.64 2.1,0.56 5.91,1.61 7.83,2.15 17.97,8.1 28.43,8.75 16.72,1.05 8.39,5.46 19.3,8.7 6.15,1.83 5.4,-0.58 11.21,1.11 8.46,2.48 8.65,9.92 17.75,13.62zm-380.52 653.4l4.73 5.29c6.81,-2.32 4.16,-0.21 7.79,-4.03 -2.87,-4.28 -3.03,-3.67 -8.76,-5.01l-3.76 3.75zm-200.28 -605.84c3.38,-0.28 3.41,-0.59 6.26,-1.25 0,-3.14 0.61,-7.51 -2.5,-7.51 -5.69,0 -4.55,5.37 -3.76,8.76zm0 62.59c2.43,9.1 11.27,14.26 11.27,0 -4.09,-2.16 -6.87,-4.3 -11.27,0zm-25.03 22.54c0,9.14 13.77,9.02 13.77,-3.76 -4.62,-2.44 -3.81,-2.5 -10.01,-2.5 -0.65,0.96 -3.76,5.3 -3.76,6.26zm-47.57 -2.51l3.76 5.01 7.52 0c4.39,-5.07 3.75,-3.16 3.75,-11.27 -10.01,-5.29 -12.96,-2.59 -15.02,6.26zm43.81 -95.13c0,22.95 27.02,31.63 13.41,4.12 -6.37,-12.85 -13.41,-6.5 -13.41,-4.12zm75.11 45.06c0,31.37 23.78,24.91 23.78,8.76 0,-8.12 1.92,-21.31 -12.67,-20.89 -4.74,0.13 -11.11,6.3 -11.11,12.13zm-125.18 -20.02c0,4.58 16.11,14.59 19.62,16.68 5.74,3.41 24.19,15.07 24.19,2.1 0,-2.85 -5.56,-6.65 -11.71,-13.32l-2.56 -2.44c-8.08,-8.13 -7.73,-15.59 -22.03,-16.78 -1.22,2.31 -1.78,4.6 -3.04,6.97l-2.07 2.94c-1.45,1.97 -2.41,-0.12 -2.41,3.85zm391.8 -179c0,16.14 0.06,10.92 5.83,16.69 4.86,4.86 8.06,14.55 9.36,20.8 1.82,8.8 7.33,2.55 7.33,1.31 0,-3 -3.2,-24.06 -6.31,-29.98 -1.96,-3.72 -4.42,-5.28 -6.58,-10.94 -1.82,-4.76 -2.22,-10.44 -3.37,-15.41 -5.49,0.46 -4.44,0.64 -5.35,5.92 -0.58,3.4 -0.91,6.82 -0.91,11.61zm-48.81 50.07c1.67,-7.2 2.5,-0.86 2.5,-13.77 0,-8.28 -4.41,-6.02 -7.49,-11.28 -2.95,-5.02 -1.72,-11.25 -8.78,-11.25 -18.18,0 -23.51,10.3 -13.21,19.47 12.95,11.54 7.6,16.4 26.98,16.83zm515.71 297.91l-7.52 0c0.2,8.93 2.29,6.51 8.76,5.01l0 -3.76c9.83,0.81 10.02,5 10.02,-8.76 -8.53,-1.98 -13.46,-1.91 -11.26,7.51zm-71.35 -13.77c3,4.47 1.91,3.75 8.76,3.75 0.88,-3.31 -0.1,-1.03 1.25,-3.75 -2.43,-3.31 -3.13,-3.63 -8.76,-3.76 -0.6,2.24 -0.19,2.22 -1.25,3.76zm-31.29 -75.11l2.5 3.76c10.25,0 7.83,-6.17 7.51,-10.01 -7.73,0 -6.7,-0.02 -10.01,6.26zm-46.32 -142.7c0,10.87 9.05,6.48 10.02,6.26 -0.07,-3.13 -0.06,-4.5 -1.25,-6.26 -1.98,-2.94 -8.76,-6.72 -8.76,0zm28.79 -1.26c0,4.48 0.93,1.96 6.8,5.72 4.73,3.03 2.32,3.8 8.22,4.3 -0.06,-2.44 0.29,-2.22 -0.53,-4.48 -3.24,-8.87 -14.49,-10.1 -14.49,-5.54zm77.61 67.59c6.32,0 4.81,-9.63 -1.75,-12.02l-9.51 -4.26c-1.93,2.87 -2.09,1.63 -2.02,4.63 0.15,6.18 5.91,11.64 13.28,11.64zm-688.79 121.83c1.46,-1.29 0.7,-0.46 2.12,-2.26 3.42,-4.32 1.98,-4.32 5.76,-7.31 -2.38,14.87 -11.07,34.76 -16.28,70.86 -5.32,36.83 -1.84,59.75 -4.61,82.42 -1.55,12.69 4.47,67.64 9.59,77.33 7.29,13.76 7.91,-8.89 12.75,31.07 0.79,6.55 4.92,31.78 16.61,24.83 15.66,31.3 4.15,31.02 31.55,62.24 5.56,6.34 22.27,22.93 28.94,26.79l-27.12 -44.68c-28.04,-49.68 -46.83,-104.67 -59.66,-161.76 -13.8,-61.43 2.44,-125.57 30.18,-179.31 4.33,-8.4 23.24,-38.4 32.87,-40.48 1.6,-3.7 8,-7.66 12.49,-10.48 17.21,-10.81 -1.79,-20.03 10.24,-31.08 10.46,-9.61 23.48,-17.56 24.77,-19.04 12.15,-13.78 16.57,-11.93 31.88,-31.89 16.98,3.74 8.47,-4.56 20.71,-9.4 11.92,-4.7 13.02,-6.14 21.84,-13.2 12.57,-10.05 7.31,-8.02 27.3,-7.94 6.63,0.02 10.01,-1.82 14.8,-1.72 9.23,0.2 4.56,1.16 12.55,-1.77 9.69,-14.24 5.47,-10.23 27.63,-13.74 9.21,-1.45 8.73,0.21 16.52,0.77 8.15,0.58 10.35,-3.44 18.96,0.19 3.41,-1.3 54.9,-8.57 71.41,-1.48 2.39,1.03 7.7,4.07 9,4.33 3.42,0.67 4.09,-1.68 9.35,-2.62 15.32,-2.76 49,10.57 63.87,17.44 7.05,3.26 13.81,4.16 21.88,5.92 0.55,5.03 -0.73,6.03 4.05,9.38 5.48,3.83 8.76,2 15.31,2.09 2.93,2.31 4.8,3.28 8.43,5.4 6.89,4.03 2.26,2.84 6.81,7.01 3.87,3.55 12.37,7 16.67,10.84 2.65,-0.9 1.94,-2.3 5.52,-3.02l24.08 27.29c3.2,3.2 6.06,3.49 7.89,8.38 2.09,5.59 0.46,10.24 2.75,14.67 0.87,1.68 5.93,6.46 7.72,8.66 4.22,5.17 11.25,12.66 14.16,18.64 -5.43,-3.13 -9.16,-8.31 -13.88,-12.68 -21.86,-20.22 -1.72,-11.74 -18.29,-34.27 -3.38,-4.59 -7.66,-12.06 -14.89,-10.17l28.21 44.42c3.43,3.43 6.66,5.19 9.8,8.98 2.02,2.44 17.71,28.3 21.59,20.68 1.77,-3.46 -1.28,-1.93 -0.17,-4.67 12.43,6.43 13.06,20.33 22.01,30.68 2.8,3.23 6.13,4.93 7.85,8.42 2.34,4.73 0.65,9.19 3.57,13.95 2.64,4.3 5.75,4.2 7.9,8.48 4.68,9.3 -6.81,12.27 -7.06,23.81l3.28 2.46c3.87,-1.46 3.15,-2.68 3.57,-2.67l0.9 1.83c0.09,0.3 0.25,0.65 0.33,1 0.09,0.37 0.16,0.69 0.22,1.08 0.65,4.12 -0.9,5.99 0.94,12.73 1.29,4.73 2.22,11.63 3.2,16.12 8.73,40.06 7.85,62.01 6.22,103.77 -1.24,31.41 -16.35,102.35 -34.76,116.07 -3.59,5.93 -14.29,9.52 -23.44,22.66l-15.22 29.91c-7.07,16.74 4.63,14.44 -15.85,29.08 -7.87,5.63 -4.61,6.97 -8.96,13.59 -1.73,2.63 -8.97,8.84 -11.43,10.82 -6.5,-6.67 -9.54,-0.96 -14.62,2.07 -5.11,-6.31 -10.16,-10.75 -16.9,-0.7 -5.17,7.71 -10.17,2.88 -18.62,8.81 -10.31,7.23 -5.33,9.17 -14.72,14.13 -10.59,5.59 -12.02,-0.48 -21.11,-1.6 -8.88,4.63 -6.79,10.18 -14.2,12.35 -9.23,2.7 -11.59,5.16 -16.48,7.69l-5.35 -5.77c-7.14,0.86 -11.71,-1.39 -16.7,-3.62 -20.72,-4.52 -21.3,7.4 -30.37,15.66 -11.84,10.77 -19.93,-0.67 -37.09,-1.03 -19.01,-0.4 -14.27,15.99 -25.84,23.19 -7.99,4.97 -35,1.08 -46.13,0.11l6.35 -2.99c-6.27,-2.37 -6.4,2.57 -15.61,2.96l-30.91 -2.19c-7.4,-2.49 -0.76,-5.86 -26.51,-1.79 -25.24,3.98 -45.89,-11.8 -62.58,-19.67 8.71,2.41 21.13,14.14 30.38,5.34 -3.77,-3.2 -7.28,-4.26 -12.24,-6.82 -7.49,-3.87 -9.45,-3.96 -12.19,-8.6 -9.03,-6.39 -9.66,1.57 -17.91,-6.43 -1.62,-1.56 -4.97,-5.65 -8.08,-2.63 -2.89,2.8 0.83,5.8 2.39,8.79 -7.21,-2.57 -21.5,-13.55 -27.46,-18.04l-24.8 -20.21c-3.59,-4.63 -5.97,-2.88 -7.02,-9.56 -3.71,-23.63 1.98,-19.8 -22.77,-42.01l-36.41 -44.96c-5.32,-8.81 -3.46,-29.15 -16.97,-48.11 -3.09,-4.34 -9.72,-14.62 -11.26,-20 -9.62,-33.76 -2.36,-84.09 1.34,-119.02 2.75,-25.91 7.56,-57.65 15.35,-82.31 1.84,-5.83 7.77,-18.9 8.09,-22.48z"/>
   <path class="fil5" d="M4888 3873.59l-0.73 11.52c5.54,0.1 6.9,2.08 7.71,6.65 0.63,3.58 2.07,10.86 2.13,13.47 -2.94,4.81 -6.22,4.77 -6.34,11.09 -0.02,0.73 2.36,27.59 5.35,31.11 5.3,6.22 7.92,1.06 12.12,-0.6 2.89,2.08 6.39,6.15 9.24,6.91 7.7,2.06 7.35,-3.21 11.15,-5.62 8.15,-5.17 14.55,7.93 24.68,5.76 0.15,-0.08 10.91,-8.66 -4.45,-14.15 -4.45,-1.59 -5.13,-1.59 -7.91,-4.44 4.2,-5.64 5.4,0.4 6.95,-6.26 -6.04,-5.72 -13.24,0.1 -20.25,-6.87 -4.71,-4.67 -6.85,-13.34 -3.38,-19.38 3.62,2.1 5.77,5.72 8.93,8.8 3.4,3.31 6.6,5.66 10.56,8.23 11.54,7.49 18.44,3.56 27.93,7.95 -0.62,6.48 -2.42,6.02 -3.85,11.56 12.21,3.41 8.55,5.54 6.11,14.26 -2.35,8.41 1.2,2.85 2.19,10.54 0.53,4.23 -0.87,7.01 0.36,12.11 18.42,-13.71 33.53,-84.65 34.76,-116.07 1.64,-41.76 2.51,-63.71 -6.22,-103.77 -0.98,-4.5 -1.91,-11.39 -3.2,-16.12 -1.84,-6.74 -0.29,-8.61 -0.94,-12.73 -0.07,-0.4 -0.14,-0.71 -0.22,-1.08 -0.08,-0.35 -0.24,-0.7 -0.33,-1l-0.9 -1.83c-0.42,-0.02 0.3,1.2 -3.57,2.67l-3.28 -2.46c-14.92,2.26 -22.06,11.64 -31.11,18.09 -19.2,13.7 -26.46,-5.22 -25.48,-13.06 11.65,-6.96 14.89,8.76 21.82,0.5 5.54,-5.95 -6.74,-14.88 -11.11,-16.6 -11.47,-4.52 -13.74,-0.57 -16.28,-15 -1.53,-8.66 -1.8,-18.48 -6.02,-25.26 -4.47,-7.16 -13.17,-9.21 -20.71,-3.5 -3.11,17.01 11.62,26.3 0.69,38.15 -11.45,0.23 -14.64,-11.08 -22.72,-13.31 -5.94,-1.63 -11.56,0.83 -14.5,3.91 -6.14,6.44 -1.2,6.43 0.8,10.96 -12.34,12.91 -35.44,13.28 -22.47,28.95 5.19,6.28 2.68,5.95 5.84,12.93 14.56,1.84 10.36,-12.52 18.35,-21.6 5.94,-6.76 16.97,-14.24 26.94,-6.3 0.52,7.54 -2.2,9.41 -2.87,15.54l10.74 1.76c0.75,10.38 -7.06,5.98 -20.47,9.67 -9.64,2.65 -9.84,7.81 -14.86,13.67 -10.49,0.98 -20.01,-2.48 -23.56,-10.76 -2.51,-5.84 -8.87,-17.05 -17.14,-13.81 -4.17,9.24 3.98,21.46 0.13,30.35 -6.59,8.85 -11.02,-2.33 -19.09,-1.65 -3.49,0.3 -7.64,3.26 -8.52,5.8 -2.68,7.73 2.02,3.37 4.27,8.05 -3.11,3.57 -5.96,4.52 -7.93,6.74 -3.48,3.91 -0.45,0.61 -2.41,5.18 -3.77,8.8 -12.2,4.56 -23.49,12.73 -5.39,3.91 -24.89,24.63 -21.49,34.68 25.54,4.62 24.99,-33.35 48.61,-35.96 0.04,4.7 0.69,6.19 2.27,8.83 11.98,1.03 13.59,-8.66 21.07,-12.53 6.96,3.59 -1.02,2.79 6.26,4.21 4.97,-5.58 -1.33,-5.63 6.26,-6.1 3.09,4.51 1.63,21.9 1.5,28.61 -0.31,15.98 -9.2,11.16 -8.36,19.29 12.81,2.41 26.54,-7.1 25.07,-18.99 -1.01,-8.08 -19.48,-25.53 -0.63,-26.67 0.33,5.32 -0.32,13.25 1.28,17.52 1.71,4.55 4.72,4.93 8.63,8.48 1.39,16.87 -11.69,15.64 -5.31,31.57 24.14,1.94 1.62,-19.36 17.78,-21.05 0.38,7.32 -3.77,11.53 0.06,17.31 6.98,3.28 5.75,-3.92 8.8,-8.42l5.76 0.19c-0.19,2.16 -1.39,6.21 -1.32,6.95 0.54,5.46 -0.18,-1.52 3.14,5.04 0.39,6.48 0.15,10.19 -2.79,14.67zm-129.09 -182.41c2.85,7.49 4.97,13.26 11.08,19.36 2.58,2.57 15.26,8.01 24.54,4.59 1.92,-6.03 0.19,-7.33 -3.87,-11.43 0.94,-1.5 0.22,-0.39 1.72,-1.97 11.03,-11.63 9.71,-29.87 -5.93,-20.89 -7.53,4.32 -6.6,1.36 -11.01,-0.84 -7,-3.5 -14.09,6.26 -16.52,11.18zm15.25 67.93c4.86,2.94 11.79,7.24 19.33,5.07 1.59,-5.26 2.7,-19.08 -0.67,-23.89 -7.08,-10.09 -15.24,0.67 -15.57,4.64 -0.31,3.85 1.46,0.62 -0.28,6.49 -0.98,3.35 -1.9,3.39 -2.8,7.68zm26.59 -1.59c5.52,6.89 19.91,7.16 21.04,-2.64 0.63,-5.5 -1.96,-8.81 -3.95,-13.26 -3.38,-7.54 -0.47,-9.6 -2.13,-15.33 -3.18,-11.04 -16.99,2.09 -18.64,7.96 -2.87,10.16 2.97,6.13 6.11,10.8 3.08,4.59 -2.15,5.67 -2.43,12.48z"/>
   <path class="fil6" d="M4511.65 3817.28c6.09,7.04 1.43,8.26 1.45,16.1 5.72,0.2 9.34,-0.93 13.65,1.39 11.62,10.96 -6.17,22.02 -15.73,24.93 3.6,12.71 1.68,16.39 -4.07,25.99 -8.54,14.26 -2.77,14.69 2.17,22.03 -5.96,18.21 -26.94,-3.57 -26.57,19 16.78,-0.5 28.68,-21.13 36.46,4.67 6.23,-0.19 7.46,-0.2 11.11,2.44 -0.55,7.37 -1.26,2.63 -3.74,6.32 -3.99,5.94 1.85,14.98 -9.35,20.76 -9.01,4.66 -5.28,1.81 -9.73,10.31 -3.24,6.19 -6.53,3.11 -14.48,4.15 -0.95,6.44 1.69,9.16 2.43,14.96 -0.23,0.11 -0.62,0.15 -0.73,0.2 -0.11,0.04 -0.57,0.17 -0.69,0.23 -0.11,0.06 -0.5,0.21 -0.61,0.28 -2,1.3 -0.89,1.62 -2.85,4.35 -3.48,4.82 -4.85,1.5 -8.27,10.43l-0.58 1.54c-1.27,4.92 1.32,2.48 -1.41,9.22l-8.69 25.28c-0.12,0.38 -0.46,1.41 -0.57,1.79l-0.83 2.83c-0.82,2.48 -0.21,1.9 -1.56,3.93 2.59,3 2.34,1.31 4.33,5 -2.95,5.61 -2.58,0.24 -5.33,6.26 2.89,5.39 8.73,10.76 9.06,18.75 0.43,10.31 -3.69,18.59 10,17.5 8.05,-11.34 1.37,-17.61 4.61,-28.01 0.69,-2.2 9.95,-15.45 14.44,-17.43 2.48,3.81 3.49,7.38 8.62,9.35 -0.44,-10.89 -9.2,-7.2 -1.07,-21 3.3,-5.61 2.35,-3.09 7.12,-6.67 3.16,-2.37 2.78,-3.46 6.21,-5.93 6.14,0.83 4.35,3.66 11.27,3.28 8.11,-8.49 -2.7,-12.85 18.48,-18.91l16.94 -1.8c6,-0.57 7.72,2.02 14.37,1.57l0.52 -8.53c13.05,1.31 1.66,-7.59 11.11,-18.19 13.36,1.09 6.41,11.51 11.17,20.99 11.9,-3.41 -5.31,-20.29 6.83,-33.28 11.13,-11.91 14.4,-4.81 14.48,-27.21 4.12,-4.11 7.63,-4.89 8.5,-10.93 -5.18,-4.68 -7.03,-1.92 -12.13,-5.01 -0.08,-7.56 0.87,-3.96 5.72,-7.51 -0.93,-4.89 -2.65,-5.46 -6.71,-7.91 -4.77,-2.88 -4.11,-3.67 -6.69,-8.39l-9.58 -2.47c-1.29,-14.51 11.44,-5.06 12.06,-18.9 -8.67,-0.29 -10.03,1.83 -15.68,-2.8 -1.72,-10.53 4.56,-7.86 8.43,-14.61 -3.46,-1.7 -4.57,-0.54 -8.38,-3.05 -1.57,-16.15 26.98,-3.06 21.01,-21.06 -18.89,-6 -40,22.7 -41.66,-4.31 -7.47,-0.4 -13.24,-0.65 -17.32,-5.36 -5.23,1.91 -0.79,2.09 -7.69,3.02l-0.7 -2.16c-4.57,-15.49 -13.05,-1.63 -23.09,-6 -3.51,-2.9 -1.17,-2.35 -4.96,-4.97 -12.38,-8.57 -4.35,-8.15 -5.76,-21.72l-5.76 -0.44c-2.85,9.48 -6.35,10.2 -9.61,15.68z"/>
   <path class="fil7" d="M4446.93 3649.72c0.65,13.99 4.69,16.31 -4.14,30.39 -5.41,8.61 -12.14,12.5 -23.64,16.26 -3.39,13.4 -0.82,13.04 10.93,16.35 1.94,3.51 1.17,2.07 -0.39,6.26 17.16,0.38 4.23,1.69 17.68,5.04 1.9,8.13 -0.62,5.31 4.84,8.02 0.26,0.13 0.76,0.24 1.09,0.45l-3.59 9.9c0.46,0.37 0.85,0.35 0.94,0.76l1.84 2.05c1.68,2.67 0.94,-2.14 1.23,3.49 0.24,4.67 -1.91,3.81 -1.36,9.87 13.41,1.09 2.44,-6 15.86,-0.53 -2.12,6.04 -0.26,3.89 -0.1,7.19 0.29,5.61 -2.8,2.46 -1.2,9.12 2.57,10.76 9.35,5.95 16.15,10.3 5.61,11.26 -11.37,14.85 -6.69,23.8 9.37,-0.55 2.61,-8.93 10.02,-15.47 8.18,-0.59 -0.26,-0.09 3.82,0.81 8.72,1.93 3.27,-2.35 11.56,0.88 4.78,12.08 -6.33,22.55 9.86,22.63 3.25,-5.48 6.75,-6.19 9.6,-15.68 -5.45,-3.54 -1,-10 -4.95,-16.33 -1.57,-2.53 -3.24,-3.35 -7.04,-4.25 -4.89,-1.16 -5.53,-0.1 -9.42,-2.22 -0.62,-11.84 2.7,-15.01 5.23,-24 10.59,-0.89 27.04,0.02 33.47,5.65 12.3,10.76 3.01,22.8 16.37,21.74l-4.65 -16.31c4.31,-2.97 5.68,-4.96 8.93,-8.21 4.64,-4.64 6.07,-2.34 13.6,-3.94 11.1,-29.93 9.05,-14.07 31.68,-22.95 0.16,-0.35 0.3,-1.28 0.35,-1.1 0.06,0.18 0.26,-0.81 0.34,-1.09 0.07,-0.27 0.22,-0.75 0.31,-1.07 2.65,-9.51 8.17,-13.13 21.51,-18.4 16.96,-6.69 16.87,10.24 29.66,12.02 10.17,-11.33 0.7,-22.68 -3.31,-32.82 -2.94,-7.42 -1.15,-12.26 -2.87,-18.51 -2.04,-7.38 -6.01,-7.1 -13.12,-9.49 -1.51,-7.01 0.05,-11.85 -9.43,-12.27 -8.19,-0.36 -12.11,3.06 -20.59,1.03l-1.73 -9.96c-0.06,-0.26 -0.14,-0.71 -0.28,-1.04 -21.96,0.15 -6.68,38.26 -23.78,37.98 -6.58,-9.09 4.3,-2.06 -3.76,-22.69 -11.58,-0.49 -13.61,0.73 -14.77,-11.02 -4.88,-0.11 -11.3,1.06 -12.76,-2.16 -0.2,-7.56 1.78,-9.04 7.6,-11.47 7.71,-3.23 8.39,-1.15 11.24,-8.39 0.02,-0 12.68,-12.27 19.12,-0.94 0.94,1.65 0.69,1.91 1.51,3.49 0.83,1.61 -0.41,-0.37 0.92,1.66 5.98,9.15 11.61,-8.61 13.29,-12.43 4.69,-10.64 0.69,-19.02 6.01,-21.64 4.35,-1.15 6.24,0.83 8.78,4.67 13.72,20.76 0.5,14.73 -8.86,27.18 2.6,17.51 11.22,-1.14 24.14,16.37 2.25,3.06 6.73,8.67 10.55,9.85 10.55,3.26 10.78,-3.84 6.39,-9.82 10.18,-5.81 10.18,-10.58 3.56,-21.13 3.13,-4.73 4.93,-1.36 4.87,-8.97 -0.09,-12.59 -10.76,-9.17 -12.75,-15.43 -1.68,-5.29 1.35,-5.62 1.9,-10.31 -3.32,-2.5 -7.74,-3.47 -12.91,-4.7l2.33 -10.44c-8.89,-0.5 -10.83,-0.41 -11.59,-8.85l-9 -1.02c-1.42,-3.65 -1.76,-4.4 -1.06,-8.69 17.58,-9.43 21.22,15.91 35.54,-13.04 8.79,-17.76 35.91,3.94 38.83,-16.45 -6.54,-8.09 -14.18,-4.3 -21.59,-8.5 -5.19,-2.95 -1.21,-6.05 -12.01,-17.91 -8.61,-3.63 -10.81,0.39 -18.96,-0.19 -7.79,-0.56 -7.31,-2.22 -16.52,-0.77 -22.17,3.5 -17.95,-0.5 -27.63,13.74 -7.99,2.93 -3.32,1.97 -12.55,1.77 -4.79,-0.1 -8.17,1.74 -14.8,1.72 -19.98,-0.08 -14.72,-2.11 -27.3,7.94 -8.83,7.06 -9.92,8.49 -21.84,13.2 -12.24,4.84 -3.73,13.14 -20.71,9.4 -15.31,19.96 -19.73,18.11 -31.88,31.89 -1.3,1.48 -14.31,9.43 -24.77,19.04 -12.03,11.06 6.97,20.27 -10.24,31.08 -4.49,2.82 -10.89,6.79 -12.49,10.48 9.42,2.71 12.36,-9.61 19.3,-3 4.02,6.98 -3.95,4.63 1.78,11.88 0.82,1.04 7.22,7.33 8.51,8.26z"/>
   <path class="fil8" d="M4777.24 3984.39c-2.4,9.23 -4.09,6.34 -7.07,13.46 2.72,4.96 2.62,0.8 3.62,6.26 -6.18,9.09 -11.51,5.11 -7.92,18.5 2.92,10.85 -7.35,8.21 -12.4,15.3 1.27,3.43 -0.32,-0.52 3.53,3.63 13.72,14.78 -2.7,13.4 3.13,25.34 2,4.1 2.39,4.4 6.98,5.82 5.67,1.75 6.2,0.61 8.6,4.17 7.85,11.64 -8.94,14.62 -12.82,38.76 4.98,2.22 9.56,4.48 16.7,3.62 2.09,-9.04 2.51,-30.45 14.05,-35.37 1.19,5.26 -0.51,14.61 1.95,19.25 13,2.22 4.26,-12.58 6.2,-20.07 1.56,-6.03 3.57,-1.69 8.56,-2.71 5.11,-1.04 4.09,-4.43 5.63,-9.56 12.78,-3.09 9.65,-1.26 9.7,-15.34l7.45 -4.09 3.54 3.33c0.2,0.2 0.56,0.55 0.74,0.71 0.17,0.16 0.47,0.5 0.74,0.71l0.63 -3.33c1.89,-12.85 4.02,-7.26 11.19,-13.08 6.85,-5.57 15.87,-4.61 14.45,-14.04 -1.1,-7.3 -18.58,-11.91 -0.13,-16.76 7.57,-1.99 3.49,-1.1 7.17,-6.47 4.82,-7.06 12.17,-0.8 15.19,-12.52 2.93,-11.33 -1.63,-13.08 12.57,-14.98 8.67,-1.16 17.3,-1.7 16.47,-10.86 -9.02,-6.18 -14.09,3.75 -26.07,-7.51 -0.52,-11.11 2.46,-4.44 -1.64,-17.13 -2.5,-7.7 -1.34,-9.54 -5.42,-15.52 -3.6,-7.64 -6.35,-10.63 -5.91,-21.2 0.41,-10.14 3.36,-14.73 10.63,-17.59l0.73 -11.52 -12.55 -1.61c-2.97,-3.36 -13.68,-5.73 -23.89,-11.49 -16,-9 -16.57,-2.78 -28.72,-6.41 -11.39,-3.41 -3.97,-18.85 -10.5,-24.42 -3.9,-3.33 -18.12,-12 -22.93,-8.23 -2.72,3.65 -1.27,7.84 -2.3,12.89 -9.91,5.88 -10.13,0.76 -21.51,10.87 -7.89,7.01 -13.07,7.65 -24.76,4.7 -27.07,-6.82 -19.13,-12.09 -36.1,-29.05 -18.3,-18.3 -36.81,2.26 -25.48,17.95 9.48,13.13 37.91,9.27 37.54,28.02 -2.63,1.96 -4.32,3.44 -8.14,4.08 -6.11,1.03 -7.24,-1.54 -9.23,3.02 1.26,3.31 -1.51,2.06 4.7,3 1.37,0.2 5.4,-0.08 7.56,0.07l-3.69 11.25 11.69 0.16c1.25,10.21 -8.62,18.35 1.49,22.34 10.42,4.1 6.4,-2.46 10.22,9.45l6.62 8.96c2.44,1.22 26.72,-2.43 33.56,3.86 0.27,0.24 1.07,1.27 1.25,1.48l1.16 1.68c-0.13,7.43 1.68,9.69 -0.8,17.36 -4.99,5.23 -1.38,5.3 -2.33,10.95 -1.56,9.21 -4.24,1.64 -5.08,11.06 5.16,4.85 4.14,-1 10.85,7.98 0.14,0.2 0.37,0.61 0.61,0.85zm100.28 81.06c1.63,-13.02 13.11,-11.46 17.69,-17.52 -3.05,-4.12 -7.74,-2.76 -14.11,-4.3 -2.21,-4.01 -1.91,-8.49 -9.06,-7.9 -3.41,0.28 -6.37,3.65 -11.44,5.86 -27.48,11.99 -4.22,25.97 12.64,32.64 4.37,1.73 11.01,4.81 12.69,-0.21 2.11,-6.34 -4.38,-6.56 -8.39,-8.57z"/>
   <path class="fil9" d="M4689.91 3579.07c4.24,3.02 0.84,-0.54 1.9,3.33 1.24,4.57 -0.75,8.19 -0.96,12.67 -0.31,6.54 2.65,9.04 4.66,13.49 -5.93,11.04 -15.54,7.04 -23.06,12.04 -2.8,1.85 -6.33,8.87 -0.48,11.53 4.04,1.84 11.85,-0.46 15.99,-0.99 0.62,11.31 -5.48,13.5 -4.79,23.68l5.7 2.36c1.4,34.06 2.43,20.09 12.29,27.04 4.14,2.92 -0.93,3.47 8.28,3.54 2.66,-9.51 2.06,-14.37 8.24,-21.44 13.89,-1.69 8.56,3.11 17.81,3.89 4.21,-2.34 4.22,-4.7 7,-8.28 7.92,-0.77 3.51,2.79 10.43,-2.08 3.58,-2.53 5.7,-3.35 11.38,-3.96 16.41,-1.76 13.45,2.44 15.52,-14.23 13.03,-3.84 15.48,17.68 28.04,8.01 4.26,-3.29 3.74,-11.22 0.33,-14.92 -3.49,-3.79 -11.2,-4.7 -7.9,-11.35 4.15,-4.86 11.16,-2.58 18.48,-1.71 -0.23,-4.87 0.4,-5.25 -2.54,-8.79l-5.77 -5.59c4.49,-4.54 7.31,-5.2 12.38,-9.08 8.4,-6.42 0.48,-7.67 0.49,-13.32 13.12,-7.03 18.85,8.23 32.34,6.03 6.87,-5.62 9.87,-14.87 -0.56,-19.42 -4.58,-1.99 -21.31,-5.67 -26.52,-6.68 -7.74,-12.77 9.5,-14.53 2.05,-25.12 -11.73,-6.23 -7.83,12.26 -19.54,9.56 -2.52,-7.78 0.7,-9.93 -2.58,-17.41 -16.8,-5.04 -11.67,16.78 -21.68,6.73 -10.7,-10.75 -3.18,0.76 -30.05,-4.07 -2.36,3.88 -0.64,2.63 -3.76,5.51 -13.81,-6.42 -0.85,-38.05 -22.52,-36.36 -4.66,6.07 -2.94,16.44 -9.26,18.15 -12.27,3.31 -2.07,-12.31 -15.73,-10.69 0.05,15.74 1.34,6.16 -9.5,17.89 -3.64,3.94 -4.85,4.81 -9.48,8.04 -17.6,12.28 -30.7,13.89 -33.72,18.89 -2.85,4.71 -1.56,11.18 1.22,13.93 8.24,8.15 14.96,-4.48 26.62,-4.08 -0.49,8.11 -4.05,8.93 -3.5,15.95 5.19,0.42 9.78,0.47 12.75,-2.69z"/>
  </g>
 </g>
</svg>
