<svg xmlns="http://www.w3.org/2000/svg" xmlns:xlink="http://www.w3.org/1999/xlink" width="50" zoomAndPan="magnify" viewBox="0 0 37.5 37.499999" height="50" preserveAspectRatio="xMidYMid meet" version="1.2"><defs><clipPath id="ac43a4f3e0"><path d="M 0.75 1.550781 L 36.277344 1.550781 L 36.277344 35.59375 L 0.75 35.59375 Z M 0.75 1.550781 "/></clipPath></defs><g id="75f2157072"><g clip-rule="nonzero" clip-path="url(#ac43a4f3e0)"><path style=" stroke:none;fill-rule:nonzero;fill:#090d14;fill-opacity:1;" d="M 33.476562 8.910156 C 33.761719 8.621094 34.058594 8.320312 34.34375 8.023438 C 35.410156 6.914062 36.25 6.035156 35.847656 4.117188 C 35.839844 4.078125 35.808594 4.042969 35.765625 4.035156 C 35.320312 3.910156 34.902344 3.859375 34.527344 3.882812 C 33.507812 3.960938 32.964844 4.332031 32.320312 4.988281 L 31.65625 5.664062 C 31.457031 5.867188 31.257812 6.070312 31.054688 6.269531 C 31.039062 6.289062 31.023438 6.304688 31.003906 6.320312 C 27.953125 3.367188 23.800781 1.546875 19.234375 1.546875 C 14.097656 1.546875 9.484375 3.851562 6.371094 7.484375 C 6.355469 7.492188 6.339844 7.503906 6.332031 7.519531 C 6.328125 7.523438 6.328125 7.53125 6.328125 7.535156 C 3.796875 10.507812 2.269531 14.363281 2.269531 18.566406 C 2.269531 20.046875 2.460938 21.480469 2.8125 22.847656 C 1.550781 24.203125 0.777344 26.019531 0.777344 28.015625 C 0.777344 32.191406 4.164062 35.589844 8.324219 35.589844 C 9.917969 35.589844 11.398438 35.089844 12.617188 34.242188 C 14.652344 35.109375 16.886719 35.589844 19.234375 35.589844 C 24.375 35.589844 28.988281 33.285156 32.101562 29.648438 C 32.113281 29.640625 32.128906 29.628906 32.136719 29.613281 C 32.140625 29.609375 32.140625 29.605469 32.140625 29.601562 C 34.671875 26.628906 36.199219 22.773438 36.199219 18.566406 C 36.199219 15.058594 35.132812 11.792969 33.3125 9.078125 C 33.367188 9.023438 33.421875 8.964844 33.476562 8.910156 Z M 17.5625 1.855469 C 15.105469 2.765625 13.007812 5.648438 11.734375 9.609375 C 9.804688 9.109375 8.058594 8.414062 6.605469 7.554688 C 9.332031 4.410156 13.203125 2.289062 17.5625 1.855469 Z M 6.457031 7.726562 C 7.933594 8.605469 9.707031 9.3125 11.664062 9.824219 C 10.875 12.351562 10.417969 15.300781 10.410156 18.457031 L 2.496094 18.457031 C 2.523438 14.371094 4.007812 10.628906 6.457031 7.726562 Z M 2.496094 18.679688 L 10.410156 18.679688 C 10.410156 19.382812 10.433594 20.074219 10.480469 20.757812 C 9.796875 20.550781 9.074219 20.441406 8.324219 20.441406 C 6.246094 20.441406 4.363281 21.289062 2.996094 22.65625 C 2.675781 21.382812 2.503906 20.050781 2.496094 18.679688 Z M 8.324219 35.363281 C 4.285156 35.363281 1 32.066406 1 28.015625 C 1 23.960938 4.285156 20.664062 8.324219 20.664062 C 12.367188 20.664062 15.652344 23.960938 15.652344 28.015625 C 15.652344 32.066406 12.367188 35.363281 8.324219 35.363281 Z M 12.832031 34.085938 C 13.378906 33.679688 13.867188 33.195312 14.285156 32.65625 C 15.257812 33.929688 16.367188 34.835938 17.5625 35.28125 C 15.902344 35.117188 14.316406 34.707031 12.832031 34.085938 Z M 19.121094 35.363281 C 17.382812 35.320312 15.765625 34.261719 14.417969 32.480469 C 15.332031 31.226562 15.875 29.683594 15.875 28.015625 C 15.875 27.597656 15.839844 27.191406 15.777344 26.796875 C 16.867188 26.675781 17.988281 26.613281 19.121094 26.609375 Z M 19.121094 26.386719 C 17.972656 26.390625 16.839844 26.453125 15.738281 26.574219 C 15.214844 23.875 13.265625 21.683594 10.710938 20.828125 C 10.660156 20.125 10.632812 19.40625 10.632812 18.679688 L 19.121094 18.679688 Z M 19.121094 18.457031 L 10.632812 18.457031 C 10.644531 15.320312 11.09375 12.382812 11.875 9.875 C 14.109375 10.4375 16.582031 10.742188 19.121094 10.75 Z M 19.121094 10.527344 C 16.605469 10.515625 14.15625 10.214844 11.941406 9.664062 C 13.449219 4.984375 16.101562 1.847656 19.121094 1.773438 Z M 31.214844 6.429688 C 31.414062 6.226562 31.617188 6.023438 31.816406 5.820312 L 32.480469 5.148438 C 33.101562 4.515625 33.589844 4.179688 34.542969 4.109375 C 34.871094 4.085938 35.242188 4.128906 35.640625 4.230469 C 35.972656 5.902344 35.332031 6.667969 34.183594 7.867188 C 33.898438 8.164062 33.605469 8.464844 33.320312 8.753906 C 32.878906 9.199219 32.421875 9.660156 31.992188 10.128906 C 31.96875 10.152344 31.957031 10.1875 31.964844 10.222656 L 33.03125 17.179688 C 33.058594 17.378906 33.089844 17.574219 33.121094 17.769531 C 33.164062 18.027344 33.207031 18.296875 33.242188 18.5625 C 32.816406 18.914062 32.445312 19.328125 32.082031 19.730469 L 32.058594 19.757812 C 31.964844 19.5625 31.859375 19.371094 31.753906 19.1875 C 31.691406 19.074219 31.628906 18.960938 31.570312 18.847656 L 29.117188 14.316406 C 29.054688 14.207031 29 14.09375 28.941406 13.984375 C 28.824219 13.761719 28.703125 13.53125 28.5625 13.3125 C 28.546875 13.285156 28.515625 13.269531 28.484375 13.265625 C 28.476562 13.261719 28.472656 13.261719 28.46875 13.261719 C 28.441406 13.261719 28.414062 13.273438 28.394531 13.292969 C 28.21875 13.449219 28.058594 13.625 27.898438 13.796875 C 27.789062 13.914062 27.679688 14.035156 27.5625 14.148438 C 26.757812 14.949219 25.515625 16.058594 24.660156 16.554688 C 24.617188 16.578125 24.597656 16.628906 24.609375 16.679688 C 24.800781 17.4375 25.03125 18.214844 25.230469 18.90625 C 25.140625 19.007812 25.042969 19.105469 24.9375 19.210938 C 24.765625 19.378906 24.589844 19.550781 24.449219 19.730469 C 24.367188 19.554688 24.269531 19.386719 24.175781 19.222656 C 24.117188 19.125 24.0625 19.027344 24.007812 18.929688 L 23.296875 17.613281 C 23.253906 17.535156 23.214844 17.457031 23.171875 17.378906 C 23.117188 17.269531 23.0625 17.160156 22.996094 17.046875 C 22.90625 16.910156 22.671875 16.785156 22.375 16.636719 C 22.296875 16.597656 22.230469 16.566406 22.183594 16.539062 L 20.171875 15.398438 C 20.316406 15.242188 20.476562 15.089844 20.628906 14.941406 C 20.71875 14.851562 20.8125 14.765625 20.898438 14.675781 C 21.179688 14.722656 21.472656 14.789062 21.753906 14.855469 C 22.132812 14.941406 22.523438 15.03125 22.890625 15.074219 C 22.933594 15.078125 22.972656 15.058594 22.996094 15.027344 C 23.0625 14.925781 23.152344 14.828125 23.234375 14.734375 C 23.265625 14.703125 23.296875 14.667969 23.324219 14.632812 L 25.636719 11.988281 C 25.722656 11.886719 25.8125 11.789062 25.898438 11.6875 C 26.222656 11.320312 26.554688 10.945312 26.859375 10.554688 C 26.878906 10.527344 26.886719 10.496094 26.882812 10.460938 C 26.875 10.429688 26.855469 10.402344 26.824219 10.386719 C 26.496094 10.207031 26.167969 10.007812 25.851562 9.816406 C 25.730469 9.746094 25.613281 9.671875 25.496094 9.601562 L 20.90625 6.832031 C 20.816406 6.777344 20.722656 6.726562 20.632812 6.671875 C 20.445312 6.5625 20.253906 6.449219 20.070312 6.332031 C 20.230469 6.1875 20.386719 6.039062 20.535156 5.890625 C 20.828125 5.617188 21.125 5.328125 21.4375 5.078125 L 30.097656 7.488281 C 30.136719 7.496094 30.179688 7.484375 30.207031 7.457031 C 30.539062 7.109375 30.882812 6.761719 31.214844 6.429688 Z M 27.773438 14.253906 C 27.875 14.152344 27.96875 14.050781 28.0625 13.949219 C 28.1875 13.816406 28.3125 13.679688 28.445312 13.550781 C 28.550781 13.726562 28.648438 13.910156 28.742188 14.089844 C 28.800781 14.203125 28.859375 14.3125 28.921875 14.421875 L 31.101562 18.457031 L 28.0625 18.457031 C 28.054688 17.003906 27.957031 15.597656 27.773438 14.253906 Z M 27.835938 18.457031 L 25.332031 18.457031 C 25.171875 17.894531 25 17.292969 24.847656 16.703125 C 25.664062 16.210938 26.785156 15.222656 27.578125 14.453125 C 27.742188 15.734375 27.832031 17.074219 27.835938 18.457031 Z M 30.847656 6.480469 C 30.597656 6.734375 30.34375 6.992188 30.09375 7.253906 L 25.101562 5.863281 C 23.9375 3.863281 22.5 2.445312 20.90625 1.855469 C 24.75 2.238281 28.210938 3.929688 30.847656 6.480469 Z M 19.347656 1.773438 C 21.425781 1.824219 23.332031 3.324219 24.808594 5.78125 L 21.445312 4.847656 C 21.410156 4.835938 21.371094 4.84375 21.34375 4.867188 C 21.007812 5.132812 20.691406 5.4375 20.382812 5.730469 C 20.199219 5.90625 20.007812 6.089844 19.816406 6.257812 C 19.789062 6.28125 19.777344 6.316406 19.777344 6.351562 C 19.78125 6.382812 19.796875 6.414062 19.828125 6.433594 C 20.050781 6.589844 20.289062 6.730469 20.519531 6.863281 C 20.609375 6.917969 20.703125 6.972656 20.792969 7.027344 L 25.382812 9.792969 C 25.433594 9.824219 25.484375 9.859375 25.539062 9.890625 C 23.59375 10.296875 21.496094 10.519531 19.347656 10.527344 Z M 19.347656 10.75 C 21.597656 10.742188 23.792969 10.503906 25.816406 10.058594 C 26.074219 10.214844 26.335938 10.371094 26.601562 10.519531 C 26.324219 10.867188 26.023438 11.207031 25.730469 11.539062 C 25.644531 11.640625 25.554688 11.738281 25.46875 11.839844 L 23.15625 14.488281 C 23.128906 14.519531 23.097656 14.554688 23.070312 14.585938 C 22.996094 14.667969 22.917969 14.753906 22.851562 14.84375 C 22.511719 14.800781 22.152344 14.71875 21.804688 14.636719 C 21.5 14.566406 21.183594 14.492188 20.878906 14.445312 C 20.84375 14.441406 20.808594 14.453125 20.78125 14.476562 C 20.679688 14.578125 20.578125 14.679688 20.472656 14.777344 C 20.285156 14.960938 20.085938 15.152344 19.910156 15.351562 C 19.886719 15.378906 19.878906 15.410156 19.882812 15.445312 C 19.886719 15.480469 19.910156 15.507812 19.9375 15.523438 L 22.070312 16.734375 C 22.121094 16.761719 22.195312 16.796875 22.277344 16.839844 C 22.453125 16.925781 22.746094 17.070312 22.804688 17.160156 C 22.863281 17.265625 22.917969 17.371094 22.972656 17.480469 C 23.015625 17.558594 23.054688 17.640625 23.097656 17.71875 L 23.496094 18.457031 L 19.347656 18.457031 Z M 19.347656 18.679688 L 23.617188 18.679688 L 23.8125 19.035156 C 23.867188 19.136719 23.921875 19.234375 23.980469 19.335938 C 24.105469 19.550781 24.234375 19.773438 24.316406 19.996094 C 24.332031 20.035156 24.367188 20.0625 24.410156 20.066406 C 24.414062 20.066406 24.417969 20.066406 24.421875 20.066406 C 24.460938 20.066406 24.496094 20.050781 24.515625 20.019531 C 24.660156 19.800781 24.878906 19.582031 25.09375 19.371094 C 25.21875 19.246094 25.335938 19.128906 25.441406 19.011719 C 25.464844 18.984375 25.476562 18.941406 25.464844 18.90625 C 25.441406 18.832031 25.421875 18.753906 25.398438 18.679688 L 27.835938 18.679688 C 27.828125 21.816406 27.375 24.75 26.59375 27.257812 C 24.359375 26.699219 21.886719 26.394531 19.347656 26.386719 Z M 19.347656 26.609375 C 21.867188 26.617188 24.3125 26.917969 26.527344 27.472656 C 25.023438 32.152344 22.371094 35.285156 19.347656 35.363281 Z M 20.90625 35.28125 C 23.363281 34.371094 25.460938 31.488281 26.738281 27.527344 C 28.664062 28.027344 30.410156 28.71875 31.863281 29.582031 C 29.136719 32.726562 25.265625 34.84375 20.90625 35.28125 Z M 32.011719 29.410156 C 30.535156 28.527344 28.765625 27.820312 26.804688 27.3125 C 27.59375 24.785156 28.050781 21.832031 28.0625 18.679688 L 31.222656 18.679688 L 31.371094 18.953125 C 31.433594 19.070312 31.496094 19.183594 31.558594 19.296875 C 31.6875 19.527344 31.820312 19.761719 31.929688 20.003906 C 31.945312 20.039062 31.976562 20.0625 32.015625 20.066406 C 32.050781 20.070312 32.089844 20.058594 32.113281 20.03125 L 32.25 19.882812 C 32.621094 19.472656 33 19.046875 33.433594 18.695312 C 33.4375 18.691406 33.441406 18.6875 33.449219 18.679688 L 35.972656 18.679688 C 35.949219 22.765625 34.460938 26.507812 32.011719 29.410156 Z M 35.972656 18.457031 L 33.453125 18.457031 C 33.417969 18.210938 33.382812 17.96875 33.34375 17.734375 C 33.3125 17.539062 33.28125 17.34375 33.253906 17.148438 L 32.191406 10.242188 C 32.503906 9.902344 32.828125 9.570312 33.152344 9.242188 C 34.914062 11.882812 35.953125 15.050781 35.972656 18.457031 Z M 35.972656 18.457031 "/></g><path style=" stroke:none;fill-rule:nonzero;fill:#090d14;fill-opacity:1;" d="M 11.46875 26.113281 L 10.21875 26.113281 L 10.21875 24.863281 C 10.21875 24.296875 9.757812 23.832031 9.195312 23.832031 L 7.457031 23.832031 C 6.890625 23.832031 6.433594 24.296875 6.433594 24.863281 L 6.433594 26.113281 L 5.183594 26.113281 C 4.621094 26.113281 4.160156 26.574219 4.160156 27.144531 L 4.160156 28.886719 C 4.160156 29.453125 4.621094 29.914062 5.183594 29.914062 L 6.433594 29.914062 L 6.433594 31.167969 C 6.433594 31.734375 6.890625 32.195312 7.457031 32.195312 L 9.195312 32.195312 C 9.757812 32.195312 10.21875 31.734375 10.21875 31.167969 L 10.21875 29.914062 L 11.46875 29.914062 C 12.03125 29.914062 12.492188 29.453125 12.492188 28.886719 L 12.492188 27.144531 C 12.492188 26.574219 12.03125 26.113281 11.46875 26.113281 Z M 12.269531 28.886719 C 12.269531 29.328125 11.910156 29.691406 11.46875 29.691406 L 10.109375 29.691406 C 10.046875 29.691406 9.996094 29.742188 9.996094 29.804688 L 9.996094 31.167969 C 9.996094 31.609375 9.636719 31.972656 9.195312 31.972656 L 7.457031 31.972656 C 7.015625 31.972656 6.65625 31.609375 6.65625 31.167969 L 6.65625 29.804688 C 6.65625 29.742188 6.605469 29.691406 6.542969 29.691406 L 5.183594 29.691406 C 4.742188 29.691406 4.382812 29.328125 4.382812 28.886719 L 4.382812 27.144531 C 4.382812 26.699219 4.742188 26.339844 5.183594 26.339844 L 6.542969 26.339844 C 6.605469 26.339844 6.65625 26.289062 6.65625 26.226562 L 6.65625 24.863281 C 6.65625 24.417969 7.015625 24.058594 7.457031 24.058594 L 9.195312 24.058594 C 9.636719 24.058594 9.996094 24.417969 9.996094 24.863281 L 9.996094 26.226562 C 9.996094 26.289062 10.046875 26.339844 10.109375 26.339844 L 11.46875 26.339844 C 11.910156 26.339844 12.269531 26.699219 12.269531 27.144531 Z M 12.269531 28.886719 "/></g></svg>