<svg xmlns="http://www.w3.org/2000/svg" xmlns:xlink="http://www.w3.org/1999/xlink" width="50" zoomAndPan="magnify" viewBox="0 0 37.5 37.499999" height="50" preserveAspectRatio="xMidYMid meet" version="1.2"><defs><clipPath id="3067788545"><path d="M 3.117188 1.09375 L 34.203125 1.09375 L 34.203125 35.878906 L 3.117188 35.878906 Z M 3.117188 1.09375 "/></clipPath></defs><g id="415ef9ec0f"><g clip-rule="nonzero" clip-path="url(#3067788545)"><path style=" stroke:none;fill-rule:evenodd;fill:#000000;fill-opacity:1;" d="M 6.757812 16.472656 L 6.757812 30.015625 C 7.371094 29.785156 8.035156 29.59375 8.742188 29.453125 C 9.714844 29.253906 10.757812 29.148438 11.839844 29.148438 C 13.242188 29.148438 14.574219 29.324219 15.765625 29.644531 C 16.636719 29.875 17.433594 30.183594 18.128906 30.554688 L 18.128906 17.097656 C 17.40625 16.636719 16.507812 16.253906 15.488281 15.984375 C 14.390625 15.691406 13.152344 15.523438 11.839844 15.523438 C 10.820312 15.523438 9.847656 15.625 8.957031 15.804688 C 8.15625 15.964844 7.417969 16.191406 6.757812 16.472656 Z M 30.566406 30.015625 L 30.566406 16.472656 C 29.90625 16.191406 29.164062 15.964844 28.367188 15.804688 C 27.476562 15.625 26.503906 15.523438 25.484375 15.523438 C 24.171875 15.523438 22.933594 15.691406 21.832031 15.984375 C 20.816406 16.253906 19.917969 16.636719 19.195312 17.097656 L 19.195312 30.554688 C 19.886719 30.183594 20.6875 29.875 21.558594 29.644531 C 22.746094 29.324219 24.078125 29.148438 25.484375 29.148438 C 26.566406 29.148438 27.609375 29.253906 28.578125 29.453125 C 29.285156 29.59375 29.953125 29.785156 30.566406 30.015625 Z M 31.628906 18.210938 C 32 18.320312 32.488281 18.46875 32.917969 18.605469 C 33.289062 18.726562 33.628906 18.84375 33.84375 18.929688 C 34.054688 19 34.207031 19.199219 34.207031 19.429688 L 34.207031 34.542969 L 34.203125 34.542969 C 34.203125 34.613281 34.191406 34.683594 34.160156 34.75 C 34.042969 35.015625 33.730469 35.136719 33.460938 35.023438 C 32.566406 34.636719 31.535156 34.328125 30.40625 34.117188 C 29.316406 33.914062 28.136719 33.800781 26.894531 33.800781 C 25.300781 33.800781 23.792969 33.988281 22.453125 34.316406 C 21.078125 34.65625 19.886719 35.148438 18.960938 35.746094 C 18.789062 35.859375 18.558594 35.867188 18.371094 35.75 C 17.445312 35.152344 16.25 34.660156 14.871094 34.316406 C 13.53125 33.988281 12.023438 33.800781 10.425781 33.800781 C 9.1875 33.800781 8.003906 33.914062 6.914062 34.117188 C 5.804688 34.324219 4.785156 34.628906 3.898438 35.007812 C 3.824219 35.046875 3.738281 35.066406 3.648438 35.066406 C 3.355469 35.066406 3.117188 34.832031 3.117188 34.542969 L 3.117188 19.429688 C 3.117188 19.226562 3.238281 19.035156 3.4375 18.949219 C 3.648438 18.859375 4.007812 18.734375 4.402344 18.605469 C 4.835938 18.46875 5.324219 18.320312 5.691406 18.210938 L 5.691406 16.132812 C 5.691406 15.910156 5.835938 15.71875 6.035156 15.640625 C 6.832031 15.273438 7.746094 14.976562 8.742188 14.777344 C 9.714844 14.578125 10.757812 14.472656 11.839844 14.472656 C 13.242188 14.472656 14.574219 14.652344 15.765625 14.96875 C 16.871094 15.261719 17.855469 15.679688 18.660156 16.1875 C 19.46875 15.679688 20.453125 15.261719 21.558594 14.96875 C 22.75 14.652344 24.078125 14.472656 25.484375 14.472656 C 26.566406 14.472656 27.609375 14.578125 28.578125 14.777344 C 29.574219 14.976562 30.492188 15.273438 31.289062 15.640625 C 31.488281 15.71875 31.628906 15.90625 31.628906 16.132812 Z M 5.691406 19.308594 L 5.691406 30.808594 C 5.691406 31.097656 5.929688 31.332031 6.226562 31.332031 C 6.320312 31.332031 6.40625 31.308594 6.484375 31.265625 C 7.210938 30.929688 8.046875 30.664062 8.957031 30.480469 C 9.847656 30.296875 10.820312 30.199219 11.839844 30.199219 C 13.152344 30.199219 14.390625 30.363281 15.488281 30.660156 C 16.605469 30.957031 17.574219 31.386719 18.332031 31.90625 C 18.421875 31.976562 18.535156 32.019531 18.660156 32.019531 C 18.785156 32.019531 18.902344 31.976562 18.992188 31.90625 C 19.746094 31.386719 20.71875 30.957031 21.832031 30.660156 C 22.933594 30.363281 24.171875 30.199219 25.484375 30.199219 C 26.503906 30.199219 27.476562 30.296875 28.367188 30.480469 C 29.277344 30.664062 30.113281 30.929688 30.839844 31.265625 C 30.917969 31.308594 31.003906 31.332031 31.097656 31.332031 C 31.390625 31.332031 31.628906 31.097656 31.628906 30.808594 L 31.628906 19.308594 C 31.929688 19.398438 32.273438 19.503906 32.589844 19.605469 C 32.792969 19.671875 32.984375 19.734375 33.140625 19.789062 L 33.140625 33.765625 C 32.363281 33.484375 31.511719 33.253906 30.601562 33.085938 C 29.441406 32.867188 28.191406 32.75 26.894531 32.75 C 25.214844 32.75 23.621094 32.945312 22.195312 33.300781 C 20.84375 33.632812 19.640625 34.109375 18.660156 34.691406 C 17.683594 34.109375 16.480469 33.632812 15.125 33.300781 C 13.703125 32.945312 12.109375 32.75 10.425781 32.75 C 9.128906 32.75 7.878906 32.867188 6.71875 33.085938 C 5.8125 33.253906 4.960938 33.484375 4.179688 33.765625 L 4.179688 19.789062 C 4.339844 19.734375 4.53125 19.671875 4.730469 19.605469 C 5.050781 19.503906 5.390625 19.398438 5.691406 19.308594 Z M 11.3125 6.070312 L 11.3125 10.3125 C 12.066406 10.632812 13.066406 10.902344 14.234375 11.101562 C 15.539062 11.320312 17.046875 11.445312 18.660156 11.445312 C 20.277344 11.445312 21.785156 11.320312 23.089844 11.101562 C 24.257812 10.902344 25.257812 10.632812 26.011719 10.3125 L 26.011719 6.070312 L 18.777344 7.65625 C 18.695312 7.671875 18.613281 7.671875 18.539062 7.652344 Z M 10.847656 4.894531 L 8.5625 4.390625 L 18.660156 2.175781 L 28.761719 4.390625 L 26.472656 4.894531 C 26.441406 4.898438 26.410156 4.90625 26.378906 4.914062 L 18.660156 6.605469 L 10.941406 4.914062 C 10.914062 4.90625 10.882812 4.898438 10.847656 4.894531 Z M 10.582031 11.132812 C 10.386719 11.054688 10.25 10.867188 10.25 10.644531 L 10.25 5.835938 L 6 4.902344 C 5.714844 4.839844 5.535156 4.5625 5.597656 4.277344 C 5.644531 4.070312 5.808594 3.917969 6.007812 3.878906 L 18.546875 1.128906 C 18.628906 1.109375 18.710938 1.113281 18.785156 1.128906 L 31.324219 3.878906 C 31.609375 3.941406 31.789062 4.222656 31.726562 4.503906 C 31.679688 4.714844 31.511719 4.867188 31.3125 4.90625 L 29.925781 5.210938 L 29.925781 7.9375 C 29.925781 8.226562 29.6875 8.464844 29.394531 8.464844 C 29.097656 8.464844 28.859375 8.226562 28.859375 7.9375 L 28.859375 5.441406 L 27.074219 5.835938 L 27.074219 10.644531 C 27.074219 10.867188 26.9375 11.054688 26.742188 11.132812 C 25.875 11.550781 24.675781 11.898438 23.261719 12.136719 C 21.898438 12.367188 20.328125 12.496094 18.660156 12.496094 C 16.996094 12.496094 15.425781 12.367188 14.0625 12.136719 C 12.644531 11.898438 11.445312 11.550781 10.582031 11.132812 Z M 10.582031 11.132812 "/></g></g></svg>