<svg xmlns="http://www.w3.org/2000/svg" xmlns:xlink="http://www.w3.org/1999/xlink" width="50" zoomAndPan="magnify" viewBox="0 0 37.5 37.499999" height="50" preserveAspectRatio="xMidYMid meet" version="1.2"><defs><clipPath id="7a9275b485"><path d="M 5 0.863281 L 36.265625 0.863281 L 36.265625 32 L 5 32 Z M 5 0.863281 "/></clipPath><clipPath id="17acaf66d0"><path d="M 0 20 L 20 20 L 20 37.007812 L 0 37.007812 Z M 0 20 "/></clipPath><clipPath id="b75e3f3e2b"><path d="M 28 0.863281 L 36 0.863281 L 36 11 L 28 11 Z M 28 0.863281 "/></clipPath></defs><g id="d39523827d"><path style=" stroke:none;fill-rule:nonzero;fill:#000000;fill-opacity:1;" d="M 17.289062 15.539062 C 17.625 16.273438 18.21875 16.871094 18.839844 17.039062 C 18.921875 17.070312 18.949219 17.070312 18.980469 17.550781 C 19.007812 17.832031 19.007812 18.144531 19.175781 18.457031 C 19.402344 18.882812 19.738281 19.082031 20.023438 19.25 C 20.332031 19.449219 20.585938 19.5625 20.726562 20.070312 C 20.894531 20.582031 21.234375 20.976562 21.65625 21.175781 C 21.996094 21.320312 22.332031 21.289062 22.617188 21.261719 C 22.726562 21.261719 22.8125 21.234375 22.898438 21.234375 C 23.207031 21.234375 23.515625 21.488281 23.855469 21.800781 C 24.109375 22 24.363281 22.226562 24.671875 22.394531 C 24.925781 22.535156 25.265625 22.621094 25.574219 22.621094 C 25.914062 22.621094 26.222656 22.507812 26.476562 22.253906 C 26.703125 22.054688 26.789062 21.800781 26.871094 21.601562 C 26.898438 21.515625 26.957031 21.375 26.984375 21.347656 C 27.039062 21.289062 27.238281 21.289062 27.378906 21.261719 C 27.71875 21.234375 28.167969 21.203125 28.507812 20.808594 C 28.703125 20.582031 28.761719 20.296875 28.816406 20.128906 C 29.070312 19.023438 29.324219 17.75 28.761719 16.671875 C 29.210938 16.332031 29.410156 15.707031 29.296875 14.914062 C 29.238281 14.519531 29.125 14.035156 28.730469 13.695312 C 28.367188 13.386719 27.886719 13.273438 27.433594 13.386719 C 27.378906 13.328125 27.351562 13.273438 27.292969 13.242188 C 27.210938 13.160156 27.125 13.074219 27.039062 12.960938 C 26.617188 12.535156 25.886719 12.335938 25.320312 12.507812 C 24.730469 12.707031 24.277344 12.675781 23.882812 12.648438 C 23.800781 12.648438 23.714844 12.648438 23.628906 12.648438 C 22.21875 12.621094 21.769531 12.136719 21.742188 12.082031 C 21.683594 11.996094 21.601562 11.683594 21.570312 11.488281 C 21.402344 10.835938 21.121094 9.589844 19.910156 9.785156 C 19.542969 9.84375 19.261719 10.011719 19.0625 10.125 C 19.007812 10.15625 18.949219 10.183594 18.921875 10.183594 C 18.839844 10.210938 18.78125 10.183594 18.78125 10.183594 C 18.78125 10.183594 18.753906 10.183594 18.753906 10.183594 C 18.554688 10.097656 18.359375 10.042969 17.90625 10.15625 C 17.511719 10.238281 17.316406 10.46875 17.230469 10.636719 C 16.976562 11.089844 17.148438 11.601562 17.289062 12.054688 C 17.34375 12.25 17.457031 12.589844 17.429688 12.707031 C 16.921875 13.582031 16.894531 14.601562 17.289062 15.539062 Z M 18.332031 11.683594 C 18.300781 11.542969 18.21875 11.34375 18.21875 11.230469 C 18.273438 11.230469 18.300781 11.230469 18.300781 11.230469 L 18.332031 11.230469 C 18.5 11.316406 18.726562 11.375 19.121094 11.289062 C 19.316406 11.261719 19.457031 11.175781 19.597656 11.089844 C 19.738281 11.003906 19.882812 10.921875 20.078125 10.890625 C 20.21875 10.863281 20.304688 11.0625 20.472656 11.742188 C 20.558594 12.136719 20.671875 12.507812 20.894531 12.789062 C 21.121094 13.074219 21.855469 13.726562 23.628906 13.78125 C 23.6875 13.78125 23.769531 13.78125 23.855469 13.78125 C 24.304688 13.808594 24.898438 13.839844 25.6875 13.582031 C 25.855469 13.527344 26.167969 13.613281 26.28125 13.726562 C 26.363281 13.808594 26.421875 13.894531 26.503906 13.980469 C 26.644531 14.121094 26.789062 14.292969 26.984375 14.460938 C 27.183594 14.632812 27.492188 14.660156 27.6875 14.488281 C 27.773438 14.433594 27.941406 14.433594 28.027344 14.519531 C 28.140625 14.632812 28.195312 14.886719 28.226562 15.085938 C 28.28125 15.453125 28.226562 15.707031 28.140625 15.765625 L 28.082031 15.792969 C 27.941406 15.878906 27.605469 16.046875 27.546875 16.445312 C 27.492188 16.757812 27.660156 16.957031 27.71875 17.097656 C 28.195312 17.832031 28 18.882812 27.773438 19.902344 C 27.746094 19.957031 27.71875 20.101562 27.71875 20.128906 C 27.660156 20.15625 27.464844 20.183594 27.351562 20.183594 C 27.039062 20.214844 26.644531 20.242188 26.335938 20.523438 C 26.082031 20.75 25.96875 21.007812 25.886719 21.234375 C 25.855469 21.347656 25.800781 21.460938 25.746094 21.488281 C 25.6875 21.546875 25.492188 21.546875 25.265625 21.433594 C 25.066406 21.320312 24.871094 21.148438 24.644531 20.976562 C 24.195312 20.609375 23.6875 20.15625 22.980469 20.15625 C 22.953125 20.15625 22.953125 20.15625 22.925781 20.15625 C 22.785156 20.15625 22.644531 20.183594 22.53125 20.183594 C 22.390625 20.214844 22.25 20.214844 22.191406 20.183594 C 22.050781 20.128906 21.9375 19.957031 21.882812 19.761719 C 21.601562 18.824219 21.035156 18.511719 20.640625 18.285156 C 20.417969 18.144531 20.304688 18.089844 20.21875 17.945312 C 20.164062 17.863281 20.164062 17.664062 20.164062 17.492188 C 20.132812 17.039062 20.078125 16.21875 19.203125 15.964844 C 18.949219 15.878906 18.585938 15.59375 18.359375 15.085938 C 18.21875 14.746094 18.019531 14.035156 18.441406 13.1875 C 18.640625 12.707031 18.472656 12.167969 18.332031 11.683594 Z M 18.332031 11.683594 "/><g clip-rule="nonzero" clip-path="url(#7a9275b485)"><path style=" stroke:none;fill-rule:nonzero;fill:#000000;fill-opacity:1;" d="M 18.246094 30.046875 C 17.738281 29.933594 17.257812 29.816406 16.78125 29.675781 L 17.089844 30.953125 C 18.359375 31.292969 19.683594 31.488281 21.035156 31.488281 C 29.4375 31.488281 36.257812 24.632812 36.257812 16.191406 C 36.257812 13.667969 35.636719 11.261719 34.539062 9.164062 C 34.285156 9.589844 34.058594 9.957031 33.835938 10.296875 C 34.171875 11.0625 34.453125 11.855469 34.679688 12.675781 C 34.625 12.648438 34.566406 12.589844 34.511719 12.5625 C 34.058594 12.28125 33.441406 11.855469 32.761719 12.195312 C 32.425781 12.363281 32.253906 12.621094 32.085938 12.847656 C 32.03125 12.960938 31.945312 13.046875 31.890625 13.101562 C 31.691406 13.273438 31.242188 13.1875 31.015625 12.933594 C 30.675781 12.589844 30.566406 12.023438 30.480469 11.542969 C 30.394531 11.089844 30.3125 10.582031 29.972656 10.125 C 29.691406 9.730469 29.210938 9.558594 28.789062 9.417969 C 28.621094 9.363281 28.335938 9.25 28.28125 9.191406 C 28.195312 9.105469 28.195312 8.824219 28.167969 8.625 C 28.140625 8.226562 28.082031 7.773438 27.71875 7.464844 C 27.152344 7.039062 26.335938 6.980469 25.519531 7.351562 C 25.238281 7.464844 25.011719 7.605469 24.757812 7.746094 C 24.503906 7.886719 24.25 8.03125 24.023438 8.113281 C 23.6875 8.226562 23.234375 8.257812 23.039062 8.058594 C 22.953125 7.972656 22.898438 7.746094 22.839844 7.578125 C 22.699219 7.152344 22.472656 6.5 21.769531 6.414062 C 20.953125 6.332031 20.925781 6.074219 20.78125 5.507812 C 20.671875 4.96875 20.5 4.261719 19.683594 3.808594 C 19.175781 3.523438 18.585938 3.523438 18.046875 3.523438 C 17.003906 3.523438 16.808594 3.441406 16.78125 2.761719 C 18.105469 2.222656 19.542969 1.996094 21.035156 1.996094 C 23.40625 1.996094 25.601562 2.589844 27.578125 3.609375 C 27.632812 3.214844 27.71875 2.84375 27.886719 2.503906 C 25.800781 1.457031 23.488281 0.863281 21.035156 0.863281 C 12.636719 0.863281 5.816406 7.71875 5.816406 16.160156 C 5.816406 18.511719 6.351562 20.75 7.308594 22.734375 L 8.15625 21.886719 C 7.363281 20.128906 6.941406 18.203125 6.941406 16.160156 C 6.941406 13.273438 7.816406 10.550781 9.308594 8.3125 C 9.789062 8.371094 10.097656 8.796875 10.492188 9.417969 C 10.859375 10.011719 11.3125 10.722656 12.101562 10.636719 C 12.609375 10.582031 13.226562 10.664062 13.621094 11.714844 C 13.652344 11.796875 13.59375 12.023438 13.539062 12.167969 L 13.539062 12.222656 C 13.339844 12.902344 13.453125 13.640625 13.847656 14.179688 C 14.664062 14.488281 15.34375 15.085938 15.792969 15.851562 C 15.992188 15.113281 15.679688 14.292969 14.949219 13.726562 C 14.609375 13.46875 14.46875 12.988281 14.609375 12.5625 L 14.609375 12.535156 C 14.695312 12.222656 14.835938 11.769531 14.664062 11.34375 C 14.1875 10.070312 13.226562 9.445312 11.988281 9.558594 C 11.875 9.558594 11.566406 9.078125 11.453125 8.851562 C 11.113281 8.34375 10.71875 7.660156 10.015625 7.351562 C 11.480469 5.480469 13.425781 4.007812 15.652344 3.070312 C 15.878906 4.515625 17.175781 4.546875 17.992188 4.574219 C 18.414062 4.574219 18.839844 4.574219 19.089844 4.714844 C 19.457031 4.914062 19.542969 5.195312 19.65625 5.679688 C 19.796875 6.332031 20.023438 7.292969 21.601562 7.464844 C 21.65625 7.546875 21.714844 7.71875 21.742188 7.859375 C 21.855469 8.171875 21.96875 8.511719 22.21875 8.765625 C 22.839844 9.390625 23.742188 9.363281 24.417969 9.105469 C 24.757812 8.992188 25.039062 8.824219 25.320312 8.652344 C 25.546875 8.539062 25.746094 8.398438 25.96875 8.3125 C 26.28125 8.171875 26.730469 8.085938 26.984375 8.285156 C 27.011719 8.371094 27.011719 8.539062 27.039062 8.683594 C 27.070312 9.050781 27.125 9.503906 27.40625 9.871094 C 27.660156 10.183594 28.054688 10.296875 28.421875 10.4375 C 28.675781 10.523438 28.957031 10.636719 29.070312 10.75 C 29.238281 10.976562 29.324219 11.34375 29.378906 11.683594 C 29.492188 12.363281 29.664062 13.128906 30.226562 13.695312 C 30.59375 14.066406 31.128906 14.292969 31.636719 14.292969 C 32.003906 14.292969 32.367188 14.179688 32.652344 13.921875 C 32.820312 13.78125 32.933594 13.613281 33.015625 13.46875 C 33.101562 13.355469 33.1875 13.242188 33.242188 13.1875 C 33.355469 13.128906 33.664062 13.328125 33.890625 13.46875 C 34.199219 13.667969 34.566406 13.894531 34.960938 13.953125 C 35.074219 14.660156 35.132812 15.425781 35.132812 16.160156 C 35.132812 19.957031 33.636719 23.414062 31.210938 25.964844 C 30.929688 25.796875 30.59375 25.683594 30.140625 25.683594 L 29.972656 25.683594 C 29.71875 25.683594 29.464844 25.710938 29.351562 25.625 C 29.324219 25.597656 29.296875 25.539062 29.238281 25.484375 C 29.097656 25.3125 28.902344 25.03125 28.5625 24.945312 C 28.027344 24.804688 27.632812 25.171875 27.464844 25.339844 L 26.535156 26.164062 C 26.054688 26.589844 25.855469 26.589844 25.773438 26.558594 C 25.6875 26.53125 25.546875 26.390625 25.433594 26.277344 C 25.179688 25.992188 24.785156 25.597656 24.164062 25.683594 C 23.882812 25.738281 23.660156 25.910156 23.546875 25.992188 L 23.433594 26.078125 C 22.644531 26.703125 21.910156 27.269531 21.09375 27.609375 C 20.925781 27.664062 20.726562 27.75 20.558594 27.808594 C 20.105469 27.949219 19.628906 28.117188 19.203125 28.429688 C 18.695312 28.828125 18.300781 29.421875 18.246094 30.046875 Z M 19.851562 29.394531 C 20.164062 29.195312 20.527344 29.054688 20.925781 28.910156 C 21.121094 28.855469 21.320312 28.769531 21.515625 28.683594 C 22.503906 28.289062 23.347656 27.636719 24.136719 27.011719 L 24.25 26.929688 C 24.277344 26.898438 24.335938 26.84375 24.390625 26.84375 C 24.449219 26.871094 24.558594 27.011719 24.644531 27.070312 C 24.84375 27.269531 25.066406 27.496094 25.378906 27.636719 C 26.222656 27.976562 26.984375 27.296875 27.292969 27.042969 L 28.226562 26.21875 C 28.28125 26.191406 28.308594 26.164062 28.335938 26.136719 C 28.367188 26.164062 28.367188 26.164062 28.367188 26.191406 C 28.421875 26.277344 28.507812 26.390625 28.621094 26.476562 C 29.042969 26.871094 29.605469 26.84375 30.027344 26.84375 L 30.167969 26.84375 C 30.226562 26.84375 30.28125 26.84375 30.3125 26.84375 C 27.832031 28.996094 24.589844 30.328125 21.035156 30.328125 C 20.472656 30.328125 19.9375 30.300781 19.375 30.242188 C 19.34375 29.960938 19.570312 29.589844 19.851562 29.394531 Z M 19.851562 29.394531 "/></g><g clip-rule="nonzero" clip-path="url(#17acaf66d0)"><path style=" stroke:none;fill-rule:nonzero;fill:#000000;fill-opacity:1;" d="M 0.710938 35.203125 L 0.9375 35.34375 C 0.742188 35.484375 0.601562 35.710938 0.601562 35.996094 C 0.601562 36.476562 0.964844 36.84375 1.445312 36.84375 C 1.839844 36.84375 2.179688 36.5625 2.261719 36.164062 L 2.628906 36.390625 C 2.796875 36.503906 3.023438 36.5625 3.222656 36.5625 C 3.304688 36.5625 3.390625 36.5625 3.476562 36.535156 C 3.785156 36.449219 4.011719 36.277344 4.179688 36.023438 L 6.886719 31.601562 C 7.222656 31.066406 7.054688 30.355469 6.519531 30.046875 L 6.097656 29.789062 L 7.984375 27.15625 C 8.011719 27.15625 8.011719 27.15625 8.042969 27.15625 C 8.324219 27.15625 8.632812 27.042969 8.832031 26.816406 L 9.535156 26.136719 L 9.535156 27.75 C 9.535156 28.089844 9.648438 28.429688 9.847656 28.742188 L 10.128906 29.136719 L 8.183594 34.832031 C 8.097656 35.117188 8.097656 35.429688 8.238281 35.710938 C 8.378906 35.996094 8.605469 36.191406 8.886719 36.277344 L 9.957031 36.648438 C 10.070312 36.675781 10.210938 36.703125 10.324219 36.703125 C 10.804688 36.703125 11.226562 36.421875 11.394531 35.9375 L 12.550781 32.566406 L 12.691406 32.738281 L 12.691406 35.996094 C 12.691406 36.617188 13.199219 37.128906 13.820312 37.128906 L 14.949219 37.128906 C 15.566406 37.128906 16.074219 36.617188 16.074219 35.996094 L 16.074219 31.574219 C 16.074219 31.519531 16.074219 31.488281 16.046875 31.433594 L 15.203125 27.976562 L 15.203125 25.796875 L 15.566406 26.136719 C 15.625 26.191406 15.707031 26.25 15.792969 26.277344 L 18.273438 27.042969 C 18.386719 27.070312 18.5 27.097656 18.613281 27.097656 C 19.089844 27.097656 19.515625 26.816406 19.683594 26.332031 L 19.882812 25.796875 C 19.992188 25.511719 19.964844 25.199219 19.824219 24.917969 C 19.683594 24.632812 19.457031 24.433594 19.148438 24.351562 L 16.976562 23.671875 L 14.695312 21.402344 C 14.636719 21.347656 14.582031 21.320312 14.496094 21.289062 C 14.214844 21.089844 13.875 20.976562 13.539062 20.976562 L 11.253906 20.976562 C 10.605469 20.976562 10.015625 21.347656 9.734375 21.914062 L 6.859375 24.773438 C 6.632812 25 6.519531 25.285156 6.519531 25.570312 C 6.519531 25.878906 6.632812 26.164062 6.859375 26.363281 L 7.027344 26.53125 L 5.136719 29.136719 L 4.601562 28.796875 C 4.347656 28.628906 4.039062 28.601562 3.757812 28.65625 C 3.445312 28.742188 3.222656 28.910156 3.050781 29.167969 L 0.347656 33.585938 C 0.0078125 34.152344 0.175781 34.863281 0.710938 35.203125 Z M 10.296875 35.511719 L 9.226562 35.144531 L 10.917969 30.214844 L 11.734375 31.375 Z M 16.46875 24.71875 L 18.78125 25.425781 L 18.585938 25.964844 L 16.246094 25.226562 L 15.203125 24.265625 L 15.203125 23.558594 L 16.246094 24.605469 C 16.328125 24.632812 16.386719 24.691406 16.46875 24.71875 Z M 10.859375 22.367188 C 10.917969 22.308594 10.972656 22.226562 11 22.167969 C 11.085938 22.140625 11.171875 22.113281 11.253906 22.113281 L 13.539062 22.113281 C 13.847656 22.113281 14.101562 22.367188 14.101562 22.679688 L 14.101562 28.0625 C 14.101562 28.117188 14.101562 28.148438 14.128906 28.203125 L 14.976562 31.660156 L 14.976562 35.996094 L 13.847656 35.996094 L 13.847656 32.511719 C 13.847656 32.398438 13.820312 32.285156 13.734375 32.171875 L 10.777344 28.035156 C 10.71875 27.949219 10.664062 27.835938 10.664062 27.722656 L 10.664062 24.972656 L 12.042969 23.585938 C 12.269531 23.359375 12.269531 23.019531 12.042969 22.792969 C 11.820312 22.566406 11.480469 22.566406 11.253906 22.792969 L 8.125 25.910156 C 8.042969 25.851562 7.957031 25.824219 7.84375 25.824219 L 7.617188 25.597656 Z M 4.011719 29.789062 L 5.925781 31.007812 L 3.222656 35.429688 L 1.304688 34.210938 Z M 4.011719 29.789062 "/></g><path style=" stroke:none;fill-rule:nonzero;fill:#000000;fill-opacity:1;" d="M 12.382812 15.027344 C 10.832031 15.027344 9.535156 16.304688 9.535156 17.863281 C 9.535156 19.421875 10.804688 20.695312 12.382812 20.695312 C 13.933594 20.695312 15.230469 19.421875 15.230469 17.863281 C 15.230469 16.304688 13.933594 15.027344 12.382812 15.027344 Z M 12.382812 19.5625 C 11.453125 19.5625 10.664062 18.796875 10.664062 17.863281 C 10.664062 16.925781 11.425781 16.160156 12.382812 16.160156 C 13.339844 16.160156 14.101562 16.925781 14.101562 17.863281 C 14.101562 18.796875 13.3125 19.5625 12.382812 19.5625 Z M 12.382812 19.5625 "/><path style=" stroke:none;fill-rule:nonzero;fill:#000000;fill-opacity:1;" d="M 3.445312 33.984375 L 4.914062 31.546875 C 5.082031 31.292969 4.996094 30.921875 4.714844 30.78125 C 4.433594 30.613281 4.09375 30.695312 3.953125 30.980469 L 2.488281 33.417969 C 2.320312 33.671875 2.402344 34.039062 2.6875 34.183594 C 2.769531 34.238281 2.882812 34.265625 2.96875 34.265625 C 3.164062 34.265625 3.363281 34.152344 3.445312 33.984375 Z M 3.445312 33.984375 "/><g clip-rule="nonzero" clip-path="url(#b75e3f3e2b)"><path style=" stroke:none;fill-rule:nonzero;fill:#000000;fill-opacity:1;" d="M 28.648438 4.207031 C 28.648438 5.875 31.269531 9.785156 31.550781 10.238281 C 31.664062 10.382812 31.832031 10.496094 32.03125 10.496094 C 32.226562 10.496094 32.398438 10.410156 32.507812 10.238281 C 32.820312 9.785156 35.414062 5.875 35.414062 4.207031 C 35.414062 2.363281 33.890625 0.863281 32.03125 0.863281 C 30.167969 0.863281 28.648438 2.363281 28.648438 4.207031 Z M 34.285156 4.207031 C 34.285156 5.054688 33.046875 7.292969 32.03125 8.878906 C 31.015625 7.292969 29.773438 5.054688 29.773438 4.207031 C 29.773438 2.988281 30.789062 1.996094 32.03125 1.996094 C 33.269531 1.996094 34.285156 2.988281 34.285156 4.207031 Z M 34.285156 4.207031 "/></g><path style=" stroke:none;fill-rule:nonzero;fill:#000000;fill-opacity:1;" d="M 30.28125 4.261719 C 30.28125 5.226562 31.070312 6.019531 32.03125 6.019531 C 32.988281 6.019531 33.777344 5.226562 33.777344 4.261719 C 33.777344 3.296875 32.988281 2.503906 32.03125 2.503906 C 31.070312 2.503906 30.28125 3.296875 30.28125 4.261719 Z M 32.652344 4.261719 C 32.652344 4.601562 32.367188 4.886719 32.03125 4.886719 C 31.691406 4.886719 31.410156 4.601562 31.410156 4.261719 C 31.410156 3.921875 31.691406 3.636719 32.03125 3.636719 C 32.367188 3.636719 32.652344 3.921875 32.652344 4.261719 Z M 32.652344 4.261719 "/></g></svg>