<svg xmlns="http://www.w3.org/2000/svg" xmlns:xlink="http://www.w3.org/1999/xlink" width="50" zoomAndPan="magnify" viewBox="0 0 37.5 37.499999" height="50" preserveAspectRatio="xMidYMid meet" version="1.2"><defs><clipPath id="5dbb832825"><path d="M 19 15 L 36.652344 15 L 36.652344 35.453125 L 19 35.453125 Z M 19 15 "/></clipPath><clipPath id="dd4c35d6c0"><path d="M 0.386719 15 L 18 15 L 18 35.453125 L 0.386719 35.453125 Z M 0.386719 15 "/></clipPath></defs><g id="dccc0c87d8"><g clip-rule="nonzero" clip-path="url(#5dbb832825)"><path style=" stroke:none;fill-rule:nonzero;fill:#231f20;fill-opacity:1;" d="M 36.089844 16.117188 C 35.71875 15.75 35.214844 15.589844 34.707031 15.675781 C 34.195312 15.757812 33.765625 16.066406 33.535156 16.527344 L 31.195312 21.179688 C 31.058594 21.460938 30.871094 21.707031 30.613281 21.972656 C 30.570312 22.023438 30.539062 22.074219 30.496094 22.125 C 29.398438 21.257812 27.839844 21.101562 26.527344 21.835938 C 25.613281 22.601562 24.328125 23.308594 22.664062 23.957031 C 21.628906 24.527344 20.925781 25.570312 20.78125 26.734375 L 20.207031 31.304688 L 19.332031 31.304688 L 19.332031 35.421875 L 29.261719 35.421875 L 29.261719 31.304688 L 28.9375 31.304688 L 33.65625 25.945312 C 34.007812 25.542969 34.261719 25.082031 34.417969 24.570312 L 36.492188 17.695312 C 36.652344 17.132812 36.5 16.527344 36.089844 16.117188 Z M 28.429688 34.59375 L 20.15625 34.59375 L 20.15625 32.121094 L 28.429688 32.121094 Z M 35.695312 17.457031 L 33.621094 24.324219 C 33.5 24.726562 33.304688 25.082031 33.03125 25.390625 L 27.839844 31.296875 L 21.054688 31.296875 L 21.613281 26.828125 C 21.722656 25.917969 22.273438 25.117188 23.027344 24.691406 C 24.722656 24.035156 26.082031 23.277344 27.007812 22.492188 C 27.96875 21.964844 29.160156 22.082031 29.996094 22.757812 C 28.722656 24.339844 27.453125 25.542969 26.144531 26.421875 L 25.800781 26.652344 L 26.261719 27.332031 L 26.605469 27.101562 C 28.214844 26.039062 29.75 24.511719 31.25 22.492188 C 31.53125 22.210938 31.761719 21.886719 31.941406 21.527344 L 34.28125 16.875 C 34.390625 16.652344 34.597656 16.5 34.847656 16.464844 C 35.09375 16.433594 35.335938 16.507812 35.503906 16.679688 C 35.703125 16.894531 35.769531 17.183594 35.695312 17.457031 Z M 35.695312 17.457031 "/></g><g clip-rule="nonzero" clip-path="url(#dd4c35d6c0)"><path style=" stroke:none;fill-rule:nonzero;fill:#231f20;fill-opacity:1;" d="M 16.242188 26.734375 C 16.097656 25.570312 15.394531 24.527344 14.304688 23.933594 C 12.6875 23.300781 11.410156 22.59375 10.425781 21.785156 C 9.175781 21.09375 7.625 21.246094 6.527344 22.125 C 6.476562 22.058594 6.425781 21.996094 6.375 21.929688 C 6.152344 21.707031 5.972656 21.460938 5.835938 21.179688 L 3.496094 16.527344 C 3.265625 16.066406 2.835938 15.75 2.332031 15.675781 C 1.816406 15.589844 1.3125 15.75 0.953125 16.117188 C 0.542969 16.527344 0.386719 17.132812 0.550781 17.695312 L 2.613281 24.5625 C 2.769531 25.074219 3.023438 25.535156 3.375 25.933594 L 8.097656 31.304688 L 7.753906 31.304688 L 7.753906 35.421875 L 17.679688 35.421875 L 17.679688 31.304688 L 16.816406 31.304688 Z M 4 25.398438 C 3.726562 25.082031 3.53125 24.726562 3.410156 24.332031 L 1.328125 17.457031 C 1.253906 17.183594 1.320312 16.894531 1.515625 16.695312 C 1.699219 16.519531 1.9375 16.441406 2.1875 16.484375 C 2.433594 16.527344 2.640625 16.671875 2.75 16.894531 L 5.089844 21.546875 C 5.269531 21.902344 5.5 22.226562 5.75 22.464844 C 7.289062 24.527344 8.824219 26.054688 10.433594 27.121094 L 10.777344 27.351562 L 11.238281 26.667969 L 10.898438 26.4375 C 9.585938 25.570312 8.328125 24.375 7.042969 22.773438 C 7.882812 22.101562 9.0625 21.972656 9.972656 22.457031 C 10.957031 23.285156 12.320312 24.042969 13.972656 24.671875 C 14.777344 25.117188 15.324219 25.925781 15.4375 26.839844 L 15.992188 31.304688 L 9.210938 31.304688 Z M 16.851562 34.59375 L 8.585938 34.59375 L 8.585938 32.121094 L 16.859375 32.121094 L 16.859375 34.59375 Z M 16.851562 34.59375 "/></g><path style=" stroke:none;fill-rule:nonzero;fill:#231f20;fill-opacity:1;" d="M 28.960938 14.753906 C 31.847656 11.882812 31.847656 7.195312 28.960938 4.320312 C 26.082031 1.457031 21.398438 1.449219 18.511719 4.289062 C 15.617188 1.441406 10.941406 1.449219 8.0625 4.320312 C 5.175781 7.195312 5.175781 11.882812 8.0625 14.753906 L 17.175781 23.832031 C 17.542969 24.195312 18.023438 24.375 18.511719 24.375 C 19 24.375 19.480469 24.195312 19.847656 23.832031 Z M 17.757812 23.25 L 8.636719 14.175781 C 7.394531 12.9375 6.707031 11.292969 6.707031 9.539062 C 6.707031 7.78125 7.394531 6.136719 8.636719 4.902344 C 9.921875 3.621094 11.609375 2.984375 13.296875 2.984375 C 14.984375 2.984375 16.671875 3.621094 17.953125 4.902344 C 18.261719 5.207031 18.761719 5.207031 19.058594 4.902344 C 21.628906 2.34375 25.808594 2.34375 28.378906 4.902344 C 29.621094 6.136719 30.304688 7.78125 30.304688 9.539062 C 30.304688 11.292969 29.621094 12.9375 28.378906 14.175781 L 19.257812 23.25 C 18.855469 23.644531 18.160156 23.644531 17.757812 23.25 Z M 17.757812 23.25 "/><path style=" stroke:none;fill-rule:nonzero;fill:#231f20;fill-opacity:1;" d="M 20.164062 8.257812 L 16.859375 8.257812 L 16.859375 10.730469 L 14.375 10.730469 L 14.375 14.019531 L 16.859375 14.019531 L 16.859375 16.492188 L 20.164062 16.492188 L 20.164062 14.019531 L 22.648438 14.019531 L 22.648438 10.730469 L 20.164062 10.730469 Z M 21.816406 11.550781 L 21.816406 13.195312 L 19.332031 13.195312 L 19.332031 15.664062 L 17.679688 15.664062 L 17.679688 13.195312 L 15.195312 13.195312 L 15.195312 11.550781 L 17.679688 11.550781 L 17.679688 9.078125 L 19.332031 9.078125 L 19.332031 11.550781 Z M 21.816406 11.550781 "/></g></svg>