<svg xmlns="http://www.w3.org/2000/svg" xmlns:xlink="http://www.w3.org/1999/xlink" width="50" zoomAndPan="magnify" viewBox="0 0 37.5 37.499999" height="50" preserveAspectRatio="xMidYMid meet" version="1.2"><defs><clipPath id="de6d54fde4"><path d="M 0.453125 12 L 8 12 L 8 24 L 0.453125 24 Z M 0.453125 12 "/></clipPath><clipPath id="d0144beed4"><path d="M 29 12 L 36.71875 12 L 36.71875 24 L 29 24 Z M 29 12 "/></clipPath><clipPath id="4e1dbe2323"><path d="M 6 3.699219 L 31 3.699219 L 31 26 L 6 26 Z M 6 3.699219 "/></clipPath><clipPath id="dcd40cff3f"><path d="M 15 27 L 22 27 L 22 33.304688 L 15 33.304688 Z M 15 27 "/></clipPath><clipPath id="422bbd96ef"><path d="M 8 27 L 15 27 L 15 33.304688 L 8 33.304688 Z M 8 27 "/></clipPath><clipPath id="225659bc0e"><path d="M 1 27 L 8 27 L 8 33.304688 L 1 33.304688 Z M 1 27 "/></clipPath><clipPath id="020e625dbc"><path d="M 29 27 L 36 27 L 36 33.304688 L 29 33.304688 Z M 29 27 "/></clipPath><clipPath id="0404722ec7"><path d="M 22 27 L 29 27 L 29 33.304688 L 22 33.304688 Z M 22 27 "/></clipPath></defs><g id="3b92416d39"><g clip-rule="nonzero" clip-path="url(#de6d54fde4)"><path style=" stroke:none;fill-rule:nonzero;fill:#040606;fill-opacity:1;" d="M 6.511719 14.777344 L 3.78125 17.492188 C 3.550781 17.722656 3.550781 18.097656 3.78125 18.328125 L 6.511719 21.046875 C 6.742188 21.277344 6.742188 21.652344 6.511719 21.882812 C 6.285156 22.105469 5.894531 22.105469 5.667969 21.882812 L 2.101562 18.328125 C 1.867188 18.097656 1.867188 17.722656 2.101562 17.492188 L 5.667969 13.941406 C 5.785156 13.824219 5.9375 13.765625 6.089844 13.765625 C 6.242188 13.765625 6.394531 13.824219 6.511719 13.941406 C 6.742188 14.171875 6.742188 14.546875 6.511719 14.777344 Z M 4.828125 13.101562 L 1.257812 16.65625 C 0.5625 17.347656 0.5625 18.476562 1.257812 19.167969 L 4.828125 22.71875 C 5.164062 23.054688 5.613281 23.238281 6.089844 23.238281 C 6.566406 23.238281 7.015625 23.054688 7.351562 22.71875 C 8.046875 22.027344 8.046875 20.898438 7.351562 20.207031 L 5.042969 17.910156 L 7.351562 15.613281 C 8.046875 14.921875 8.046875 13.792969 7.351562 13.101562 C 6.65625 12.410156 5.527344 12.410156 4.828125 13.101562 "/></g><g clip-rule="nonzero" clip-path="url(#d0144beed4)"><path style=" stroke:none;fill-rule:nonzero;fill:#040606;fill-opacity:1;" d="M 35.070312 18.328125 L 31.5 21.882812 C 31.273438 22.105469 30.882812 22.105469 30.65625 21.882812 C 30.425781 21.652344 30.425781 21.277344 30.65625 21.046875 L 33.386719 18.328125 C 33.617188 18.097656 33.617188 17.722656 33.386719 17.492188 L 30.65625 14.777344 C 30.425781 14.546875 30.425781 14.171875 30.65625 13.941406 C 30.773438 13.824219 30.925781 13.765625 31.078125 13.765625 C 31.230469 13.765625 31.382812 13.824219 31.5 13.941406 L 35.070312 17.492188 C 35.300781 17.722656 35.300781 18.097656 35.070312 18.328125 Z M 35.910156 16.65625 L 32.339844 13.101562 C 31.644531 12.410156 30.511719 12.410156 29.816406 13.101562 C 29.121094 13.792969 29.121094 14.921875 29.816406 15.613281 L 32.125 17.910156 L 29.816406 20.207031 C 29.121094 20.898438 29.121094 22.027344 29.816406 22.71875 C 30.152344 23.054688 30.601562 23.238281 31.078125 23.238281 C 31.554688 23.238281 32.003906 23.054688 32.339844 22.71875 L 35.910156 19.167969 C 36.605469 18.476562 36.605469 17.347656 35.910156 16.65625 "/></g><g clip-rule="nonzero" clip-path="url(#4e1dbe2323)"><path style=" stroke:none;fill-rule:nonzero;fill:#040606;fill-opacity:1;" d="M 25.722656 13.175781 L 25.722656 10.214844 C 25.722656 9.886719 25.457031 9.621094 25.128906 9.621094 C 24.800781 9.621094 24.535156 9.886719 24.535156 10.214844 L 24.535156 23.832031 C 24.535156 24.160156 24.265625 24.425781 23.9375 24.425781 L 13.230469 24.425781 C 12.902344 24.425781 12.636719 24.160156 12.636719 23.832031 L 12.636719 10.214844 C 12.636719 9.886719 12.367188 9.621094 12.039062 9.621094 C 11.710938 9.621094 11.445312 9.886719 11.445312 10.214844 L 11.445312 13.175781 L 8.128906 10.699219 L 12.21875 5.609375 C 12.3125 5.496094 12.441406 5.417969 12.59375 5.394531 L 15.164062 4.929688 C 15.566406 6.152344 16.617188 7.84375 18.585938 7.84375 C 20.554688 7.84375 21.601562 6.152344 22.003906 4.929688 L 24.582031 5.394531 C 24.726562 5.417969 24.855469 5.496094 24.949219 5.609375 L 29.039062 10.699219 Z M 20.605469 5.210938 C 20.261719 5.894531 19.640625 6.660156 18.585938 6.660156 C 17.53125 6.660156 16.910156 5.894531 16.566406 5.210938 C 17.085938 5.347656 17.777344 5.476562 18.585938 5.476562 C 19.394531 5.476562 20.082031 5.347656 20.605469 5.210938 Z M 25.878906 4.867188 C 25.601562 4.527344 25.210938 4.296875 24.785156 4.226562 L 22.011719 3.726562 C 21.6875 3.671875 21.363281 3.703125 21.066406 3.816406 C 20.761719 3.933594 19.824219 4.292969 18.585938 4.292969 C 17.34375 4.292969 16.410156 3.933594 16.101562 3.816406 C 15.804688 3.707031 15.480469 3.671875 15.152344 3.726562 L 12.390625 4.226562 C 11.957031 4.296875 11.566406 4.527344 11.289062 4.867188 L 7.199219 9.960938 C 6.996094 10.210938 6.90625 10.527344 6.949219 10.847656 C 6.988281 11.167969 7.15625 11.453125 7.414062 11.644531 L 11.445312 14.65625 L 11.445312 23.832031 C 11.445312 24.8125 12.246094 25.609375 13.230469 25.609375 L 23.9375 25.609375 C 24.925781 25.609375 25.722656 24.8125 25.722656 23.832031 L 25.722656 14.65625 L 29.753906 11.644531 C 29.757812 11.644531 29.757812 11.644531 29.757812 11.644531 C 30.015625 11.453125 30.179688 11.167969 30.222656 10.847656 C 30.261719 10.527344 30.171875 10.210938 29.96875 9.960938 L 25.878906 4.867188 "/></g><g clip-rule="nonzero" clip-path="url(#dcd40cff3f)"><path style=" stroke:none;fill-rule:nonzero;fill:#040606;fill-opacity:1;" d="M 20.371094 30.34375 C 20.371094 31.324219 19.570312 32.121094 18.585938 32.121094 C 17.597656 32.121094 16.800781 31.324219 16.800781 30.34375 C 16.800781 29.363281 17.597656 28.570312 18.585938 28.570312 C 19.570312 28.570312 20.371094 29.363281 20.371094 30.34375 Z M 15.609375 30.34375 C 15.609375 31.976562 16.945312 33.304688 18.585938 33.304688 C 20.226562 33.304688 21.558594 31.976562 21.558594 30.34375 C 21.558594 28.710938 20.226562 27.386719 18.585938 27.386719 C 16.945312 27.386719 15.609375 28.710938 15.609375 30.34375 "/></g><g clip-rule="nonzero" clip-path="url(#422bbd96ef)"><path style=" stroke:none;fill-rule:nonzero;fill:#040606;fill-opacity:1;" d="M 13.230469 30.34375 C 13.230469 31.324219 12.429688 32.121094 11.445312 32.121094 C 10.460938 32.121094 9.660156 31.324219 9.660156 30.34375 C 9.660156 29.363281 10.460938 28.570312 11.445312 28.570312 C 12.429688 28.570312 13.230469 29.363281 13.230469 30.34375 Z M 8.46875 30.34375 C 8.46875 31.976562 9.804688 33.304688 11.445312 33.304688 C 13.085938 33.304688 14.417969 31.976562 14.417969 30.34375 C 14.417969 28.710938 13.085938 27.386719 11.445312 27.386719 C 9.804688 27.386719 8.46875 28.710938 8.46875 30.34375 "/></g><g clip-rule="nonzero" clip-path="url(#225659bc0e)"><path style=" stroke:none;fill-rule:nonzero;fill:#040606;fill-opacity:1;" d="M 6.089844 30.34375 C 6.089844 31.324219 5.292969 32.121094 4.304688 32.121094 C 3.320312 32.121094 2.519531 31.324219 2.519531 30.34375 C 2.519531 29.363281 3.320312 28.570312 4.304688 28.570312 C 5.292969 28.570312 6.089844 29.363281 6.089844 30.34375 Z M 1.332031 30.34375 C 1.332031 31.976562 2.664062 33.304688 4.304688 33.304688 C 5.945312 33.304688 7.28125 31.976562 7.28125 30.34375 C 7.28125 28.710938 5.945312 27.386719 4.304688 27.386719 C 2.664062 27.386719 1.332031 28.710938 1.332031 30.34375 "/></g><g clip-rule="nonzero" clip-path="url(#020e625dbc)"><path style=" stroke:none;fill-rule:nonzero;fill:#040606;fill-opacity:1;" d="M 34.648438 30.34375 C 34.648438 31.324219 33.847656 32.121094 32.863281 32.121094 C 31.878906 32.121094 31.078125 31.324219 31.078125 30.34375 C 31.078125 29.363281 31.878906 28.570312 32.863281 28.570312 C 33.847656 28.570312 34.648438 29.363281 34.648438 30.34375 Z M 29.886719 30.34375 C 29.886719 31.976562 31.222656 33.304688 32.863281 33.304688 C 34.503906 33.304688 35.839844 31.976562 35.839844 30.34375 C 35.839844 28.710938 34.503906 27.386719 32.863281 27.386719 C 31.222656 27.386719 29.886719 28.710938 29.886719 30.34375 "/></g><g clip-rule="nonzero" clip-path="url(#0404722ec7)"><path style=" stroke:none;fill-rule:nonzero;fill:#040606;fill-opacity:1;" d="M 27.507812 30.34375 C 27.507812 31.324219 26.710938 32.121094 25.722656 32.121094 C 24.738281 32.121094 23.9375 31.324219 23.9375 30.34375 C 23.9375 29.363281 24.738281 28.570312 25.722656 28.570312 C 26.710938 28.570312 27.507812 29.363281 27.507812 30.34375 Z M 22.75 30.34375 C 22.75 31.976562 24.082031 33.304688 25.722656 33.304688 C 27.363281 33.304688 28.699219 31.976562 28.699219 30.34375 C 28.699219 28.710938 27.363281 27.386719 25.722656 27.386719 C 24.082031 27.386719 22.75 28.710938 22.75 30.34375 "/></g></g></svg>