<svg xmlns="http://www.w3.org/2000/svg" xmlns:xlink="http://www.w3.org/1999/xlink" width="50" zoomAndPan="magnify" viewBox="0 0 37.5 37.499999" height="50" preserveAspectRatio="xMidYMid meet" version="1.2"><defs><clipPath id="d44856835c"><path d="M 11 21 L 26 21 L 26 34.75 L 11 34.75 Z M 11 21 "/></clipPath><clipPath id="2b50e7e103"><path d="M 21 17 L 32.863281 17 L 32.863281 29 L 21 29 Z M 21 17 "/></clipPath><clipPath id="a00a7fa938"><path d="M 7 2.183594 L 23 2.183594 L 23 17 L 7 17 Z M 7 2.183594 "/></clipPath><clipPath id="ead6d6ae75"><path d="M 10 2.183594 L 31 2.183594 L 31 20 L 10 20 Z M 10 2.183594 "/></clipPath></defs><g id="dff81b1153"><g clip-rule="nonzero" clip-path="url(#d44856835c)"><path style=" stroke:none;fill-rule:nonzero;fill:#000000;fill-opacity:1;" d="M 20.890625 34.371094 L 18.613281 32.710938 C 18.492188 32.621094 18.371094 32.621094 18.25 32.710938 L 15.976562 34.371094 C 15.71875 34.554688 15.429688 34.648438 15.113281 34.648438 C 14.796875 34.648438 14.511719 34.554688 14.253906 34.367188 C 13.996094 34.183594 13.820312 33.9375 13.722656 33.636719 C 13.625 33.332031 13.625 33.03125 13.722656 32.730469 L 14.59375 30.046875 C 14.640625 29.902344 14.601562 29.789062 14.480469 29.699219 L 12.207031 28.042969 C 11.949219 27.855469 11.773438 27.609375 11.675781 27.308594 C 11.578125 27.007812 11.578125 26.703125 11.675781 26.402344 C 11.773438 26.101562 11.953125 25.855469 12.207031 25.667969 C 12.460938 25.484375 12.75 25.386719 13.066406 25.386719 L 15.882812 25.386719 C 16.03125 25.386719 16.128906 25.316406 16.175781 25.171875 L 17.046875 22.488281 C 17.144531 22.1875 17.320312 21.945312 17.578125 21.757812 C 17.835938 21.574219 18.121094 21.480469 18.4375 21.480469 C 18.753906 21.480469 19.039062 21.574219 19.296875 21.757812 C 19.550781 21.945312 19.730469 22.1875 19.828125 22.488281 L 20.699219 25.171875 C 20.746094 25.316406 20.84375 25.386719 20.992188 25.386719 L 23.808594 25.386719 C 24.125 25.386719 24.410156 25.484375 24.667969 25.667969 C 24.921875 25.855469 25.097656 26.101562 25.199219 26.402344 C 25.296875 26.703125 25.296875 27.007812 25.199219 27.308594 C 25.101562 27.609375 24.925781 27.855469 24.667969 28.042969 L 22.394531 29.699219 C 22.269531 29.789062 22.234375 29.902344 22.28125 30.046875 L 23.148438 32.730469 C 23.21875 32.953125 23.234375 33.179688 23.199219 33.410156 C 23.160156 33.640625 23.074219 33.851562 22.9375 34.039062 C 22.796875 34.230469 22.625 34.378906 22.417969 34.484375 C 22.210938 34.59375 21.992188 34.648438 21.757812 34.648438 C 21.4375 34.652344 21.148438 34.558594 20.890625 34.371094 Z M 20.988281 26.546875 C 20.671875 26.546875 20.382812 26.453125 20.125 26.265625 C 19.871094 26.078125 19.691406 25.832031 19.59375 25.527344 L 18.726562 22.84375 C 18.679688 22.703125 18.582031 22.628906 18.433594 22.628906 C 18.28125 22.628906 18.183594 22.703125 18.140625 22.84375 L 17.269531 25.527344 C 17.171875 25.832031 16.996094 26.078125 16.738281 26.265625 C 16.480469 26.453125 16.195312 26.546875 15.878906 26.546875 L 13.058594 26.546875 C 12.910156 26.546875 12.8125 26.617188 12.769531 26.757812 C 12.722656 26.902344 12.757812 27.015625 12.878906 27.105469 L 15.15625 28.761719 C 15.414062 28.949219 15.589844 29.195312 15.6875 29.496094 C 15.785156 29.800781 15.785156 30.101562 15.6875 30.402344 L 14.820312 33.085938 C 14.773438 33.230469 14.808594 33.34375 14.929688 33.433594 C 15.050781 33.519531 15.171875 33.519531 15.292969 33.433594 L 17.570312 31.773438 C 17.828125 31.585938 18.113281 31.492188 18.429688 31.492188 C 18.746094 31.492188 19.035156 31.585938 19.289062 31.773438 L 21.566406 33.433594 C 21.6875 33.519531 21.808594 33.519531 21.929688 33.433594 C 22.050781 33.34375 22.085938 33.230469 22.042969 33.085938 L 21.171875 30.402344 C 21.074219 30.101562 21.074219 29.800781 21.171875 29.496094 C 21.269531 29.195312 21.445312 28.949219 21.703125 28.761719 L 23.980469 27.105469 C 24.101562 27.015625 24.136719 26.902344 24.09375 26.757812 C 24.046875 26.617188 23.949219 26.546875 23.800781 26.546875 Z M 20.988281 26.546875 "/></g><path style=" stroke:none;fill-rule:nonzero;fill:#000000;fill-opacity:1;" d="M 6.359375 28.183594 C 6.128906 28.019531 5.96875 27.800781 5.878906 27.527344 C 5.792969 27.257812 5.792969 26.984375 5.882812 26.714844 L 6.605469 24.488281 C 6.628906 24.414062 6.609375 24.355469 6.546875 24.308594 L 4.65625 22.925781 C 4.425781 22.757812 4.269531 22.539062 4.179688 22.265625 C 4.09375 21.996094 4.09375 21.722656 4.179688 21.453125 C 4.269531 21.179688 4.425781 20.960938 4.65625 20.792969 C 4.886719 20.625 5.144531 20.542969 5.429688 20.542969 L 7.765625 20.542969 C 7.84375 20.542969 7.894531 20.503906 7.914062 20.429688 L 8.636719 18.203125 C 8.726562 17.929688 8.886719 17.710938 9.117188 17.542969 C 9.347656 17.375 9.601562 17.292969 9.886719 17.292969 C 10.171875 17.292969 10.429688 17.375 10.660156 17.542969 C 10.890625 17.710938 11.046875 17.929688 11.136719 18.203125 L 11.859375 20.429688 C 11.882812 20.503906 11.929688 20.542969 12.007812 20.542969 L 14.34375 20.542969 C 14.628906 20.542969 14.886719 20.625 15.117188 20.792969 C 15.347656 20.960938 15.507812 21.179688 15.59375 21.453125 C 15.683594 21.722656 15.683594 21.996094 15.59375 22.265625 C 15.507812 22.539062 15.347656 22.757812 15.117188 22.925781 L 13.226562 24.300781 C 13.164062 24.347656 13.144531 24.40625 13.167969 24.480469 L 13.59375 25.789062 C 13.621094 25.875 13.628906 25.964844 13.617188 26.054688 C 13.601562 26.148438 13.570312 26.230469 13.515625 26.304688 C 13.460938 26.378906 13.394531 26.4375 13.3125 26.480469 C 13.234375 26.523438 13.148438 26.546875 13.054688 26.546875 C 12.910156 26.550781 12.8125 26.621094 12.769531 26.761719 C 12.726562 26.902344 12.765625 27.015625 12.882812 27.105469 L 13.21875 27.347656 C 13.410156 27.484375 13.488281 27.667969 13.453125 27.902344 C 13.417969 28.132812 13.292969 28.289062 13.070312 28.363281 C 12.636719 28.515625 12.238281 28.457031 11.871094 28.183594 L 9.980469 26.800781 C 9.917969 26.757812 9.855469 26.757812 9.792969 26.800781 L 7.902344 28.183594 C 7.675781 28.355469 7.417969 28.441406 7.132812 28.441406 C 6.847656 28.441406 6.589844 28.355469 6.359375 28.183594 Z M 10.660156 25.871094 L 11.628906 26.574219 C 11.636719 26.523438 11.652344 26.472656 11.667969 26.421875 C 11.773438 26.058594 11.992188 25.78125 12.3125 25.585938 L 12.070312 24.832031 C 11.984375 24.5625 11.984375 24.292969 12.070312 24.019531 C 12.160156 23.75 12.316406 23.53125 12.546875 23.363281 L 14.4375 21.984375 C 14.5 21.941406 14.519531 21.882812 14.496094 21.808594 C 14.472656 21.738281 14.421875 21.699219 14.34375 21.699219 L 12.007812 21.699219 C 11.726562 21.703125 11.46875 21.617188 11.238281 21.453125 C 11.007812 21.285156 10.847656 21.066406 10.761719 20.796875 L 10.039062 18.566406 C 10.015625 18.496094 9.964844 18.457031 9.886719 18.457031 C 9.808594 18.457031 9.761719 18.496094 9.738281 18.566406 L 9.015625 20.796875 C 8.925781 21.066406 8.765625 21.285156 8.535156 21.453125 C 8.308594 21.617188 8.050781 21.703125 7.765625 21.699219 L 5.429688 21.699219 C 5.351562 21.699219 5.304688 21.738281 5.28125 21.808594 C 5.253906 21.882812 5.273438 21.941406 5.335938 21.984375 L 7.226562 23.363281 C 7.457031 23.53125 7.617188 23.75 7.703125 24.019531 C 7.792969 24.292969 7.792969 24.5625 7.703125 24.832031 L 6.980469 27.066406 C 6.957031 27.140625 6.976562 27.199219 7.039062 27.242188 C 7.101562 27.289062 7.164062 27.289062 7.226562 27.242188 L 9.117188 25.867188 C 9.347656 25.699219 9.601562 25.613281 9.886719 25.613281 C 10.171875 25.613281 10.429688 25.699219 10.660156 25.867188 Z M 10.660156 25.871094 "/><g clip-rule="nonzero" clip-path="url(#2b50e7e103)"><path style=" stroke:none;fill-rule:nonzero;fill:#000000;fill-opacity:1;" d="M 28.960938 28.183594 L 27.070312 26.804688 C 27.007812 26.761719 26.945312 26.761719 26.886719 26.804688 L 24.996094 28.183594 C 24.628906 28.457031 24.230469 28.515625 23.800781 28.367188 C 23.578125 28.292969 23.453125 28.136719 23.417969 27.90625 C 23.382812 27.671875 23.460938 27.488281 23.652344 27.351562 L 23.984375 27.109375 C 24.101562 27.023438 24.140625 26.90625 24.097656 26.765625 C 24.050781 26.625 23.957031 26.554688 23.808594 26.550781 C 23.71875 26.546875 23.632812 26.527344 23.550781 26.484375 C 23.46875 26.441406 23.402344 26.382812 23.351562 26.308594 C 23.296875 26.234375 23.261719 26.148438 23.25 26.058594 C 23.234375 25.96875 23.242188 25.878906 23.273438 25.792969 L 23.695312 24.480469 C 23.71875 24.410156 23.699219 24.351562 23.636719 24.304688 L 21.75 22.929688 C 21.519531 22.761719 21.359375 22.542969 21.269531 22.269531 C 21.183594 22 21.183594 21.726562 21.269531 21.457031 C 21.359375 21.183594 21.515625 20.964844 21.746094 20.796875 C 21.976562 20.628906 22.234375 20.546875 22.519531 20.546875 L 24.855469 20.546875 C 24.933594 20.546875 24.984375 20.507812 25.007812 20.433594 L 25.730469 18.207031 C 25.816406 17.933594 25.976562 17.714844 26.207031 17.546875 C 26.4375 17.378906 26.695312 17.296875 26.976562 17.296875 C 27.261719 17.296875 27.519531 17.378906 27.75 17.546875 C 27.980469 17.714844 28.140625 17.933594 28.226562 18.207031 L 28.949219 20.433594 C 28.972656 20.507812 29.019531 20.546875 29.097656 20.546875 L 31.433594 20.546875 C 31.71875 20.546875 31.976562 20.628906 32.207031 20.796875 C 32.4375 20.964844 32.597656 21.183594 32.683594 21.457031 C 32.773438 21.726562 32.773438 22 32.683594 22.269531 C 32.597656 22.542969 32.4375 22.761719 32.207031 22.929688 L 30.316406 24.304688 C 30.253906 24.351562 30.234375 24.410156 30.261719 24.480469 L 30.984375 26.710938 C 31.074219 26.980469 31.074219 27.253906 30.984375 27.523438 C 30.898438 27.796875 30.738281 28.015625 30.503906 28.179688 C 30.277344 28.351562 30.019531 28.4375 29.734375 28.4375 C 29.449219 28.4375 29.191406 28.351562 28.960938 28.179688 Z M 29.097656 21.707031 C 28.816406 21.707031 28.558594 21.621094 28.328125 21.453125 C 28.097656 21.289062 27.9375 21.066406 27.847656 20.796875 L 27.128906 18.566406 C 27.105469 18.496094 27.054688 18.457031 26.976562 18.457031 C 26.902344 18.457031 26.851562 18.496094 26.828125 18.566406 L 26.105469 20.796875 C 26.019531 21.066406 25.859375 21.289062 25.628906 21.453125 C 25.398438 21.621094 25.140625 21.707031 24.855469 21.707031 L 22.519531 21.707031 C 22.445312 21.707031 22.394531 21.742188 22.371094 21.816406 C 22.347656 21.886719 22.363281 21.945312 22.425781 21.992188 L 24.316406 23.371094 C 24.546875 23.535156 24.707031 23.753906 24.792969 24.027344 C 24.882812 24.296875 24.882812 24.566406 24.792969 24.839844 L 24.550781 25.585938 C 24.871094 25.777344 25.089844 26.054688 25.199219 26.414062 C 25.214844 26.460938 25.226562 26.515625 25.238281 26.566406 L 26.207031 25.859375 C 26.4375 25.691406 26.691406 25.609375 26.976562 25.609375 C 27.261719 25.609375 27.519531 25.691406 27.75 25.859375 L 29.640625 27.238281 C 29.703125 27.285156 29.765625 27.285156 29.828125 27.238281 C 29.890625 27.195312 29.90625 27.132812 29.882812 27.0625 L 29.160156 24.832031 C 29.074219 24.5625 29.074219 24.292969 29.160156 24.019531 C 29.25 23.75 29.40625 23.53125 29.636719 23.363281 L 31.527344 21.984375 C 31.589844 21.941406 31.609375 21.882812 31.585938 21.808594 C 31.5625 21.738281 31.511719 21.699219 31.4375 21.699219 Z M 29.097656 21.707031 "/></g><g clip-rule="nonzero" clip-path="url(#a00a7fa938)"><path style=" stroke:none;fill-rule:nonzero;fill:#000000;fill-opacity:1;" d="M 7.738281 16.207031 C 7.59375 16.207031 7.46875 16.160156 7.359375 16.066406 C 7.253906 15.96875 7.1875 15.851562 7.167969 15.710938 C 7.089844 15.171875 7.050781 14.628906 7.054688 14.082031 C 7.054688 13.621094 7.082031 13.164062 7.140625 12.707031 C 7.195312 12.25 7.28125 11.796875 7.390625 11.351562 C 7.503906 10.90625 7.644531 10.46875 7.808594 10.039062 C 7.972656 9.609375 8.164062 9.191406 8.382812 8.785156 C 8.601562 8.378906 8.839844 7.988281 9.105469 7.613281 C 9.371094 7.238281 9.660156 6.878906 9.96875 6.539062 C 10.277344 6.199219 10.605469 5.878906 10.953125 5.578125 C 11.304688 5.28125 11.667969 5.003906 12.050781 4.746094 C 12.433594 4.492188 12.832031 4.261719 13.242188 4.058594 C 13.652344 3.851562 14.074219 3.671875 14.507812 3.519531 C 14.941406 3.367188 15.378906 3.238281 15.828125 3.140625 C 16.277344 3.042969 16.730469 2.972656 17.1875 2.929688 C 17.644531 2.886719 18.101562 2.871094 18.5625 2.882812 C 19.019531 2.898438 19.476562 2.941406 19.929688 3.007812 C 20.382812 3.078125 20.832031 3.175781 21.273438 3.300781 C 21.714844 3.429688 22.148438 3.578125 22.570312 3.757812 C 22.71875 3.820312 22.820312 3.925781 22.882812 4.074219 C 22.941406 4.222656 22.941406 4.371094 22.878906 4.519531 C 22.816406 4.664062 22.710938 4.769531 22.5625 4.828125 C 22.414062 4.890625 22.265625 4.886719 22.121094 4.824219 C 21.742188 4.664062 21.351562 4.527344 20.957031 4.417969 C 20.5625 4.304688 20.160156 4.214844 19.753906 4.152344 C 19.34375 4.089844 18.9375 4.054688 18.523438 4.042969 C 18.113281 4.027344 17.703125 4.042969 17.292969 4.082031 C 16.882812 4.121094 16.476562 4.183594 16.074219 4.273438 C 15.671875 4.359375 15.277344 4.472656 14.890625 4.609375 C 14.5 4.75 14.121094 4.910156 13.753906 5.09375 C 13.386719 5.277344 13.03125 5.484375 12.6875 5.710938 C 12.34375 5.941406 12.015625 6.1875 11.703125 6.457031 C 11.390625 6.726562 11.097656 7.011719 10.820312 7.316406 C 10.542969 7.625 10.285156 7.945312 10.046875 8.28125 C 9.808594 8.617188 9.59375 8.96875 9.398438 9.332031 C 9.203125 9.695312 9.03125 10.070312 8.882812 10.453125 C 8.734375 10.839844 8.609375 11.230469 8.507812 11.632812 C 8.40625 12.03125 8.332031 12.4375 8.28125 12.847656 C 8.230469 13.257812 8.203125 13.667969 8.203125 14.082031 C 8.203125 14.570312 8.238281 15.058594 8.308594 15.542969 C 8.332031 15.699219 8.296875 15.84375 8.203125 15.972656 C 8.105469 16.101562 7.980469 16.175781 7.820312 16.199219 C 7.792969 16.203125 7.765625 16.207031 7.738281 16.207031 Z M 7.738281 16.207031 "/></g><path style=" stroke:none;fill-rule:nonzero;fill:#000000;fill-opacity:1;" d="M 28.707031 16.207031 C 28.679688 16.207031 28.652344 16.203125 28.621094 16.199219 C 28.464844 16.175781 28.339844 16.101562 28.242188 15.972656 C 28.148438 15.84375 28.113281 15.703125 28.132812 15.542969 C 28.203125 15.058594 28.238281 14.570312 28.238281 14.082031 C 28.238281 13.0625 28.089844 12.066406 27.789062 11.09375 C 27.734375 10.9375 27.742188 10.789062 27.816406 10.640625 C 27.890625 10.492188 28.003906 10.394531 28.164062 10.347656 C 28.320312 10.296875 28.46875 10.316406 28.613281 10.394531 C 28.757812 10.476562 28.851562 10.597656 28.890625 10.753906 C 29.226562 11.839844 29.394531 12.953125 29.394531 14.085938 C 29.394531 14.632812 29.355469 15.175781 29.28125 15.714844 C 29.257812 15.859375 29.195312 15.976562 29.085938 16.066406 C 28.976562 16.160156 28.851562 16.207031 28.707031 16.207031 Z M 28.707031 16.207031 "/><g clip-rule="nonzero" clip-path="url(#ead6d6ae75)"><path style=" stroke:none;fill-rule:nonzero;fill:#000000;fill-opacity:1;" d="M 18.222656 19.5 C 17.652344 19.5 17.15625 19.304688 16.734375 18.917969 L 10.824219 13.433594 C 10.605469 13.234375 10.4375 13.003906 10.316406 12.738281 C 10.191406 12.472656 10.125 12.195312 10.113281 11.902344 C 10.097656 11.609375 10.144531 11.328125 10.242188 11.050781 C 10.34375 10.777344 10.492188 10.53125 10.691406 10.316406 C 10.890625 10.101562 11.121094 9.933594 11.386719 9.8125 C 11.652344 9.691406 11.929688 9.625 12.222656 9.613281 C 12.511719 9.601562 12.796875 9.648438 13.070312 9.75 C 13.34375 9.855469 13.585938 10.003906 13.796875 10.203125 L 17.953125 14.058594 L 26.28125 3.273438 C 26.460938 3.046875 26.679688 2.867188 26.929688 2.726562 C 27.179688 2.589844 27.449219 2.503906 27.734375 2.46875 C 28.019531 2.433594 28.300781 2.457031 28.578125 2.535156 C 28.851562 2.609375 29.105469 2.738281 29.332031 2.914062 C 29.558594 3.089844 29.746094 3.300781 29.886719 3.550781 C 30.03125 3.800781 30.125 4.066406 30.164062 4.351562 C 30.203125 4.636719 30.183594 4.921875 30.113281 5.199219 C 30.042969 5.476562 29.921875 5.734375 29.75 5.964844 L 19.957031 18.648438 C 19.5625 19.15625 19.042969 19.4375 18.402344 19.492188 C 18.34375 19.496094 18.28125 19.5 18.222656 19.5 Z M 12.3125 10.78125 L 12.269531 10.78125 C 12.058594 10.789062 11.867188 10.855469 11.695312 10.980469 C 11.527344 11.101562 11.402344 11.265625 11.332031 11.460938 C 11.257812 11.660156 11.246094 11.863281 11.296875 12.070312 C 11.347656 12.273438 11.449219 12.449219 11.605469 12.589844 L 17.523438 18.0625 C 17.746094 18.273438 18.011719 18.363281 18.3125 18.335938 C 18.617188 18.3125 18.859375 18.179688 19.046875 17.9375 L 28.839844 5.253906 C 28.929688 5.144531 28.988281 5.023438 29.027344 4.890625 C 29.066406 4.753906 29.078125 4.621094 29.058594 4.480469 C 29.042969 4.34375 29 4.214844 28.933594 4.09375 C 28.863281 3.972656 28.773438 3.867188 28.664062 3.785156 C 28.554688 3.699219 28.433594 3.636719 28.300781 3.601562 C 28.164062 3.566406 28.03125 3.558594 27.890625 3.574219 C 27.753906 3.59375 27.625 3.636719 27.507812 3.707031 C 27.386719 3.777344 27.285156 3.871094 27.203125 3.980469 L 18.488281 15.265625 C 18.382812 15.402344 18.246094 15.476562 18.078125 15.488281 C 17.910156 15.503906 17.761719 15.453125 17.636719 15.339844 L 13.015625 11.054688 C 12.816406 10.871094 12.582031 10.78125 12.3125 10.78125 Z M 12.3125 10.78125 "/></g></g></svg>