<svg xmlns="http://www.w3.org/2000/svg" xmlns:xlink="http://www.w3.org/1999/xlink" width="50" zoomAndPan="magnify" viewBox="0 0 37.5 37.499999" height="50" preserveAspectRatio="xMidYMid meet" version="1.2"><defs><clipPath id="2fc0acad7d"><path d="M 7 1.988281 L 35.210938 1.988281 L 35.210938 30 L 7 30 Z M 7 1.988281 "/></clipPath><clipPath id="d99a136e0e"><path d="M 2 20 L 21 20 L 21 35.292969 L 2 35.292969 Z M 2 20 "/></clipPath><clipPath id="077685b01e"><path d="M 28 1.988281 L 35 1.988281 L 35 11 L 28 11 Z M 28 1.988281 "/></clipPath></defs><g id="69aaa4937d"><path style=" stroke:none;fill-rule:nonzero;fill:#d1f7f0;fill-opacity:1;" d="M 17.726562 15.355469 C 18.035156 16.023438 18.578125 16.566406 19.144531 16.722656 C 19.222656 16.746094 19.25 16.746094 19.273438 17.1875 C 19.300781 17.445312 19.300781 17.726562 19.453125 18.011719 C 19.660156 18.398438 19.972656 18.578125 20.230469 18.734375 C 20.511719 18.914062 20.746094 19.019531 20.875 19.484375 C 21.027344 19.945312 21.339844 20.308594 21.726562 20.488281 C 22.035156 20.617188 22.34375 20.59375 22.601562 20.566406 C 22.707031 20.566406 22.785156 20.539062 22.859375 20.539062 C 23.144531 20.539062 23.429688 20.773438 23.738281 21.058594 C 23.96875 21.238281 24.203125 21.445312 24.488281 21.597656 C 24.71875 21.726562 25.027344 21.804688 25.3125 21.804688 C 25.621094 21.804688 25.90625 21.703125 26.136719 21.46875 C 26.34375 21.289062 26.421875 21.058594 26.5 20.875 C 26.523438 20.796875 26.578125 20.667969 26.601562 20.644531 C 26.652344 20.59375 26.835938 20.59375 26.964844 20.566406 C 27.273438 20.539062 27.6875 20.515625 27.996094 20.152344 C 28.175781 19.945312 28.226562 19.6875 28.28125 19.535156 C 28.511719 18.527344 28.742188 17.367188 28.226562 16.386719 C 28.640625 16.078125 28.820312 15.507812 28.71875 14.785156 C 28.667969 14.425781 28.5625 13.988281 28.203125 13.675781 C 27.867188 13.394531 27.429688 13.289062 27.015625 13.394531 C 26.964844 13.339844 26.9375 13.289062 26.886719 13.265625 C 26.808594 13.1875 26.730469 13.109375 26.652344 13.007812 C 26.265625 12.617188 25.597656 12.4375 25.078125 12.59375 C 24.539062 12.773438 24.125 12.746094 23.765625 12.722656 C 23.6875 12.722656 23.609375 12.722656 23.53125 12.722656 C 22.242188 12.695312 21.828125 12.257812 21.804688 12.207031 C 21.75 12.128906 21.675781 11.84375 21.648438 11.664062 C 21.492188 11.070312 21.234375 9.933594 20.125 10.117188 C 19.789062 10.167969 19.53125 10.324219 19.351562 10.425781 C 19.300781 10.453125 19.25 10.476562 19.222656 10.476562 C 19.144531 10.503906 19.09375 10.476562 19.09375 10.476562 C 19.09375 10.476562 19.066406 10.476562 19.066406 10.476562 C 18.886719 10.398438 18.707031 10.347656 18.292969 10.453125 C 17.933594 10.527344 17.75 10.734375 17.675781 10.890625 C 17.441406 11.304688 17.597656 11.765625 17.726562 12.179688 C 17.777344 12.359375 17.878906 12.671875 17.855469 12.773438 C 17.390625 13.574219 17.363281 14.503906 17.726562 15.355469 Z M 18.679688 11.84375 C 18.65625 11.714844 18.578125 11.535156 18.578125 11.433594 C 18.628906 11.433594 18.65625 11.433594 18.65625 11.433594 L 18.679688 11.433594 C 18.835938 11.507812 19.042969 11.5625 19.402344 11.484375 C 19.582031 11.457031 19.710938 11.378906 19.84375 11.304688 C 19.972656 11.226562 20.101562 11.148438 20.28125 11.121094 C 20.410156 11.097656 20.488281 11.277344 20.640625 11.894531 C 20.71875 12.257812 20.824219 12.59375 21.027344 12.851562 C 21.234375 13.109375 21.90625 13.703125 23.53125 13.753906 C 23.582031 13.753906 23.660156 13.753906 23.738281 13.753906 C 24.152344 13.78125 24.691406 13.804688 25.414062 13.574219 C 25.570312 13.523438 25.855469 13.597656 25.957031 13.703125 C 26.035156 13.78125 26.085938 13.859375 26.164062 13.933594 C 26.292969 14.0625 26.421875 14.21875 26.601562 14.375 C 26.78125 14.527344 27.066406 14.554688 27.246094 14.398438 C 27.324219 14.347656 27.480469 14.347656 27.558594 14.425781 C 27.660156 14.527344 27.710938 14.761719 27.738281 14.941406 C 27.789062 15.277344 27.738281 15.507812 27.660156 15.558594 L 27.609375 15.585938 C 27.480469 15.664062 27.171875 15.820312 27.117188 16.179688 C 27.066406 16.464844 27.222656 16.644531 27.273438 16.773438 C 27.710938 17.445312 27.53125 18.398438 27.324219 19.328125 C 27.300781 19.378906 27.273438 19.507812 27.273438 19.535156 C 27.222656 19.558594 27.039062 19.585938 26.9375 19.585938 C 26.652344 19.613281 26.292969 19.636719 26.007812 19.894531 C 25.777344 20.101562 25.671875 20.335938 25.597656 20.539062 C 25.570312 20.644531 25.519531 20.746094 25.46875 20.773438 C 25.414062 20.824219 25.234375 20.824219 25.027344 20.722656 C 24.847656 20.617188 24.667969 20.464844 24.460938 20.308594 C 24.046875 19.972656 23.582031 19.558594 22.9375 19.558594 C 22.914062 19.558594 22.914062 19.558594 22.886719 19.558594 C 22.757812 19.558594 22.628906 19.585938 22.527344 19.585938 C 22.394531 19.613281 22.265625 19.613281 22.214844 19.585938 C 22.085938 19.535156 21.984375 19.378906 21.933594 19.199219 C 21.675781 18.347656 21.15625 18.0625 20.796875 17.855469 C 20.589844 17.726562 20.488281 17.675781 20.410156 17.546875 C 20.359375 17.46875 20.359375 17.289062 20.359375 17.132812 C 20.332031 16.722656 20.28125 15.972656 19.480469 15.742188 C 19.25 15.664062 18.914062 15.40625 18.707031 14.941406 C 18.578125 14.632812 18.398438 13.988281 18.785156 13.210938 C 18.964844 12.773438 18.808594 12.285156 18.679688 11.84375 Z M 18.679688 11.84375 "/><g clip-rule="nonzero" clip-path="url(#2fc0acad7d)"><path style=" stroke:none;fill-rule:nonzero;fill:#d1f7f0;fill-opacity:1;" d="M 18.601562 28.566406 C 18.140625 28.460938 17.699219 28.359375 17.261719 28.230469 L 17.546875 29.390625 C 18.707031 29.699219 19.917969 29.882812 21.15625 29.882812 C 28.847656 29.882812 35.089844 23.636719 35.089844 15.949219 C 35.089844 13.652344 34.523438 11.457031 33.519531 9.546875 C 33.285156 9.933594 33.078125 10.269531 32.871094 10.582031 C 33.183594 11.277344 33.441406 12 33.648438 12.746094 C 33.59375 12.722656 33.542969 12.671875 33.492188 12.644531 C 33.078125 12.386719 32.511719 12 31.890625 12.308594 C 31.582031 12.464844 31.425781 12.695312 31.273438 12.902344 C 31.222656 13.007812 31.144531 13.082031 31.09375 13.136719 C 30.910156 13.289062 30.5 13.210938 30.292969 12.980469 C 29.984375 12.671875 29.878906 12.15625 29.800781 11.714844 C 29.722656 11.304688 29.648438 10.839844 29.335938 10.425781 C 29.078125 10.0625 28.640625 9.910156 28.253906 9.78125 C 28.097656 9.730469 27.839844 9.625 27.789062 9.574219 C 27.710938 9.496094 27.710938 9.238281 27.6875 9.058594 C 27.660156 8.695312 27.609375 8.285156 27.273438 8 C 26.757812 7.613281 26.007812 7.5625 25.261719 7.898438 C 25.003906 8 24.796875 8.128906 24.5625 8.257812 C 24.332031 8.386719 24.097656 8.515625 23.894531 8.59375 C 23.582031 8.695312 23.171875 8.722656 22.988281 8.542969 C 22.914062 8.464844 22.859375 8.257812 22.808594 8.101562 C 22.679688 7.714844 22.472656 7.121094 21.828125 7.046875 C 21.082031 6.96875 21.054688 6.734375 20.925781 6.21875 C 20.824219 5.730469 20.667969 5.085938 19.917969 4.671875 C 19.453125 4.414062 18.914062 4.414062 18.421875 4.414062 C 17.46875 4.414062 17.289062 4.335938 17.261719 3.714844 C 18.472656 3.226562 19.789062 3.019531 21.15625 3.019531 C 23.324219 3.019531 25.339844 3.5625 27.144531 4.492188 C 27.195312 4.128906 27.273438 3.792969 27.429688 3.484375 C 25.519531 2.53125 23.402344 1.988281 21.15625 1.988281 C 13.46875 1.988281 7.222656 8.230469 7.222656 15.921875 C 7.222656 18.0625 7.714844 20.101562 8.589844 21.90625 L 9.367188 21.132812 C 8.644531 19.535156 8.257812 17.78125 8.257812 15.921875 C 8.257812 13.289062 9.054688 10.8125 10.421875 8.773438 C 10.863281 8.824219 11.144531 9.210938 11.507812 9.78125 C 11.84375 10.324219 12.253906 10.96875 12.976562 10.890625 C 13.441406 10.839844 14.011719 10.914062 14.371094 11.871094 C 14.398438 11.949219 14.347656 12.15625 14.292969 12.285156 L 14.292969 12.335938 C 14.113281 12.953125 14.214844 13.625 14.578125 14.117188 C 15.328125 14.398438 15.945312 14.941406 16.359375 15.636719 C 16.539062 14.96875 16.253906 14.21875 15.585938 13.703125 C 15.273438 13.46875 15.144531 13.03125 15.273438 12.644531 L 15.273438 12.617188 C 15.351562 12.335938 15.480469 11.921875 15.328125 11.535156 C 14.886719 10.375 14.011719 9.804688 12.875 9.910156 C 12.773438 9.910156 12.488281 9.472656 12.382812 9.265625 C 12.074219 8.800781 11.714844 8.179688 11.070312 7.898438 C 12.410156 6.195312 14.191406 4.851562 16.230469 4 C 16.4375 5.316406 17.621094 5.34375 18.371094 5.367188 C 18.757812 5.367188 19.144531 5.367188 19.378906 5.496094 C 19.710938 5.679688 19.789062 5.9375 19.894531 6.375 C 20.023438 6.96875 20.230469 7.84375 21.675781 8 C 21.726562 8.078125 21.777344 8.230469 21.804688 8.363281 C 21.90625 8.644531 22.007812 8.953125 22.242188 9.1875 C 22.808594 9.753906 23.636719 9.730469 24.253906 9.496094 C 24.5625 9.394531 24.820312 9.238281 25.078125 9.082031 C 25.285156 8.980469 25.46875 8.851562 25.671875 8.773438 C 25.957031 8.644531 26.371094 8.566406 26.601562 8.75 C 26.628906 8.824219 26.628906 8.980469 26.652344 9.109375 C 26.679688 9.445312 26.730469 9.859375 26.988281 10.195312 C 27.222656 10.476562 27.582031 10.582031 27.917969 10.710938 C 28.152344 10.785156 28.410156 10.890625 28.511719 10.992188 C 28.667969 11.199219 28.742188 11.535156 28.796875 11.84375 C 28.898438 12.464844 29.054688 13.160156 29.570312 13.675781 C 29.90625 14.011719 30.394531 14.21875 30.859375 14.21875 C 31.195312 14.21875 31.53125 14.117188 31.789062 13.882812 C 31.945312 13.753906 32.046875 13.597656 32.125 13.46875 C 32.203125 13.367188 32.277344 13.265625 32.332031 13.210938 C 32.433594 13.160156 32.71875 13.339844 32.925781 13.46875 C 33.207031 13.652344 33.542969 13.859375 33.90625 13.910156 C 34.007812 14.554688 34.058594 15.25 34.058594 15.921875 C 34.058594 19.378906 32.691406 22.527344 30.472656 24.851562 C 30.214844 24.695312 29.90625 24.589844 29.492188 24.589844 L 29.335938 24.589844 C 29.105469 24.589844 28.871094 24.617188 28.769531 24.539062 C 28.742188 24.515625 28.71875 24.460938 28.667969 24.410156 C 28.539062 24.257812 28.355469 24 28.046875 23.921875 C 27.558594 23.792969 27.195312 24.128906 27.039062 24.28125 L 26.191406 25.03125 C 25.75 25.417969 25.570312 25.417969 25.492188 25.390625 C 25.414062 25.367188 25.285156 25.238281 25.183594 25.132812 C 24.949219 24.875 24.589844 24.515625 24.023438 24.589844 C 23.765625 24.644531 23.558594 24.796875 23.453125 24.875 L 23.351562 24.953125 C 22.628906 25.519531 21.957031 26.035156 21.210938 26.347656 C 21.054688 26.398438 20.875 26.476562 20.71875 26.527344 C 20.304688 26.65625 19.867188 26.8125 19.480469 27.09375 C 19.015625 27.457031 18.65625 27.996094 18.601562 28.566406 Z M 20.074219 27.972656 C 20.359375 27.792969 20.691406 27.664062 21.054688 27.535156 C 21.234375 27.480469 21.414062 27.402344 21.597656 27.328125 C 22.5 26.964844 23.273438 26.371094 23.996094 25.804688 L 24.097656 25.726562 C 24.125 25.703125 24.175781 25.648438 24.226562 25.648438 C 24.28125 25.675781 24.382812 25.804688 24.460938 25.855469 C 24.640625 26.035156 24.847656 26.242188 25.132812 26.371094 C 25.90625 26.683594 26.601562 26.0625 26.886719 25.832031 L 27.738281 25.082031 C 27.789062 25.054688 27.816406 25.03125 27.839844 25.003906 C 27.867188 25.03125 27.867188 25.03125 27.867188 25.054688 C 27.917969 25.132812 27.996094 25.238281 28.097656 25.3125 C 28.484375 25.675781 29.003906 25.648438 29.390625 25.648438 L 29.519531 25.648438 C 29.570312 25.648438 29.621094 25.648438 29.648438 25.648438 C 27.375 27.609375 24.410156 28.824219 21.15625 28.824219 C 20.640625 28.824219 20.152344 28.796875 19.636719 28.746094 C 19.609375 28.488281 19.816406 28.152344 20.074219 27.972656 Z M 20.074219 27.972656 "/></g><g clip-rule="nonzero" clip-path="url(#d99a136e0e)"><path style=" stroke:none;fill-rule:nonzero;fill:#d1f7f0;fill-opacity:1;" d="M 2.554688 33.261719 L 2.761719 33.390625 C 2.578125 33.519531 2.449219 33.726562 2.449219 33.984375 C 2.449219 34.421875 2.785156 34.757812 3.222656 34.757812 C 3.585938 34.757812 3.894531 34.5 3.972656 34.140625 L 4.308594 34.34375 C 4.464844 34.449219 4.667969 34.5 4.851562 34.5 C 4.925781 34.5 5.003906 34.5 5.082031 34.472656 C 5.367188 34.398438 5.574219 34.242188 5.726562 34.011719 L 8.203125 29.984375 C 8.515625 29.496094 8.359375 28.847656 7.867188 28.566406 L 7.480469 28.332031 L 9.210938 25.933594 C 9.238281 25.933594 9.238281 25.933594 9.261719 25.933594 C 9.519531 25.933594 9.804688 25.832031 9.984375 25.625 L 10.628906 25.003906 L 10.628906 26.476562 C 10.628906 26.785156 10.734375 27.09375 10.914062 27.378906 L 11.171875 27.738281 L 9.390625 32.925781 C 9.3125 33.183594 9.3125 33.46875 9.441406 33.726562 C 9.570312 33.984375 9.777344 34.164062 10.035156 34.242188 L 11.015625 34.578125 C 11.121094 34.601562 11.25 34.628906 11.351562 34.628906 C 11.792969 34.628906 12.179688 34.371094 12.332031 33.933594 L 13.390625 30.863281 L 13.519531 31.015625 L 13.519531 33.984375 C 13.519531 34.550781 13.984375 35.015625 14.550781 35.015625 L 15.585938 35.015625 C 16.152344 35.015625 16.617188 34.550781 16.617188 33.984375 L 16.617188 29.957031 C 16.617188 29.90625 16.617188 29.882812 16.589844 29.828125 L 15.816406 26.683594 L 15.816406 24.695312 L 16.152344 25.003906 C 16.203125 25.054688 16.28125 25.109375 16.359375 25.132812 L 18.628906 25.832031 C 18.730469 25.855469 18.835938 25.882812 18.9375 25.882812 C 19.378906 25.882812 19.765625 25.625 19.917969 25.183594 L 20.101562 24.695312 C 20.203125 24.4375 20.175781 24.152344 20.046875 23.894531 C 19.917969 23.636719 19.710938 23.457031 19.429688 23.378906 L 17.441406 22.757812 L 15.351562 20.695312 C 15.300781 20.644531 15.25 20.617188 15.171875 20.59375 C 14.914062 20.410156 14.605469 20.308594 14.292969 20.308594 L 12.203125 20.308594 C 11.609375 20.308594 11.070312 20.644531 10.8125 21.160156 L 8.179688 23.765625 C 7.972656 23.972656 7.867188 24.230469 7.867188 24.488281 C 7.867188 24.773438 7.972656 25.03125 8.179688 25.210938 L 8.332031 25.367188 L 6.605469 27.738281 L 6.113281 27.429688 C 5.882812 27.273438 5.597656 27.25 5.339844 27.300781 C 5.054688 27.378906 4.851562 27.535156 4.695312 27.765625 L 2.21875 31.789062 C 1.910156 32.308594 2.0625 32.953125 2.554688 33.261719 Z M 11.328125 33.546875 L 10.347656 33.210938 L 11.894531 28.71875 L 12.644531 29.777344 Z M 16.976562 23.714844 L 19.09375 24.359375 L 18.914062 24.851562 L 16.769531 24.179688 L 15.816406 23.300781 L 15.816406 22.65625 L 16.769531 23.609375 C 16.847656 23.636719 16.898438 23.6875 16.976562 23.714844 Z M 11.84375 21.574219 C 11.894531 21.519531 11.945312 21.445312 11.972656 21.390625 C 12.050781 21.367188 12.125 21.339844 12.203125 21.339844 L 14.292969 21.339844 C 14.578125 21.339844 14.808594 21.574219 14.808594 21.855469 L 14.808594 26.757812 C 14.808594 26.8125 14.808594 26.835938 14.835938 26.886719 L 15.609375 30.035156 L 15.609375 33.984375 L 14.578125 33.984375 L 14.578125 30.808594 C 14.578125 30.707031 14.550781 30.605469 14.476562 30.5 L 11.765625 26.734375 C 11.714844 26.65625 11.664062 26.554688 11.664062 26.449219 L 11.664062 23.945312 L 12.925781 22.683594 C 13.132812 22.476562 13.132812 22.167969 12.925781 21.960938 C 12.71875 21.753906 12.410156 21.753906 12.203125 21.960938 L 9.339844 24.796875 C 9.261719 24.746094 9.183594 24.722656 9.082031 24.722656 L 8.875 24.515625 Z M 5.574219 28.332031 L 7.328125 29.441406 L 4.851562 33.46875 L 3.09375 32.359375 Z M 5.574219 28.332031 "/></g><path style=" stroke:none;fill-rule:nonzero;fill:#d1f7f0;fill-opacity:1;" d="M 13.234375 14.890625 C 11.816406 14.890625 10.628906 16.050781 10.628906 17.46875 C 10.628906 18.890625 11.792969 20.050781 13.234375 20.050781 C 14.65625 20.050781 15.84375 18.890625 15.84375 17.46875 C 15.84375 16.050781 14.65625 14.890625 13.234375 14.890625 Z M 13.234375 19.019531 C 12.382812 19.019531 11.664062 18.320312 11.664062 17.46875 C 11.664062 16.617188 12.359375 15.921875 13.234375 15.921875 C 14.113281 15.921875 14.808594 16.617188 14.808594 17.46875 C 14.808594 18.320312 14.085938 19.019531 13.234375 19.019531 Z M 13.234375 19.019531 "/><path style=" stroke:none;fill-rule:nonzero;fill:#d1f7f0;fill-opacity:1;" d="M 5.054688 32.152344 L 6.398438 29.933594 C 6.554688 29.699219 6.476562 29.367188 6.21875 29.238281 C 5.960938 29.082031 5.648438 29.160156 5.519531 29.417969 L 4.179688 31.636719 C 4.023438 31.867188 4.101562 32.203125 4.359375 32.332031 C 4.4375 32.382812 4.539062 32.410156 4.617188 32.410156 C 4.796875 32.410156 4.980469 32.308594 5.054688 32.152344 Z M 5.054688 32.152344 "/><g clip-rule="nonzero" clip-path="url(#077685b01e)"><path style=" stroke:none;fill-rule:nonzero;fill:#d1f7f0;fill-opacity:1;" d="M 28.125 5.03125 C 28.125 6.554688 30.523438 10.117188 30.78125 10.527344 C 30.886719 10.65625 31.039062 10.761719 31.222656 10.761719 C 31.402344 10.761719 31.554688 10.683594 31.660156 10.527344 C 31.945312 10.117188 34.316406 6.554688 34.316406 5.03125 C 34.316406 3.355469 32.925781 1.988281 31.222656 1.988281 C 29.519531 1.988281 28.125 3.355469 28.125 5.03125 Z M 33.285156 5.03125 C 33.285156 5.808594 32.148438 7.84375 31.222656 9.289062 C 30.292969 7.84375 29.15625 5.808594 29.15625 5.03125 C 29.15625 3.921875 30.085938 3.019531 31.222656 3.019531 C 32.355469 3.019531 33.285156 3.921875 33.285156 5.03125 Z M 33.285156 5.03125 "/></g><path style=" stroke:none;fill-rule:nonzero;fill:#d1f7f0;fill-opacity:1;" d="M 29.621094 5.085938 C 29.621094 5.960938 30.34375 6.683594 31.222656 6.683594 C 32.097656 6.683594 32.820312 5.960938 32.820312 5.085938 C 32.820312 4.207031 32.097656 3.484375 31.222656 3.484375 C 30.34375 3.484375 29.621094 4.207031 29.621094 5.085938 Z M 31.789062 5.085938 C 31.789062 5.394531 31.53125 5.652344 31.222656 5.652344 C 30.910156 5.652344 30.652344 5.394531 30.652344 5.085938 C 30.652344 4.773438 30.910156 4.515625 31.222656 4.515625 C 31.53125 4.515625 31.789062 4.773438 31.789062 5.085938 Z M 31.789062 5.085938 "/></g></svg>